<svg width="75" height="91" viewBox="0 0 75 91" fill="none" xmlns="http://www.w3.org/2000/svg">
<path d="M46.9415 52.3007H55.0362L42.1143 18.7644H33.1644L20.2424 52.3007H28.3377L30.4494 46.62H42.6589L40.4487 40.334H32.4097L37.6392 25.9041L46.9415 52.3007ZM73.6345 27.4712C73.5663 27.2246 73.4501 26.9938 73.2926 26.7922C73.1351 26.5905 72.9394 26.4219 72.7167 26.296C72.4939 26.1701 72.2486 26.0893 71.9946 26.0584C71.7406 26.0274 71.483 26.0469 71.2365 26.1156C70.7388 26.2538 70.3164 26.584 70.0621 27.0335C69.8079 27.4831 69.7426 28.0153 69.8807 28.513C70.6931 31.4396 71.1049 34.4629 71.1047 37.5001C71.1047 56.0299 56.0297 71.1044 37.5 71.1044C18.9703 71.1044 3.89561 56.0299 3.89561 37.5001C3.89561 18.9701 18.9703 3.89533 37.5 3.89533C45.3495 3.89533 52.9447 6.68382 58.9392 11.6461C58.6992 12.2189 58.5759 12.8337 58.5765 13.4546C58.5765 16.043 60.6747 18.1413 63.2631 18.1413C65.8515 18.1413 67.9497 16.043 67.9497 13.4546C67.9497 10.8663 65.8515 8.768 63.2631 8.768C62.7647 8.768 62.2852 8.8474 61.8346 8.99154C55.0846 3.23908 46.4394 0 37.5 0C16.8226 0 0 16.8223 0 37.5001C0 58.1777 16.8226 75 37.5 75C58.1774 75 75 58.1777 75 37.5001C75.0003 34.1108 74.5409 30.7371 73.6345 27.4712Z" fill="#112B49"/>
<path d="M23.124 85.894H18.574L17.677 88H15.935L20.03 78.9H21.694L25.802 88H24.034L23.124 85.894ZM22.565 84.568L20.849 80.59L19.146 84.568H22.565ZM30.6513 80.98C31.3273 80.98 31.9296 81.1273 32.4583 81.422C32.9956 81.7167 33.416 82.1327 33.7193 82.67C34.0226 83.2073 34.1743 83.827 34.1743 84.529C34.1743 85.231 34.0226 85.855 33.7193 86.401C33.416 86.9383 32.9956 87.3543 32.4583 87.649C31.9296 87.9437 31.3273 88.091 30.6513 88.091C29.7153 88.091 28.9743 87.779 28.4283 87.155V90.522H26.8033V81.058H28.3503V81.968C28.619 81.6387 28.9483 81.3917 29.3383 81.227C29.737 81.0623 30.1746 80.98 30.6513 80.98ZM30.4693 86.7C31.0673 86.7 31.557 86.5007 31.9383 86.102C32.3283 85.7033 32.5233 85.179 32.5233 84.529C32.5233 83.879 32.3283 83.3547 31.9383 82.956C31.557 82.5573 31.0673 82.358 30.4693 82.358C30.0793 82.358 29.7283 82.449 29.4163 82.631C29.1043 82.8043 28.8573 83.0557 28.6753 83.385C28.4933 83.7143 28.4023 84.0957 28.4023 84.529C28.4023 84.9623 28.4933 85.3437 28.6753 85.673C28.8573 86.0023 29.1043 86.258 29.4163 86.44C29.7283 86.6133 30.0793 86.7 30.4693 86.7ZM38.8354 88.091C38.1334 88.091 37.5007 87.9393 36.9374 87.636C36.3741 87.3327 35.9321 86.9123 35.6114 86.375C35.2994 85.829 35.1434 85.2137 35.1434 84.529C35.1434 83.8443 35.2994 83.2333 35.6114 82.696C35.9321 82.1587 36.3741 81.7383 36.9374 81.435C37.5007 81.1317 38.1334 80.98 38.8354 80.98C39.5461 80.98 40.1831 81.1317 40.7464 81.435C41.3097 81.7383 41.7474 82.1587 42.0594 82.696C42.3801 83.2333 42.5404 83.8443 42.5404 84.529C42.5404 85.2137 42.3801 85.829 42.0594 86.375C41.7474 86.9123 41.3097 87.3327 40.7464 87.636C40.1831 87.9393 39.5461 88.091 38.8354 88.091ZM38.8354 86.7C39.4334 86.7 39.9274 86.5007 40.3174 86.102C40.7074 85.7033 40.9024 85.179 40.9024 84.529C40.9024 83.879 40.7074 83.3547 40.3174 82.956C39.9274 82.5573 39.4334 82.358 38.8354 82.358C38.2374 82.358 37.7434 82.5573 37.3534 82.956C36.9721 83.3547 36.7814 83.879 36.7814 84.529C36.7814 85.179 36.9721 85.7033 37.3534 86.102C37.7434 86.5007 38.2374 86.7 38.8354 86.7ZM44.0943 78.354H45.7193V88H44.0943V78.354ZM47.8521 78.354H49.4771V88H47.8521V78.354ZM54.7299 88.091C54.0279 88.091 53.3953 87.9393 52.8319 87.636C52.2686 87.3327 51.8266 86.9123 51.5059 86.375C51.1939 85.829 51.0379 85.2137 51.0379 84.529C51.0379 83.8443 51.1939 83.2333 51.5059 82.696C51.8266 82.1587 52.2686 81.7383 52.8319 81.435C53.3953 81.1317 54.0279 80.98 54.7299 80.98C55.4406 80.98 56.0776 81.1317 56.6409 81.435C57.2043 81.7383 57.6419 82.1587 57.9539 82.696C58.2746 83.2333 58.4349 83.8443 58.4349 84.529C58.4349 85.2137 58.2746 85.829 57.9539 86.375C57.6419 86.9123 57.2043 87.3327 56.6409 87.636C56.0776 87.9393 55.4406 88.091 54.7299 88.091ZM54.7299 86.7C55.3279 86.7 55.8219 86.5007 56.2119 86.102C56.6019 85.7033 56.7969 85.179 56.7969 84.529C56.7969 83.879 56.6019 83.3547 56.2119 82.956C55.8219 82.5573 55.3279 82.358 54.7299 82.358C54.1319 82.358 53.6379 82.5573 53.2479 82.956C52.8666 83.3547 52.6759 83.879 52.6759 84.529C52.6759 85.179 52.8666 85.7033 53.2479 86.102C53.6379 86.5007 54.1319 86.7 54.7299 86.7Z" fill="#112B49"/>
</svg>
