<svg width="75" height="91" viewBox="0 0 75 91" fill="none" xmlns="http://www.w3.org/2000/svg">
<path d="M50 50C56.9036 50 62.5 44.4036 62.5 37.5C62.5 30.5964 56.9036 25 50 25C43.0964 25 37.5 30.5964 37.5 37.5C37.5 44.4036 43.0964 50 50 50Z" fill="#19BCFE"/>
<path fill-rule="evenodd" clip-rule="evenodd" d="M25 75C28.3152 75 31.4946 73.683 33.8388 71.3388C36.183 68.9946 37.5 65.8152 37.5 62.5V50H25C21.6848 50 18.5054 51.317 16.1612 53.6612C13.817 56.0054 12.5 59.1848 12.5 62.5C12.5 65.8152 13.817 68.9946 16.1612 71.3388C18.5054 73.683 21.6848 75 25 75V75Z" fill="#09CF83"/>
<path fill-rule="evenodd" clip-rule="evenodd" d="M25 50H37.5V25H25C21.6848 25 18.5054 26.317 16.1612 28.6612C13.817 31.0054 12.5 34.1848 12.5 37.5C12.5 40.8152 13.817 43.9946 16.1612 46.3388C18.5054 48.683 21.6848 50 25 50V50Z" fill="#A259FF"/>
<path fill-rule="evenodd" clip-rule="evenodd" d="M25 25H37.5V0H25C21.6848 0 18.5054 1.31696 16.1612 3.66117C13.817 6.00537 12.5 9.18479 12.5 12.5C12.5 15.8152 13.817 18.9946 16.1612 21.3388C18.5054 23.683 21.6848 25 25 25V25Z" fill="#F24E1E"/>
<path fill-rule="evenodd" clip-rule="evenodd" d="M50 25H37.5V0H50C53.3152 0 56.4946 1.31696 58.8388 3.66117C61.183 6.00537 62.5 9.18479 62.5 12.5C62.5 15.8152 61.183 18.9946 58.8388 21.3388C56.4946 23.683 53.3152 25 50 25Z" fill="#FF7262"/>
<path d="M18.912 80.317V83.086H23.306V84.516H18.912V88H17.222V78.9H23.865V80.317H18.912Z" fill="#F24E1E"/>
<path d="M25.3433 81.058H26.9683V88H25.3433V81.058ZM26.1623 79.914C25.8677 79.914 25.6207 79.823 25.4213 79.641C25.222 79.4503 25.1223 79.2163 25.1223 78.939C25.1223 78.6617 25.222 78.432 25.4213 78.25C25.6207 78.0593 25.8677 77.964 26.1623 77.964C26.457 77.964 26.704 78.055 26.9033 78.237C27.1027 78.4103 27.2023 78.6313 27.2023 78.9C27.2023 79.186 27.1027 79.4287 26.9033 79.628C26.7127 79.8187 26.4657 79.914 26.1623 79.914Z" fill="#FF7262"/>
<path d="M35.9912 81.058V86.947C35.9912 89.391 34.7432 90.613 32.2472 90.613C31.5798 90.613 30.9472 90.5263 30.3492 90.353C29.7512 90.1883 29.2572 89.9457 28.8672 89.625L29.5952 88.403C29.8985 88.6543 30.2798 88.8537 30.7392 89.001C31.2072 89.157 31.6795 89.235 32.1562 89.235C32.9188 89.235 33.4778 89.0617 33.8332 88.715C34.1885 88.3683 34.3662 87.8397 34.3662 87.129V86.765C34.0888 87.0683 33.7508 87.298 33.3522 87.454C32.9535 87.61 32.5158 87.688 32.0392 87.688C31.3805 87.688 30.7825 87.5493 30.2452 87.272C29.7165 86.986 29.2962 86.5873 28.9842 86.076C28.6808 85.5647 28.5292 84.9797 28.5292 84.321C28.5292 83.6623 28.6808 83.0817 28.9842 82.579C29.2962 82.0677 29.7165 81.6733 30.2452 81.396C30.7825 81.1187 31.3805 80.98 32.0392 80.98C32.5418 80.98 32.9968 81.0623 33.4042 81.227C33.8202 81.3917 34.1668 81.643 34.4442 81.981V81.058H35.9912ZM32.2862 86.31C32.9015 86.31 33.4042 86.128 33.7942 85.764C34.1928 85.3913 34.3922 84.9103 34.3922 84.321C34.3922 83.7403 34.1928 83.268 33.7942 82.904C33.4042 82.54 32.9015 82.358 32.2862 82.358C31.6622 82.358 31.1508 82.54 30.7522 82.904C30.3622 83.268 30.1672 83.7403 30.1672 84.321C30.1672 84.9103 30.3622 85.3913 30.7522 85.764C31.1508 86.128 31.6622 86.31 32.2862 86.31Z" fill="#A259FF"/>
<path d="M46.8895 80.98C47.7649 80.98 48.4582 81.2357 48.9695 81.747C49.4809 82.2497 49.7365 83.008 49.7365 84.022V88H48.1115V84.23C48.1115 83.6233 47.9772 83.1683 47.7085 82.865C47.4399 82.553 47.0542 82.397 46.5515 82.397C46.0055 82.397 45.5679 82.579 45.2385 82.943C44.9092 83.2983 44.7445 83.8097 44.7445 84.477V88H43.1195V84.23C43.1195 83.6233 42.9852 83.1683 42.7165 82.865C42.4479 82.553 42.0622 82.397 41.5595 82.397C41.0049 82.397 40.5629 82.5747 40.2335 82.93C39.9129 83.2853 39.7525 83.801 39.7525 84.477V88H38.1275V81.058H39.6745V81.942C39.9345 81.63 40.2595 81.3917 40.6495 81.227C41.0395 81.0623 41.4729 80.98 41.9495 80.98C42.4695 80.98 42.9289 81.0797 43.3275 81.279C43.7349 81.4697 44.0555 81.7557 44.2895 82.137C44.5755 81.773 44.9439 81.4913 45.3945 81.292C45.8452 81.084 46.3435 80.98 46.8895 80.98Z" fill="#19BCFE"/>
<path d="M54.4651 80.98C55.4877 80.98 56.2677 81.227 56.8051 81.721C57.3511 82.2063 57.6241 82.943 57.6241 83.931V88H56.0901V87.155C55.8907 87.4583 55.6047 87.6923 55.2321 87.857C54.8681 88.013 54.4261 88.091 53.9061 88.091C53.3861 88.091 52.9311 88.0043 52.5411 87.831C52.1511 87.649 51.8477 87.402 51.6311 87.09C51.4231 86.7693 51.3191 86.4097 51.3191 86.011C51.3191 85.387 51.5487 84.8887 52.0081 84.516C52.4761 84.1347 53.2084 83.944 54.2051 83.944H55.9991V83.84C55.9991 83.3547 55.8517 82.982 55.5571 82.722C55.2711 82.462 54.8421 82.332 54.2701 82.332C53.8801 82.332 53.4944 82.3927 53.1131 82.514C52.7404 82.6353 52.4241 82.8043 52.1641 83.021L51.5271 81.838C51.8911 81.5607 52.3287 81.3483 52.8401 81.201C53.3514 81.0537 53.8931 80.98 54.4651 80.98ZM54.2441 86.908C54.6514 86.908 55.0111 86.817 55.3231 86.635C55.6437 86.4443 55.8691 86.1757 55.9991 85.829V85.023H54.3221C53.3861 85.023 52.9181 85.3307 52.9181 85.946C52.9181 86.2407 53.0351 86.4747 53.2691 86.648C53.5031 86.8213 53.8281 86.908 54.2441 86.908Z" fill="#09CF83"/>
</svg>
