<svg width="75" height="96" viewBox="0 0 75 96" fill="none" xmlns="http://www.w3.org/2000/svg">
<path d="M34.436 88.346H36.035V91.973C35.567 92.3457 35.021 92.6317 34.397 92.831C33.773 93.0303 33.1317 93.13 32.473 93.13C31.5457 93.13 30.7093 92.9307 29.964 92.532C29.2187 92.1247 28.6337 91.5657 28.209 90.855C27.7843 90.1443 27.572 89.3427 27.572 88.45C27.572 87.5573 27.7843 86.7557 28.209 86.045C28.6337 85.3343 29.2187 84.7797 29.964 84.381C30.718 83.9737 31.563 83.77 32.499 83.77C33.2617 83.77 33.955 83.8957 34.579 84.147C35.203 84.3983 35.7273 84.7667 36.152 85.252L35.086 86.292C34.3927 85.5987 33.5563 85.252 32.577 85.252C31.9357 85.252 31.3637 85.3863 30.861 85.655C30.367 85.9237 29.977 86.3007 29.691 86.786C29.4137 87.2713 29.275 87.826 29.275 88.45C29.275 89.0567 29.4137 89.6027 29.691 90.088C29.977 90.5733 30.367 90.9547 30.861 91.232C31.3637 91.5093 31.9313 91.648 32.564 91.648C33.2747 91.648 33.8987 91.492 34.436 91.18V88.346ZM38.108 86.058H39.733V93H38.108V86.058ZM38.927 84.914C38.6323 84.914 38.3853 84.823 38.186 84.641C37.9867 84.4503 37.887 84.2163 37.887 83.939C37.887 83.6617 37.9867 83.432 38.186 83.25C38.3853 83.0593 38.6323 82.964 38.927 82.964C39.2217 82.964 39.4687 83.055 39.668 83.237C39.8673 83.4103 39.967 83.6313 39.967 83.9C39.967 84.186 39.8673 84.4287 39.668 84.628C39.4773 84.8187 39.2303 84.914 38.927 84.914ZM46.0388 92.623C45.8481 92.779 45.6141 92.896 45.3368 92.974C45.0681 93.052 44.7821 93.091 44.4788 93.091C43.7161 93.091 43.1268 92.8917 42.7108 92.493C42.2948 92.0943 42.0868 91.5137 42.0868 90.751V87.41H40.9428V86.11H42.0868V84.524H43.7118V86.11H45.5708V87.41H43.7118V90.712C43.7118 91.05 43.7941 91.31 43.9588 91.492C44.1235 91.6653 44.3618 91.752 44.6738 91.752C45.0378 91.752 45.3411 91.6567 45.5838 91.466L46.0388 92.623Z" fill="#DE4C36"/>
<g clip-path="url(#clip0)">
<path d="M73.5855 34.1588L40.8398 1.41487C38.9552 -0.470972 35.8966 -0.470972 34.0096 1.41487L27.2098 8.21467L35.8356 16.8406C37.8401 16.1632 40.1388 16.6176 41.7366 18.2155C43.3421 19.8236 43.7933 22.1418 43.0995 24.1528L51.4125 32.466C53.4237 31.7732 55.7443 32.2214 57.3507 33.8304C59.5957 36.0745 59.5957 39.7117 57.3507 41.9573C55.1051 44.2032 51.4679 44.2032 49.2211 41.9573C47.5324 40.2669 47.1152 37.7869 47.9701 35.7066L40.2176 27.954L40.2167 48.3555C40.7787 48.6334 41.292 49.0004 41.7366 49.4424C43.9816 51.6865 43.9816 55.3241 41.7366 57.5714C39.491 59.8161 35.8521 59.8161 33.6097 57.5714C31.3646 55.3241 31.3646 51.6868 33.6097 49.4427C34.1477 48.9044 34.787 48.4781 35.4908 48.1885V27.5969C34.786 27.3092 34.1463 26.8827 33.6097 26.3427C31.9087 24.6441 31.4997 22.1483 32.3713 20.0597L23.8682 11.5557L1.41504 34.0074C-0.47168 35.8949 -0.47168 38.9538 1.41504 40.84L34.1613 73.5845C36.0466 75.4706 39.1046 75.4706 40.9922 73.5845L73.5853 40.992C75.4714 39.1053 75.4714 36.0447 73.5853 34.1588" fill="#DE4C36"/>
</g>
<defs>
<clipPath id="clip0">
<rect width="75" height="75" fill="white"/>
</clipPath>
</defs>
</svg>
