<svg width="75" height="97" viewBox="0 0 75 97" fill="none" xmlns="http://www.w3.org/2000/svg">
<path d="M21.436 89.346H23.035V92.973C22.567 93.3457 22.021 93.6317 21.397 93.831C20.773 94.0303 20.1317 94.13 19.473 94.13C18.5457 94.13 17.7093 93.9307 16.964 93.532C16.2187 93.1247 15.6337 92.5657 15.209 91.855C14.7843 91.1443 14.572 90.3427 14.572 89.45C14.572 88.5573 14.7843 87.7557 15.209 87.045C15.6337 86.3343 16.2187 85.7797 16.964 85.381C17.718 84.9737 18.563 84.77 19.499 84.77C20.2617 84.77 20.955 84.8957 21.579 85.147C22.203 85.3983 22.7273 85.7667 23.152 86.252L22.086 87.292C21.3927 86.5987 20.5563 86.252 19.577 86.252C18.9357 86.252 18.3637 86.3863 17.861 86.655C17.367 86.9237 16.977 87.3007 16.691 87.786C16.4137 88.2713 16.275 88.826 16.275 89.45C16.275 90.0567 16.4137 90.6027 16.691 91.088C16.977 91.5733 17.367 91.9547 17.861 92.232C18.3637 92.5093 18.9313 92.648 19.564 92.648C20.2747 92.648 20.8987 92.492 21.436 92.18V89.346ZM25.108 87.058H26.733V94H25.108V87.058ZM25.927 85.914C25.6323 85.914 25.3853 85.823 25.186 85.641C24.9867 85.4503 24.887 85.2163 24.887 84.939C24.887 84.6617 24.9867 84.432 25.186 84.25C25.3853 84.0593 25.6323 83.964 25.927 83.964C26.2217 83.964 26.4687 84.055 26.668 84.237C26.8673 84.4103 26.967 84.6313 26.967 84.9C26.967 85.186 26.8673 85.4287 26.668 85.628C26.4773 85.8187 26.2303 85.914 25.927 85.914ZM33.0388 93.623C32.8481 93.779 32.6141 93.896 32.3368 93.974C32.0681 94.052 31.7821 94.091 31.4788 94.091C30.7161 94.091 30.1268 93.8917 29.7108 93.493C29.2948 93.0943 29.0868 92.5137 29.0868 91.751V88.41H27.9428V87.11H29.0868V85.524H30.7118V87.11H32.5708V88.41H30.7118V91.712C30.7118 92.05 30.7941 92.31 30.9588 92.492C31.1235 92.6653 31.3618 92.752 31.6738 92.752C32.0378 92.752 32.3411 92.6567 32.5838 92.466L33.0388 93.623ZM38.3146 86.98C39.1899 86.98 39.8919 87.2357 40.4206 87.747C40.9492 88.2583 41.2136 89.0167 41.2136 90.022V94H39.5886V90.23C39.5886 89.6233 39.4456 89.1683 39.1596 88.865C38.8736 88.553 38.4662 88.397 37.9376 88.397C37.3396 88.397 36.8672 88.579 36.5206 88.943C36.1739 89.2983 36.0006 89.814 36.0006 90.49V94H34.3756V84.354H36.0006V87.864C36.2692 87.578 36.5986 87.3613 36.9886 87.214C37.3872 87.058 37.8292 86.98 38.3146 86.98ZM49.996 87.058V94H48.449V93.116C48.189 93.428 47.864 93.6707 47.474 93.844C47.084 94.0087 46.6637 94.091 46.213 94.091C45.2857 94.091 44.5533 93.8353 44.016 93.324C43.4873 92.804 43.223 92.037 43.223 91.023V87.058H44.848V90.802C44.848 91.426 44.9867 91.894 45.264 92.206C45.55 92.5093 45.953 92.661 46.473 92.661C47.0537 92.661 47.513 92.4833 47.851 92.128C48.1977 91.764 48.371 91.244 48.371 90.568V87.058H49.996ZM55.9716 86.98C56.6476 86.98 57.25 87.1273 57.7786 87.422C58.316 87.7167 58.7363 88.1327 59.0396 88.67C59.343 89.2073 59.4946 89.827 59.4946 90.529C59.4946 91.231 59.343 91.855 59.0396 92.401C58.7363 92.9383 58.316 93.3543 57.7786 93.649C57.25 93.9437 56.6476 94.091 55.9716 94.091C55.495 94.091 55.0573 94.0087 54.6586 93.844C54.2686 93.6793 53.9393 93.4323 53.6706 93.103V94H52.1236V84.354H53.7486V87.903C54.026 87.5997 54.351 87.37 54.7236 87.214C55.105 87.058 55.521 86.98 55.9716 86.98ZM55.7896 92.7C56.3876 92.7 56.8773 92.5007 57.2586 92.102C57.6486 91.7033 57.8436 91.179 57.8436 90.529C57.8436 89.879 57.6486 89.3547 57.2586 88.956C56.8773 88.5573 56.3876 88.358 55.7896 88.358C55.3996 88.358 55.0486 88.449 54.7366 88.631C54.4246 88.8043 54.1776 89.0557 53.9956 89.385C53.8136 89.7143 53.7226 90.0957 53.7226 90.529C53.7226 90.9623 53.8136 91.3437 53.9956 91.673C54.1776 92.0023 54.4246 92.258 54.7366 92.44C55.0486 92.6133 55.3996 92.7 55.7896 92.7Z" fill="#161614"/>
<path d="M37.5003 0C16.7921 0 0 16.046 0 35.8403C0 51.6754 10.7449 65.1101 25.645 69.8491C27.5191 70.1809 28.2073 69.0715 28.2073 68.1248C28.2073 67.2703 28.1722 64.447 28.1563 61.4524C17.7237 63.6202 15.5224 57.2236 15.5224 57.2236C13.8164 53.081 11.3584 51.9792 11.3584 51.9792C7.95615 49.7549 11.615 49.8008 11.615 49.8008C15.3806 50.0534 17.3634 53.494 17.3634 53.494C20.7082 58.973 26.1363 57.3891 28.2762 56.4732C28.6128 54.157 29.5846 52.5756 30.6571 51.6807C22.3277 50.7746 13.5718 47.7014 13.5718 33.9685C13.5718 30.0555 15.0366 26.8582 17.4354 24.3482C17.0461 23.4455 15.7626 19.8005 17.7987 14.8635C17.7987 14.8635 20.9479 13.9003 28.1142 18.5374C31.1054 17.7433 34.3134 17.3452 37.5003 17.3314C40.6872 17.3452 43.8979 17.743 46.8946 18.5374C54.0521 13.9006 57.1969 14.8638 57.1969 14.8638C59.238 19.8002 57.9539 23.4458 57.5646 24.3482C59.9689 26.8582 61.4238 30.0555 61.4238 33.9685C61.4238 47.7341 52.6512 50.7651 44.3007 51.6524C45.6457 52.7646 46.8442 54.9458 46.8442 58.2896C46.8442 63.0848 46.8009 66.9444 46.8009 68.1248C46.8009 69.0788 47.4759 70.1963 49.3767 69.844C64.2686 65.1 75 51.6704 75 35.8406C75 16.046 58.2103 0 37.5003 0ZM14.0452 51.0552C13.9626 51.2333 13.6693 51.2868 13.4024 51.1644C13.1303 51.0476 12.9776 50.8049 13.0655 50.6262C13.1464 50.4428 13.4402 50.3916 13.7115 50.5145C13.984 50.6316 14.1393 50.8766 14.0452 51.0552ZM15.8897 52.6282C15.711 52.7867 15.3612 52.7131 15.1239 52.4628C14.8787 52.213 14.8327 51.8787 15.0141 51.718C15.1986 51.5595 15.5376 51.6337 15.7834 51.8834C16.0289 52.1363 16.0764 52.4681 15.8897 52.6282ZM17.1554 54.6409C16.9254 54.7935 16.5498 54.6504 16.3175 54.3318C16.0878 54.0131 16.0878 53.6309 16.3225 53.4778C16.5554 53.3246 16.9254 53.4624 17.1606 53.7788C17.3897 54.1027 17.3897 54.4849 17.1551 54.6412L17.1554 54.6409ZM19.2952 56.9719C19.0898 57.1886 18.6519 57.1304 18.3313 56.8347C18.0035 56.5457 17.9124 56.1358 18.1187 55.9191C18.3267 55.7018 18.767 55.7628 19.0898 56.0563C19.415 56.3447 19.5146 56.7577 19.2952 56.9719ZM22.0614 57.7587C21.9706 58.0395 21.5487 58.1672 21.1242 58.0479C20.7 57.925 20.4226 57.5963 20.5081 57.3126C20.5963 57.0298 21.0199 56.8971 21.4477 57.0248C21.8713 57.1469 22.1496 57.4734 22.0614 57.759V57.7587ZM25.2091 58.0927C25.2196 58.3881 24.8596 58.6331 24.4137 58.6387C23.9654 58.6482 23.6024 58.4091 23.5975 58.1179C23.5975 57.8197 23.9496 57.577 24.3981 57.5697C24.844 57.5613 25.2091 57.7987 25.2091 58.0927ZM28.3014 57.9793C28.3547 58.2677 28.045 58.564 27.602 58.6429C27.167 58.7188 26.7639 58.5407 26.7085 58.2548C26.6546 57.9592 26.9701 57.6629 27.4046 57.5865C27.8481 57.5128 28.2448 57.6862 28.3014 57.9793Z" fill="#161614"/>
</svg>
