<svg width="70" height="94" viewBox="0 0 70 94" fill="none" xmlns="http://www.w3.org/2000/svg">
<g opacity="0.88" clip-path="url(#clip0)">
<path opacity="0.88" fill-rule="evenodd" clip-rule="evenodd" d="M41.7201 8.93853L57.8928 18.1989C58.3597 17.709 58.8955 17.2885 59.4837 16.9505C62.8376 15.0382 67.1159 16.1736 69.0641 19.5C70.9924 22.8264 69.8475 27.0689 66.4932 29.0009C65.9095 29.3343 65.2804 29.5827 64.6254 29.7385V48.2661C65.2733 48.4222 65.8955 48.6689 66.4733 48.9988C69.8475 50.9309 70.9924 55.1736 69.0441 58.5C67.1159 61.8261 62.8177 62.9615 59.4634 61.0495C58.8136 60.6798 58.2282 60.2085 57.7298 59.6538L41.6555 68.8573C41.8909 69.5641 42.0105 70.3039 42.0096 71.0483C42.0096 74.8726 38.8766 78 35.0001 78C31.1235 78 27.9905 74.8924 27.9905 71.0483C27.9905 70.365 28.0895 69.7049 28.2741 69.0815L12.1057 59.8238C11.6439 60.3041 11.1156 60.7167 10.5367 61.0495C7.16249 62.9615 2.88429 61.8261 0.956008 58.5C-0.972 55.1736 0.172883 50.9309 3.52687 48.9988C4.10466 48.6688 4.72686 48.422 5.37476 48.2658V29.7385C4.71971 29.5827 4.09066 29.3343 3.50691 29.0009C0.152649 27.0889 -0.992234 22.8264 0.936047 19.5C2.86433 16.1736 7.16222 15.0382 10.5165 16.9505C11.1014 17.2867 11.6346 17.7045 12.0997 18.1911L28.2771 8.92822C28.0864 8.28634 27.9899 7.62057 27.9905 6.9514C27.9905 3.10759 31.1235 0 35.0001 0C38.8766 0 42.0096 3.10732 42.0096 6.9514C42.0096 7.64234 41.9085 8.30915 41.7201 8.93853ZM40.0351 11.7918L56.2464 21.0739C55.9883 21.9687 55.9143 22.9059 56.0287 23.8298C56.1432 24.7536 56.4439 25.6451 56.9128 26.4514C57.8996 28.1538 59.5072 29.2824 61.2914 29.7222V48.2729C61.2003 48.2948 61.1098 48.319 61.0198 48.3445L39.8468 11.9775C39.9107 11.9168 39.9736 11.8547 40.0351 11.7918ZM30.1578 11.9816L8.98495 48.348C8.8934 48.3217 8.80133 48.2973 8.70878 48.2748V29.7222C10.493 29.2824 12.1005 28.1538 13.0873 26.4514C13.5572 25.6436 13.8581 24.7502 13.9722 23.8245C14.0862 22.8988 14.011 21.9598 13.751 21.0636L29.9576 11.7842C30.023 11.8511 30.0897 11.9173 30.1578 11.9816ZM36.9587 13.6289L58.1266 49.9872C57.6417 50.446 57.2261 50.9718 56.8926 51.5483C56.5599 52.1213 56.3111 52.7384 56.1537 53.3809H13.8469C13.6894 52.7383 13.4404 52.1213 13.1076 51.5483C12.7729 50.9758 12.3581 50.4532 11.8755 49.9962L33.0475 13.6306C33.6822 13.8118 34.3395 13.9035 35.0001 13.9028C35.6801 13.9028 36.3372 13.8074 36.9587 13.6289ZM40.1839 66.3652L56.2899 57.1433C56.2416 56.9928 56.1985 56.8407 56.1606 56.6872H13.8379C13.8155 56.7775 13.7912 56.867 13.7652 56.9562L29.95 66.2234C30.6035 65.5494 31.3879 65.0136 32.2558 64.6481C33.1237 64.2827 34.0572 64.0952 35.0001 64.0969C35.9759 64.0952 36.9413 64.2962 37.8341 64.6869C38.7269 65.0775 39.5274 65.6493 40.1839 66.3652Z" fill="#E535AB"/>
</g>
<path d="M12.436 86.346H14.035V89.973C13.567 90.3457 13.021 90.6317 12.397 90.831C11.773 91.0303 11.1317 91.13 10.473 91.13C9.54567 91.13 8.70933 90.9307 7.964 90.532C7.21867 90.1247 6.63367 89.5657 6.209 88.855C5.78433 88.1443 5.572 87.3427 5.572 86.45C5.572 85.5573 5.78433 84.7557 6.209 84.045C6.63367 83.3343 7.21867 82.7797 7.964 82.381C8.718 81.9737 9.563 81.77 10.499 81.77C11.2617 81.77 11.955 81.8957 12.579 82.147C13.203 82.3983 13.7273 82.7667 14.152 83.252L13.086 84.292C12.3927 83.5987 11.5563 83.252 10.577 83.252C9.93567 83.252 9.36367 83.3863 8.861 83.655C8.367 83.9237 7.977 84.3007 7.691 84.786C7.41367 85.2713 7.275 85.826 7.275 86.45C7.275 87.0567 7.41367 87.6027 7.691 88.088C7.977 88.5733 8.367 88.9547 8.861 89.232C9.36367 89.5093 9.93133 89.648 10.564 89.648C11.2747 89.648 11.8987 89.492 12.436 89.18V86.346ZM17.655 85.072C18.123 84.344 18.9463 83.98 20.125 83.98V85.527C19.9863 85.501 19.8607 85.488 19.748 85.488C19.1153 85.488 18.6213 85.6743 18.266 86.047C17.9107 86.411 17.733 86.9397 17.733 87.633V91H16.108V84.058H17.655V85.072ZM24.1174 83.98C25.1401 83.98 25.9201 84.227 26.4574 84.721C27.0034 85.2063 27.2764 85.943 27.2764 86.931V91H25.7424V90.155C25.5431 90.4583 25.2571 90.6923 24.8844 90.857C24.5204 91.013 24.0784 91.091 23.5584 91.091C23.0384 91.091 22.5834 91.0043 22.1934 90.831C21.8034 90.649 21.5001 90.402 21.2834 90.09C21.0754 89.7693 20.9714 89.4097 20.9714 89.011C20.9714 88.387 21.2011 87.8887 21.6604 87.516C22.1284 87.1347 22.8607 86.944 23.8574 86.944H25.6514V86.84C25.6514 86.3547 25.5041 85.982 25.2094 85.722C24.9234 85.462 24.4944 85.332 23.9224 85.332C23.5324 85.332 23.1467 85.3927 22.7654 85.514C22.3927 85.6353 22.0764 85.8043 21.8164 86.021L21.1794 84.838C21.5434 84.5607 21.9811 84.3483 22.4924 84.201C23.0037 84.0537 23.5454 83.98 24.1174 83.98ZM23.8964 89.908C24.3037 89.908 24.6634 89.817 24.9754 89.635C25.2961 89.4443 25.5214 89.1757 25.6514 88.829V88.023H23.9744C23.0384 88.023 22.5704 88.3307 22.5704 88.946C22.5704 89.2407 22.6874 89.4747 22.9214 89.648C23.1554 89.8213 23.4804 89.908 23.8964 89.908ZM33.2099 83.98C33.8859 83.98 34.4882 84.1273 35.0169 84.422C35.5542 84.7167 35.9746 85.1327 36.2779 85.67C36.5812 86.2073 36.7329 86.827 36.7329 87.529C36.7329 88.231 36.5812 88.855 36.2779 89.401C35.9746 89.9383 35.5542 90.3543 35.0169 90.649C34.4882 90.9437 33.8859 91.091 33.2099 91.091C32.2739 91.091 31.5329 90.779 30.9869 90.155V93.522H29.3619V84.058H30.9089V84.968C31.1776 84.6387 31.5069 84.3917 31.8969 84.227C32.2956 84.0623 32.7332 83.98 33.2099 83.98ZM33.0279 89.7C33.6259 89.7 34.1156 89.5007 34.4969 89.102C34.8869 88.7033 35.0819 88.179 35.0819 87.529C35.0819 86.879 34.8869 86.3547 34.4969 85.956C34.1156 85.5573 33.6259 85.358 33.0279 85.358C32.6379 85.358 32.2869 85.449 31.9749 85.631C31.6629 85.8043 31.4159 86.0557 31.2339 86.385C31.0519 86.7143 30.9609 87.0957 30.9609 87.529C30.9609 87.9623 31.0519 88.3437 31.2339 88.673C31.4159 89.0023 31.6629 89.258 31.9749 89.44C32.2869 89.6133 32.6379 89.7 33.0279 89.7ZM42.213 83.98C43.0883 83.98 43.7903 84.2357 44.319 84.747C44.8477 85.2583 45.112 86.0167 45.112 87.022V91H43.487V87.23C43.487 86.6233 43.344 86.1683 43.058 85.865C42.772 85.553 42.3647 85.397 41.836 85.397C41.238 85.397 40.7657 85.579 40.419 85.943C40.0723 86.2983 39.899 86.814 39.899 87.49V91H38.274V81.354H39.899V84.864C40.1677 84.578 40.497 84.3613 40.887 84.214C41.2857 84.058 41.7277 83.98 42.213 83.98ZM56.9364 91.91C56.6331 92.2653 56.2778 92.534 55.8704 92.716C55.4718 92.898 55.0341 92.989 54.5574 92.989C53.9334 92.989 53.3614 92.846 52.8414 92.56C52.3214 92.2827 51.7278 91.7973 51.0604 91.104C50.2198 91.0347 49.4658 90.792 48.7984 90.376C48.1311 89.9513 47.6111 89.401 47.2384 88.725C46.8658 88.0403 46.6794 87.282 46.6794 86.45C46.6794 85.566 46.8918 84.7687 47.3164 84.058C47.7411 83.3387 48.3261 82.7797 49.0714 82.381C49.8168 81.9737 50.6531 81.77 51.5804 81.77C52.5078 81.77 53.3441 81.9737 54.0894 82.381C54.8348 82.7797 55.4198 83.3343 55.8444 84.045C56.2691 84.7557 56.4814 85.5573 56.4814 86.45C56.4814 87.1693 56.3384 87.8367 56.0524 88.452C55.7664 89.0587 55.3678 89.5787 54.8564 90.012C54.3451 90.4367 53.7514 90.7443 53.0754 90.935C53.3268 91.2037 53.5738 91.3987 53.8164 91.52C54.0591 91.6413 54.3191 91.702 54.5964 91.702C55.1944 91.702 55.7144 91.4593 56.1564 90.974L56.9364 91.91ZM48.3824 86.45C48.3824 87.0567 48.5211 87.607 48.7984 88.101C49.0758 88.5863 49.4571 88.9677 49.9424 89.245C50.4278 89.5137 50.9738 89.648 51.5804 89.648C52.1871 89.648 52.7331 89.5137 53.2184 89.245C53.7038 88.9677 54.0851 88.5863 54.3624 88.101C54.6398 87.607 54.7784 87.0567 54.7784 86.45C54.7784 85.8433 54.6398 85.2973 54.3624 84.812C54.0851 84.318 53.7038 83.9367 53.2184 83.668C52.7331 83.3907 52.1871 83.252 51.5804 83.252C50.9738 83.252 50.4278 83.3907 49.9424 83.668C49.4571 83.9367 49.0758 84.318 48.7984 84.812C48.5211 85.2973 48.3824 85.8433 48.3824 86.45ZM58.2728 81.9H59.9628V89.57H64.7208V91H58.2728V81.9Z" fill="#EB62BE"/>
<defs>
<clipPath id="clip0">
<rect width="70" height="78" fill="white"/>
</clipPath>
</defs>
</svg>
