<svg width="77" height="112" viewBox="0 0 77 112" fill="none" xmlns="http://www.w3.org/2000/svg">
<path d="M22.308 99.9V109H20.618V105.1H15.912V109H14.222V99.9H15.912V103.657H20.618V99.9H22.308ZM31.1164 105.568C31.1164 105.681 31.1077 105.841 31.0904 106.049H25.6434C25.7387 106.56 25.9857 106.968 26.3844 107.271C26.7917 107.566 27.2944 107.713 27.8924 107.713C28.6551 107.713 29.2834 107.462 29.7774 106.959L30.6484 107.96C30.3364 108.333 29.9421 108.614 29.4654 108.805C28.9887 108.996 28.4514 109.091 27.8534 109.091C27.0907 109.091 26.4191 108.939 25.8384 108.636C25.2577 108.333 24.8071 107.912 24.4864 107.375C24.1744 106.829 24.0184 106.214 24.0184 105.529C24.0184 104.853 24.1701 104.246 24.4734 103.709C24.7854 103.163 25.2144 102.738 25.7604 102.435C26.3064 102.132 26.9217 101.98 27.6064 101.98C28.2824 101.98 28.8847 102.132 29.4134 102.435C29.9507 102.73 30.3667 103.15 30.6614 103.696C30.9647 104.233 31.1164 104.857 31.1164 105.568ZM27.6064 103.28C27.0864 103.28 26.6444 103.436 26.2804 103.748C25.9251 104.051 25.7084 104.459 25.6304 104.97H29.5694C29.5001 104.467 29.2877 104.06 28.9324 103.748C28.5771 103.436 28.1351 103.28 27.6064 103.28ZM34.2243 103.072C34.6923 102.344 35.5157 101.98 36.6943 101.98V103.527C36.5557 103.501 36.43 103.488 36.3173 103.488C35.6847 103.488 35.1907 103.674 34.8353 104.047C34.48 104.411 34.3023 104.94 34.3023 105.633V109H32.6773V102.058H34.2243V103.072ZM41.1294 109.091C40.4274 109.091 39.7947 108.939 39.2314 108.636C38.668 108.333 38.226 107.912 37.9054 107.375C37.5934 106.829 37.4374 106.214 37.4374 105.529C37.4374 104.844 37.5934 104.233 37.9054 103.696C38.226 103.159 38.668 102.738 39.2314 102.435C39.7947 102.132 40.4274 101.98 41.1294 101.98C41.84 101.98 42.477 102.132 43.0404 102.435C43.6037 102.738 44.0414 103.159 44.3534 103.696C44.674 104.233 44.8344 104.844 44.8344 105.529C44.8344 106.214 44.674 106.829 44.3534 107.375C44.0414 107.912 43.6037 108.333 43.0404 108.636C42.477 108.939 41.84 109.091 41.1294 109.091ZM41.1294 107.7C41.7274 107.7 42.2214 107.501 42.6114 107.102C43.0014 106.703 43.1964 106.179 43.1964 105.529C43.1964 104.879 43.0014 104.355 42.6114 103.956C42.2214 103.557 41.7274 103.358 41.1294 103.358C40.5314 103.358 40.0374 103.557 39.6474 103.956C39.266 104.355 39.0754 104.879 39.0754 105.529C39.0754 106.179 39.266 106.703 39.6474 107.102C40.0374 107.501 40.5314 107.7 41.1294 107.7ZM49.2223 106.023L48.0133 107.167V109H46.3883V99.354H48.0133V105.178L51.3803 102.058H53.3303L50.4313 104.97L53.6033 109H51.6273L49.2223 106.023ZM61.247 102.058V109H59.7V108.116C59.44 108.428 59.115 108.671 58.725 108.844C58.335 109.009 57.9146 109.091 57.464 109.091C56.5366 109.091 55.8043 108.835 55.267 108.324C54.7383 107.804 54.474 107.037 54.474 106.023V102.058H56.099V105.802C56.099 106.426 56.2376 106.894 56.515 107.206C56.801 107.509 57.204 107.661 57.724 107.661C58.3046 107.661 58.764 107.483 59.102 107.128C59.4486 106.764 59.622 106.244 59.622 105.568V102.058H61.247Z" fill="#430098"/>
<g clip-path="url(#clip0)">
<path d="M69.12 0C73.3188 0 76.731 3.34989 76.7991 7.50893L76.8 7.63509V77.1991C76.8 81.3733 73.4295 84.7656 69.2469 84.8333L69.12 84.8342H7.68C3.4812 84.8342 0.069 81.4834 0.0009 77.3255L0 77.1991V7.63509C0 3.45995 3.3705 0.0685965 7.5531 0.000894737L7.68 0H69.12ZM69.12 4.24165H7.68C5.8278 4.24165 4.3146 5.71737 4.2678 7.5477L4.2666 7.63509V77.1991C4.2666 79.0405 5.751 80.5448 7.5921 80.5913L7.68 80.5925H69.12C70.9731 80.5925 72.4854 79.1171 72.5322 77.2868L72.5334 77.1991V7.63509C72.5334 5.76449 71.0028 4.24165 69.12 4.24165ZM19.2 55.1426L28.8 63.6259L19.2 72.1095V55.1423V55.1426ZM27.7332 12.7252V36.8086C31.9935 35.4301 37.9488 33.9335 43.7334 33.9335C49.008 33.9335 52.1652 35.9953 53.8848 37.7248C57.5175 41.3783 57.6039 46.022 57.5991 46.6414V46.6587L57.6 72.1092H49.0668V46.7756C49.0248 44.7956 48.0648 42.4171 43.7334 42.4171C35.1438 42.4171 25.5192 46.6692 25.2336 46.7962L25.2276 46.7989L19.2 49.5135V12.7249H27.7332V12.7252ZM57.6 12.7252C57.024 17.5437 55.059 22.1629 51.2001 26.5108H42.6666C46.0203 22.1364 48.126 17.5333 49.0668 12.7252H57.6Z" fill="#430098"/>
</g>
<defs>
<clipPath id="clip0">
<rect width="76.8" height="85" fill="white"/>
</clipPath>
</defs>
</svg>
