<svg width="75" height="91" viewBox="0 0 75 91" fill="none" xmlns="http://www.w3.org/2000/svg">
<path d="M0 0H75V75H0V0Z" fill="#F7DF1E"/>
<path d="M19.72 62.6752L25.4593 59.2017C26.5667 61.1649 27.5739 62.8261 29.99 62.8261C32.306 62.8261 33.7664 61.9202 33.7664 58.3964V34.4321H40.8144V58.496C40.8144 65.7959 36.5353 69.1187 30.2921 69.1187C24.6539 69.1187 21.3812 66.1987 19.7197 62.6746" fill="black"/>
<path d="M44.6429 61.9202L50.3815 58.5977C51.8924 61.0647 53.8559 62.8771 57.3293 62.8771C60.2499 62.8771 62.112 61.4169 62.112 59.403C62.112 56.9866 60.1989 56.1306 56.9769 54.7214L55.2152 53.9655C50.1302 51.8014 46.7572 49.0826 46.7572 43.3434C46.7572 38.057 50.7847 34.0293 57.0779 34.0293C61.5586 34.0293 64.7807 35.5902 67.0963 39.6681L61.6084 43.1925C60.3999 41.0277 59.0915 40.172 57.0776 40.172C55.0134 40.172 53.7044 41.481 53.7044 43.1925C53.7044 45.3068 55.0134 46.1632 58.0339 47.4722L59.7958 48.2272C65.787 50.795 69.16 53.4127 69.16 59.3025C69.16 65.6465 64.176 69.1199 57.4802 69.1199C50.9355 69.1199 46.7065 65.9986 44.6426 61.9205" fill="black"/>
<path d="M4.639 88.13C4.05833 88.13 3.521 88.0173 3.027 87.792C2.54167 87.558 2.143 87.233 1.831 86.817L2.793 85.66C3.29567 86.3533 3.898 86.7 4.6 86.7C5.54467 86.7 6.017 86.141 6.017 85.023V80.317H2.78V78.9H7.707V84.932C7.707 85.998 7.447 86.7997 6.927 87.337C6.407 87.8657 5.64433 88.13 4.639 88.13ZM12.5735 80.98C13.5961 80.98 14.3761 81.227 14.9135 81.721C15.4595 82.2063 15.7325 82.943 15.7325 83.931V88H14.1985V87.155C13.9991 87.4583 13.7131 87.6923 13.3405 87.857C12.9765 88.013 12.5345 88.091 12.0145 88.091C11.4945 88.091 11.0395 88.0043 10.6495 87.831C10.2595 87.649 9.95614 87.402 9.73947 87.09C9.53147 86.7693 9.42747 86.4097 9.42747 86.011C9.42747 85.387 9.65714 84.8887 10.1165 84.516C10.5845 84.1347 11.3168 83.944 12.3135 83.944H14.1075V83.84C14.1075 83.3547 13.9601 82.982 13.6655 82.722C13.3795 82.462 12.9505 82.332 12.3785 82.332C11.9885 82.332 11.6028 82.3927 11.2215 82.514C10.8488 82.6353 10.5325 82.8043 10.2725 83.021L9.63547 81.838C9.99947 81.5607 10.4371 81.3483 10.9485 81.201C11.4598 81.0537 12.0015 80.98 12.5735 80.98ZM12.3525 86.908C12.7598 86.908 13.1195 86.817 13.4315 86.635C13.7521 86.4443 13.9775 86.1757 14.1075 85.829V85.023H12.4305C11.4945 85.023 11.0265 85.3307 11.0265 85.946C11.0265 86.2407 11.1435 86.4747 11.3775 86.648C11.6115 86.8213 11.9365 86.908 12.3525 86.908ZM24.191 81.058L21.214 88H19.537L16.56 81.058H18.25L20.408 86.206L22.631 81.058H24.191ZM27.6428 80.98C28.6655 80.98 29.4455 81.227 29.9828 81.721C30.5288 82.2063 30.8018 82.943 30.8018 83.931V88H29.2678V87.155C29.0685 87.4583 28.7825 87.6923 28.4098 87.857C28.0458 88.013 27.6038 88.091 27.0838 88.091C26.5638 88.091 26.1088 88.0043 25.7188 87.831C25.3288 87.649 25.0255 87.402 24.8088 87.09C24.6008 86.7693 24.4968 86.4097 24.4968 86.011C24.4968 85.387 24.7265 84.8887 25.1858 84.516C25.6538 84.1347 26.3861 83.944 27.3828 83.944H29.1768V83.84C29.1768 83.3547 29.0295 82.982 28.7348 82.722C28.4488 82.462 28.0198 82.332 27.4478 82.332C27.0578 82.332 26.6721 82.3927 26.2908 82.514C25.9181 82.6353 25.6018 82.8043 25.3418 83.021L24.7048 81.838C25.0688 81.5607 25.5065 81.3483 26.0178 81.201C26.5291 81.0537 27.0708 80.98 27.6428 80.98ZM27.4218 86.908C27.8291 86.908 28.1888 86.817 28.5008 86.635C28.8215 86.4443 29.0468 86.1757 29.1768 85.829V85.023H27.4998C26.5638 85.023 26.0958 85.3307 26.0958 85.946C26.0958 86.2407 26.2128 86.4747 26.4468 86.648C26.6808 86.8213 27.0058 86.908 27.4218 86.908ZM35.8643 88.13C35.1623 88.13 34.482 88.0303 33.8233 87.831C33.1733 87.6317 32.6576 87.3673 32.2763 87.038L32.8613 85.725C33.234 86.0197 33.689 86.2623 34.2263 86.453C34.7723 86.635 35.3183 86.726 35.8643 86.726C36.5403 86.726 37.043 86.6177 37.3723 86.401C37.7103 86.1843 37.8793 85.8983 37.8793 85.543C37.8793 85.283 37.784 85.0707 37.5933 84.906C37.4113 84.7327 37.1773 84.5983 36.8913 84.503C36.6053 84.4077 36.2153 84.2993 35.7213 84.178C35.028 84.0133 34.4646 83.8487 34.0313 83.684C33.6066 83.5193 33.2383 83.2637 32.9263 82.917C32.623 82.5617 32.4713 82.085 32.4713 81.487C32.4713 80.9843 32.6056 80.5293 32.8743 80.122C33.1516 79.706 33.5633 79.3767 34.1093 79.134C34.664 78.8913 35.34 78.77 36.1373 78.77C36.692 78.77 37.238 78.8393 37.7753 78.978C38.3126 79.1167 38.7763 79.316 39.1663 79.576L38.6333 80.889C38.2346 80.655 37.8186 80.4773 37.3853 80.356C36.952 80.2347 36.5316 80.174 36.1243 80.174C35.457 80.174 34.9586 80.2867 34.6293 80.512C34.3086 80.7373 34.1483 81.0363 34.1483 81.409C34.1483 81.669 34.2393 81.8813 34.4213 82.046C34.612 82.2107 34.8503 82.3407 35.1363 82.436C35.4223 82.5313 35.8123 82.6397 36.3063 82.761C36.9823 82.917 37.537 83.0817 37.9703 83.255C38.4036 83.4197 38.772 83.6753 39.0753 84.022C39.3873 84.3687 39.5433 84.8367 39.5433 85.426C39.5433 85.9287 39.4046 86.3837 39.1273 86.791C38.8586 87.1983 38.447 87.5233 37.8923 87.766C37.3376 88.0087 36.6616 88.13 35.8643 88.13ZM44.2481 88.091C43.5287 88.091 42.8831 87.9393 42.3111 87.636C41.7391 87.3327 41.2927 86.9123 40.9721 86.375C40.6514 85.829 40.4911 85.2137 40.4911 84.529C40.4911 83.8443 40.6514 83.2333 40.9721 82.696C41.2927 82.1587 41.7347 81.7383 42.2981 81.435C42.8701 81.1317 43.5201 80.98 44.2481 80.98C44.9327 80.98 45.5307 81.1187 46.0421 81.396C46.5621 81.6733 46.9521 82.072 47.2121 82.592L45.9641 83.32C45.7647 82.9993 45.5134 82.761 45.2101 82.605C44.9154 82.4403 44.5904 82.358 44.2351 82.358C43.6284 82.358 43.1257 82.5573 42.7271 82.956C42.3284 83.346 42.1291 83.8703 42.1291 84.529C42.1291 85.1877 42.3241 85.7163 42.7141 86.115C43.1127 86.505 43.6197 86.7 44.2351 86.7C44.5904 86.7 44.9154 86.622 45.2101 86.466C45.5134 86.3013 45.7647 86.0587 45.9641 85.738L47.2121 86.466C46.9434 86.986 46.5491 87.389 46.0291 87.675C45.5177 87.9523 44.9241 88.091 44.2481 88.091ZM50.1638 82.072C50.6318 81.344 51.4551 80.98 52.6338 80.98V82.527C52.4951 82.501 52.3694 82.488 52.2568 82.488C51.6241 82.488 51.1301 82.6743 50.7748 83.047C50.4194 83.411 50.2418 83.9397 50.2418 84.633V88H48.6168V81.058H50.1638V82.072ZM54.0123 81.058H55.6373V88H54.0123V81.058ZM54.8313 79.914C54.5366 79.914 54.2896 79.823 54.0903 79.641C53.891 79.4503 53.7913 79.2163 53.7913 78.939C53.7913 78.6617 53.891 78.432 54.0903 78.25C54.2896 78.0593 54.5366 77.964 54.8313 77.964C55.126 77.964 55.373 78.055 55.5723 78.237C55.7716 78.4103 55.8713 78.6313 55.8713 78.9C55.8713 79.186 55.7716 79.4287 55.5723 79.628C55.3816 79.8187 55.1346 79.914 54.8313 79.914ZM61.6181 80.98C62.2941 80.98 62.8964 81.1273 63.4251 81.422C63.9624 81.7167 64.3828 82.1327 64.6861 82.67C64.9894 83.2073 65.1411 83.827 65.1411 84.529C65.1411 85.231 64.9894 85.855 64.6861 86.401C64.3828 86.9383 63.9624 87.3543 63.4251 87.649C62.8964 87.9437 62.2941 88.091 61.6181 88.091C60.6821 88.091 59.9411 87.779 59.3951 87.155V90.522H57.7701V81.058H59.3171V81.968C59.5858 81.6387 59.9151 81.3917 60.3051 81.227C60.7038 81.0623 61.1414 80.98 61.6181 80.98ZM61.4361 86.7C62.0341 86.7 62.5238 86.5007 62.9051 86.102C63.2951 85.7033 63.4901 85.179 63.4901 84.529C63.4901 83.879 63.2951 83.3547 62.9051 82.956C62.5238 82.5573 62.0341 82.358 61.4361 82.358C61.0461 82.358 60.6951 82.449 60.3831 82.631C60.0711 82.8043 59.8241 83.0557 59.6421 83.385C59.4601 83.7143 59.3691 84.0957 59.3691 84.529C59.3691 84.9623 59.4601 85.3437 59.6421 85.673C59.8241 86.0023 60.0711 86.258 60.3831 86.44C60.6951 86.6133 61.0461 86.7 61.4361 86.7ZM70.8552 87.623C70.6645 87.779 70.4305 87.896 70.1532 87.974C69.8845 88.052 69.5985 88.091 69.2952 88.091C68.5325 88.091 67.9432 87.8917 67.5272 87.493C67.1112 87.0943 66.9032 86.5137 66.9032 85.751V82.41H65.7592V81.11H66.9032V79.524H68.5282V81.11H70.3872V82.41H68.5282V85.712C68.5282 86.05 68.6105 86.31 68.7752 86.492C68.9399 86.6653 69.1782 86.752 69.4902 86.752C69.8542 86.752 70.1575 86.6567 70.4002 86.466L70.8552 87.623Z" fill="#F7DF1E"/>
</svg>
