<svg width="75" height="91" viewBox="0 0 75 91" fill="none" xmlns="http://www.w3.org/2000/svg">
<path d="M38.9533 70.3128L37.1931 69.7292C37.1931 69.7292 37.4275 60.8229 34.2048 60.1971C32.0954 57.7409 34.5165 -44.6646 42.2275 59.8479C40.7645 60.59 39.645 61.869 39.1033 63.4174C38.8129 65.7044 38.7626 68.0154 38.9533 70.3128Z" fill="url(#paint0_linear)"/>
<path d="M39.9047 61.7084C44.5912 58.1805 48.1802 53.395 50.2547 47.9081C52.3291 42.4212 52.8038 36.4583 51.6234 30.7123C48.1781 15.5131 40.0195 10.5162 39.1406 8.6084C38.3823 7.42042 37.7351 6.16512 37.207 4.8584L37.8563 47.2076C37.8563 47.2076 36.5109 60.1498 39.9047 61.7084Z" fill="url(#paint1_linear)"/>
<path d="M36.2972 62.2711C36.2972 62.2711 21.9511 52.5 22.7807 35.2148C22.8581 30.0039 24.0529 24.8702 26.2844 20.1605C28.5159 15.4509 31.7322 11.275 35.7159 7.91484C36.1814 7.51933 36.5513 7.02346 36.7977 6.46449C37.0441 5.90551 37.1606 5.29797 37.1386 4.6875C38.0315 6.60938 37.8862 33.382 37.98 36.5133C38.3432 48.6938 37.3026 59.9719 36.2972 62.2711Z" fill="url(#paint2_linear)"/>
<path d="M12.581 88L12.568 81.968L9.578 86.96H8.824L5.834 82.046V88H4.222V78.9H5.613L9.227 84.932L12.776 78.9H14.167L14.18 88H12.581ZM19.602 88.091C18.9 88.091 18.2673 87.9393 17.704 87.636C17.1407 87.3327 16.6987 86.9123 16.378 86.375C16.066 85.829 15.91 85.2137 15.91 84.529C15.91 83.8443 16.066 83.2333 16.378 82.696C16.6987 82.1587 17.1407 81.7383 17.704 81.435C18.2673 81.1317 18.9 80.98 19.602 80.98C20.3127 80.98 20.9497 81.1317 21.513 81.435C22.0763 81.7383 22.514 82.1587 22.826 82.696C23.1467 83.2333 23.307 83.8443 23.307 84.529C23.307 85.2137 23.1467 85.829 22.826 86.375C22.514 86.9123 22.0763 87.3327 21.513 87.636C20.9497 87.9393 20.3127 88.091 19.602 88.091ZM19.602 86.7C20.2 86.7 20.694 86.5007 21.084 86.102C21.474 85.7033 21.669 85.179 21.669 84.529C21.669 83.879 21.474 83.3547 21.084 82.956C20.694 82.5573 20.2 82.358 19.602 82.358C19.004 82.358 18.51 82.5573 18.12 82.956C17.7387 83.3547 17.548 83.879 17.548 84.529C17.548 85.179 17.7387 85.7033 18.12 86.102C18.51 86.5007 19.004 86.7 19.602 86.7ZM28.7999 80.98C29.6753 80.98 30.3773 81.2357 30.9059 81.747C31.4346 82.2583 31.6989 83.0167 31.6989 84.022V88H30.0739V84.23C30.0739 83.6233 29.9309 83.1683 29.6449 82.865C29.3589 82.553 28.9516 82.397 28.4229 82.397C27.8249 82.397 27.3526 82.579 27.0059 82.943C26.6593 83.2983 26.4859 83.814 26.4859 84.49V88H24.8609V81.058H26.4079V81.955C26.6766 81.6343 27.0146 81.3917 27.4219 81.227C27.8293 81.0623 28.2886 80.98 28.7999 80.98ZM40.7138 81.058V86.947C40.7138 89.391 39.4658 90.613 36.9698 90.613C36.3025 90.613 35.6698 90.5263 35.0718 90.353C34.4738 90.1883 33.9798 89.9457 33.5898 89.625L34.3178 88.403C34.6211 88.6543 35.0025 88.8537 35.4618 89.001C35.9298 89.157 36.4021 89.235 36.8788 89.235C37.6415 89.235 38.2005 89.0617 38.5558 88.715C38.9111 88.3683 39.0888 87.8397 39.0888 87.129V86.765C38.8115 87.0683 38.4735 87.298 38.0748 87.454C37.6761 87.61 37.2385 87.688 36.7618 87.688C36.1031 87.688 35.5051 87.5493 34.9678 87.272C34.4391 86.986 34.0188 86.5873 33.7068 86.076C33.4035 85.5647 33.2518 84.9797 33.2518 84.321C33.2518 83.6623 33.4035 83.0817 33.7068 82.579C34.0188 82.0677 34.4391 81.6733 34.9678 81.396C35.5051 81.1187 36.1031 80.98 36.7618 80.98C37.2645 80.98 37.7195 81.0623 38.1268 81.227C38.5428 81.3917 38.8895 81.643 39.1668 81.981V81.058H40.7138ZM37.0088 86.31C37.6241 86.31 38.1268 86.128 38.5168 85.764C38.9155 85.3913 39.1148 84.9103 39.1148 84.321C39.1148 83.7403 38.9155 83.268 38.5168 82.904C38.1268 82.54 37.6241 82.358 37.0088 82.358C36.3848 82.358 35.8735 82.54 35.4748 82.904C35.0848 83.268 34.8898 83.7403 34.8898 84.321C34.8898 84.9103 35.0848 85.3913 35.4748 85.764C35.8735 86.128 36.3848 86.31 37.0088 86.31ZM45.9702 88.091C45.2682 88.091 44.6355 87.9393 44.0722 87.636C43.5088 87.3327 43.0668 86.9123 42.7462 86.375C42.4342 85.829 42.2782 85.2137 42.2782 84.529C42.2782 83.8443 42.4342 83.2333 42.7462 82.696C43.0668 82.1587 43.5088 81.7383 44.0722 81.435C44.6355 81.1317 45.2682 80.98 45.9702 80.98C46.6808 80.98 47.3178 81.1317 47.8812 81.435C48.4445 81.7383 48.8822 82.1587 49.1942 82.696C49.5148 83.2333 49.6752 83.8443 49.6752 84.529C49.6752 85.2137 49.5148 85.829 49.1942 86.375C48.8822 86.9123 48.4445 87.3327 47.8812 87.636C47.3178 87.9393 46.6808 88.091 45.9702 88.091ZM45.9702 86.7C46.5682 86.7 47.0622 86.5007 47.4522 86.102C47.8422 85.7033 48.0372 85.179 48.0372 84.529C48.0372 83.879 47.8422 83.3547 47.4522 82.956C47.0622 82.5573 46.5682 82.358 45.9702 82.358C45.3722 82.358 44.8782 82.5573 44.4882 82.956C44.1068 83.3547 43.9162 83.879 43.9162 84.529C43.9162 85.179 44.1068 85.7033 44.4882 86.102C44.8782 86.5007 45.3722 86.7 45.9702 86.7ZM51.3851 78.9H55.3631C56.3338 78.9 57.1961 79.0907 57.9501 79.472C58.7041 79.8447 59.2891 80.3777 59.7051 81.071C60.1211 81.7557 60.3291 82.5487 60.3291 83.45C60.3291 84.3513 60.1211 85.1487 59.7051 85.842C59.2891 86.5267 58.7041 87.0597 57.9501 87.441C57.1961 87.8137 56.3338 88 55.3631 88H51.3851V78.9ZM55.2851 86.57C55.9524 86.57 56.5374 86.4443 57.0401 86.193C57.5514 85.933 57.9414 85.569 58.2101 85.101C58.4874 84.6243 58.6261 84.074 58.6261 83.45C58.6261 82.826 58.4874 82.28 58.2101 81.812C57.9414 81.3353 57.5514 80.9713 57.0401 80.72C56.5374 80.46 55.9524 80.33 55.2851 80.33H53.0751V86.57H55.2851ZM68.5733 83.268C69.076 83.4327 69.4747 83.71 69.7693 84.1C70.064 84.4813 70.2113 84.958 70.2113 85.53C70.2113 86.3187 69.908 86.9297 69.3013 87.363C68.6947 87.7877 67.8107 88 66.6493 88H62.1253V78.9H66.3893C67.464 78.9 68.2917 79.1123 68.8723 79.537C69.453 79.953 69.7433 80.5293 69.7433 81.266C69.7433 81.7167 69.6393 82.1153 69.4313 82.462C69.2233 82.8087 68.9373 83.0773 68.5733 83.268ZM63.8153 80.226V82.735H66.2073C66.7967 82.735 67.2473 82.631 67.5593 82.423C67.88 82.2063 68.0403 81.8943 68.0403 81.487C68.0403 81.071 67.88 80.759 67.5593 80.551C67.2473 80.3343 66.7967 80.226 66.2073 80.226H63.8153ZM66.5453 86.674C67.854 86.674 68.5083 86.2363 68.5083 85.361C68.5083 84.4857 67.854 84.048 66.5453 84.048H63.8153V86.674H66.5453Z" fill="#CDCCB5"/>
<defs>
<linearGradient id="paint0_linear" x1="27.1212" y1="38.0916" x2="47.3516" y2="44.9567" gradientUnits="userSpaceOnUse">
<stop offset="0.231" stop-color="#999875"/>
<stop offset="0.563" stop-color="#9B9977"/>
<stop offset="0.683" stop-color="#A09F7E"/>
<stop offset="0.768" stop-color="#A9A889"/>
<stop offset="0.837" stop-color="#B7B69A"/>
<stop offset="0.896" stop-color="#C9C7B0"/>
<stop offset="0.948" stop-color="#DEDDCB"/>
<stop offset="0.994" stop-color="#F8F6EB"/>
<stop offset="1" stop-color="#FBF9EF"/>
</linearGradient>
<linearGradient id="paint1_linear" x1="34.5397" y1="4.55579" x2="43.4835" y2="60.4049" gradientUnits="userSpaceOnUse">
<stop stop-color="#48A547"/>
<stop offset="1" stop-color="#3F9143"/>
</linearGradient>
<linearGradient id="paint2_linear" x1="21.5467" y1="36.9258" x2="45.5481" y2="28.8878" gradientUnits="userSpaceOnUse">
<stop stop-color="#41A247"/>
<stop offset="0.352" stop-color="#4BA74B"/>
<stop offset="0.956" stop-color="#67B554"/>
<stop offset="1" stop-color="#69B655"/>
</linearGradient>
</defs>
</svg>
