<svg width="75" height="86" viewBox="0 0 75 86" fill="none" xmlns="http://www.w3.org/2000/svg">
<path d="M30.581 83L30.568 76.968L27.578 81.96H26.824L23.834 77.046V83H22.222V73.9H23.613L27.227 79.932L30.776 73.9H32.167L32.18 83H30.581ZM40.982 76.058L37.732 83.559C37.4287 84.313 37.0603 84.8417 36.627 85.145C36.1937 85.457 35.6693 85.613 35.054 85.613C34.7073 85.613 34.365 85.5567 34.027 85.444C33.689 85.3313 33.4117 85.1753 33.195 84.976L33.845 83.78C34.001 83.9273 34.183 84.0443 34.391 84.131C34.6077 84.2177 34.8243 84.261 35.041 84.261C35.327 84.261 35.561 84.1873 35.743 84.04C35.9337 83.8927 36.107 83.6457 36.263 83.299L36.38 83.026L33.351 76.058H35.041L37.225 81.193L39.422 76.058H40.982ZM44.9112 83.13C44.2092 83.13 43.5288 83.0303 42.8702 82.831C42.2202 82.6317 41.7045 82.3673 41.3232 82.038L41.9082 80.725C42.2808 81.0197 42.7358 81.2623 43.2732 81.453C43.8192 81.635 44.3652 81.726 44.9112 81.726C45.5872 81.726 46.0898 81.6177 46.4192 81.401C46.7572 81.1843 46.9262 80.8983 46.9262 80.543C46.9262 80.283 46.8308 80.0707 46.6402 79.906C46.4582 79.7327 46.2242 79.5983 45.9382 79.503C45.6522 79.4077 45.2622 79.2993 44.7682 79.178C44.0748 79.0133 43.5115 78.8487 43.0782 78.684C42.6535 78.5193 42.2852 78.2637 41.9732 77.917C41.6698 77.5617 41.5182 77.085 41.5182 76.487C41.5182 75.9843 41.6525 75.5293 41.9212 75.122C42.1985 74.706 42.6102 74.3767 43.1562 74.134C43.7108 73.8913 44.3868 73.77 45.1842 73.77C45.7388 73.77 46.2848 73.8393 46.8222 73.978C47.3595 74.1167 47.8232 74.316 48.2132 74.576L47.6802 75.889C47.2815 75.655 46.8655 75.4773 46.4322 75.356C45.9988 75.2347 45.5785 75.174 45.1712 75.174C44.5038 75.174 44.0055 75.2867 43.6762 75.512C43.3555 75.7373 43.1952 76.0363 43.1952 76.409C43.1952 76.669 43.2862 76.8813 43.4682 77.046C43.6588 77.2107 43.8972 77.3407 44.1832 77.436C44.4692 77.5313 44.8592 77.6397 45.3532 77.761C46.0292 77.917 46.5838 78.0817 47.0172 78.255C47.4505 78.4197 47.8188 78.6753 48.1222 79.022C48.4342 79.3687 48.5902 79.8367 48.5902 80.426C48.5902 80.9287 48.4515 81.3837 48.1742 81.791C47.9055 82.1983 47.4938 82.5233 46.9392 82.766C46.3845 83.0087 45.7085 83.13 44.9112 83.13ZM56.8959 76.058V85.522H55.2709V82.155C54.7249 82.779 53.9839 83.091 53.0479 83.091C52.3719 83.091 51.7653 82.9437 51.2279 82.649C50.6993 82.3543 50.2833 81.9383 49.9799 81.401C49.6853 80.8637 49.5379 80.2397 49.5379 79.529C49.5379 78.827 49.6896 78.2073 49.9929 77.67C50.2963 77.1327 50.7123 76.7167 51.2409 76.422C51.7696 76.1273 52.3719 75.98 53.0479 75.98C53.5246 75.98 53.9579 76.0623 54.3479 76.227C54.7466 76.3917 55.0803 76.6387 55.3489 76.968V76.058H56.8959ZM53.2299 81.7C53.8279 81.7 54.3219 81.5007 54.7119 81.102C55.1019 80.7033 55.2969 80.179 55.2969 79.529C55.2969 78.879 55.1019 78.3547 54.7119 77.956C54.3219 77.5573 53.8279 77.358 53.2299 77.358C52.6319 77.358 52.1379 77.5573 51.7479 77.956C51.3666 78.3547 51.1759 78.879 51.1759 79.529C51.1759 80.179 51.3666 80.7033 51.7479 81.102C52.1379 81.5007 52.6319 81.7 53.2299 81.7ZM59.0221 73.354H60.6471V83H59.0221V73.354Z" fill="#00758F"/>
<path fill-rule="evenodd" clip-rule="evenodd" d="M20.5898 16.0899C19.969 16.0879 19.3505 16.1667 18.75 16.3243V16.4063H18.8391C19.2692 17.0555 19.7487 17.6706 20.2734 18.2461C20.6344 18.9633 20.9484 19.6782 21.307 20.3953L21.3961 20.3039C21.729 20.0397 21.9896 19.6953 22.1536 19.3031C22.3175 18.9109 22.3794 18.4836 22.3336 18.061C22.1373 17.7583 21.9574 17.4454 21.7945 17.1235C21.525 16.6758 20.9414 16.4508 20.5828 16.0922" fill="#5D87A1"/>
<path fill-rule="evenodd" clip-rule="evenodd" d="M65.1096 55.2023C62.1532 54.9946 59.1865 55.423 56.4096 56.4585C55.737 56.728 54.6635 56.728 54.5698 57.5788C54.9307 57.9374 54.9729 58.5163 55.2893 59.0155C55.9032 60.0549 56.6921 60.9802 57.6213 61.7507C58.5588 62.4679 59.4963 63.1827 60.4924 63.8109C62.2385 64.8913 64.2143 65.5171 65.9159 66.5929C66.9049 67.221 67.8893 68.0273 68.8784 68.7023C69.3706 69.0609 69.6823 69.6398 70.3104 69.8741V69.7382C70.1259 69.2401 69.8976 68.7593 69.6284 68.3015C69.1807 67.8562 68.7307 67.4507 68.2807 67.003C66.966 65.2647 65.3931 63.7376 63.6166 62.4749C62.1799 61.4859 59.0393 60.1312 58.4604 58.4905L58.369 58.3991C59.4203 58.2502 60.4563 58.0086 61.4651 57.6773C62.9885 57.2741 64.3784 57.3655 65.9463 56.9741C66.6659 56.7937 67.9666 56.346 67.9666 56.346V55.6429C67.1651 54.846 66.5909 53.7796 65.7471 53.0273C63.4516 51.0235 61.0054 49.1994 58.4299 47.571C57.0541 46.6827 55.2799 46.1109 53.8151 45.3538C53.2854 45.0866 52.4088 44.9554 52.0877 44.5101C51.3592 43.4413 50.7494 42.2962 50.269 41.0952C48.9577 38.5706 47.7451 35.996 46.6338 33.3773C45.979 31.6495 45.2239 29.9615 44.3721 28.3218C40.262 21.3338 34.3293 15.5948 27.2088 11.7187C25.4122 10.849 23.502 10.2368 21.5346 9.89992C20.4237 9.85305 19.3174 9.76633 18.2088 9.72414C17.4932 9.25531 16.8125 8.73519 16.1721 8.16789C13.6362 6.56242 7.12056 3.11242 5.25493 7.68039C4.05962 10.5655 7.03149 13.4015 8.05102 14.8663C8.91069 15.8992 9.66815 17.013 10.3127 18.1921C10.6245 18.9468 10.7135 19.746 11.0159 20.5359C11.6665 22.5635 12.439 24.5499 13.3291 26.4843C13.8053 27.4404 14.3537 28.3587 14.9698 29.2312C15.3284 29.721 15.9471 29.9343 16.0807 30.7429C15.5892 31.7994 15.2453 32.9185 15.0588 34.0687C14.2841 36.5153 13.999 39.0906 14.2198 41.6475C14.4405 44.2043 15.1629 46.6926 16.3456 48.9702C17.0487 50.0788 18.7409 52.5187 21.0026 51.5859C22.9971 50.789 22.5541 48.2601 23.1307 46.0452C23.262 45.5085 23.1752 45.157 23.4401 44.803V45.2343C23.4401 45.2343 24.5721 47.721 25.1346 48.9843C26.6643 51.3023 28.5647 53.3531 30.7596 55.0546C31.6278 55.8126 32.3273 56.7444 32.8127 57.7898V58.5937H33.8135C33.7927 58.2312 33.6922 57.8778 33.5192 57.5586C33.3462 57.2393 33.105 56.9622 32.8127 56.7468C31.9921 55.9021 31.2404 54.9929 30.5651 54.028C28.7305 51.4153 27.1126 48.6568 25.7276 45.7804C25.0245 44.3741 24.4315 42.832 23.869 41.428C23.6112 40.8866 23.6112 40.0687 23.1776 39.7874C22.377 40.7347 21.6822 41.7666 21.1057 42.8648C20.4059 45.0844 19.9985 47.3858 19.894 49.7109C19.7229 49.7577 19.8073 49.7109 19.7229 49.7999C18.3424 49.4366 17.8666 47.9437 17.3463 46.678C16.0022 42.7746 15.8666 38.5566 16.9573 34.5749C17.2573 33.6257 18.5581 30.6351 18.0377 29.728C17.7776 28.8632 16.9127 28.3687 16.4393 27.6866C15.8349 26.7691 15.3148 25.7987 14.8854 24.7874C13.8565 22.2655 13.3362 19.453 12.2159 16.9124C11.5957 15.6905 10.8736 14.5231 10.0573 13.4226C9.15426 12.3232 8.35772 11.1406 7.67837 9.89055C7.46274 9.39133 7.1604 8.5757 7.50493 8.03195C7.52818 7.88091 7.60001 7.74156 7.70954 7.63499C7.81907 7.52842 7.96034 7.46043 8.11196 7.44133C8.66977 6.94445 10.2706 7.57727 10.8307 7.84914C12.3362 8.44183 13.7703 9.20208 15.1057 10.1155C15.7104 10.5702 17.1354 11.721 17.1354 11.721H17.5573C18.9916 12.0327 20.6041 11.8077 21.9541 12.2132C24.2272 12.9709 26.3964 14.0103 28.4112 15.307C34.3495 19.0925 39.177 24.3859 42.401 30.6468C42.9401 31.6757 43.1674 32.6202 43.6596 33.6937C44.5971 35.8968 45.769 38.1468 46.7065 40.289C47.5335 42.4084 48.6032 44.4249 49.894 46.2984C50.5643 47.2359 53.2573 47.7327 54.469 48.2249C55.5213 48.589 56.5539 49.0075 57.5627 49.4788C59.0885 50.4163 60.6096 51.4968 62.0463 52.5257C62.7612 53.0648 65.0041 54.1851 65.1401 55.0827" fill="#00758F"/>
</svg>
