<svg width="75" height="97" viewBox="0 0 75 97" fill="none" xmlns="http://www.w3.org/2000/svg">
<path d="M24.308 84.9V94H22.917L17.899 87.838V94H16.222V84.9H17.613L22.631 91.062V84.9H24.308ZM33.1164 90.568C33.1164 90.6807 33.1077 90.841 33.0904 91.049H27.6434C27.7387 91.5603 27.9857 91.9677 28.3844 92.271C28.7917 92.5657 29.2944 92.713 29.8924 92.713C30.6551 92.713 31.2834 92.4617 31.7774 91.959L32.6484 92.96C32.3364 93.3327 31.9421 93.6143 31.4654 93.805C30.9887 93.9957 30.4514 94.091 29.8534 94.091C29.0907 94.091 28.4191 93.9393 27.8384 93.636C27.2577 93.3327 26.8071 92.9123 26.4864 92.375C26.1744 91.829 26.0184 91.2137 26.0184 90.529C26.0184 89.853 26.1701 89.2463 26.4734 88.709C26.7854 88.163 27.2144 87.7383 27.7604 87.435C28.3064 87.1317 28.9217 86.98 29.6064 86.98C30.2824 86.98 30.8847 87.1317 31.4134 87.435C31.9507 87.7297 32.3667 88.15 32.6614 88.696C32.9647 89.2333 33.1164 89.8573 33.1164 90.568ZM29.6064 88.28C29.0864 88.28 28.6444 88.436 28.2804 88.748C27.9251 89.0513 27.7084 89.4587 27.6304 89.97H31.5694C31.5001 89.4673 31.2877 89.06 30.9324 88.748C30.5771 88.436 30.1351 88.28 29.6064 88.28ZM38.8503 93.623C38.6597 93.779 38.4257 93.896 38.1483 93.974C37.8797 94.052 37.5937 94.091 37.2903 94.091C36.5277 94.091 35.9383 93.8917 35.5223 93.493C35.1063 93.0943 34.8983 92.5137 34.8983 91.751V88.41H33.7543V87.11H34.8983V85.524H36.5233V87.11H38.3823V88.41H36.5233V91.712C36.5233 92.05 36.6057 92.31 36.7703 92.492C36.935 92.6653 37.1733 92.752 37.4853 92.752C37.8493 92.752 38.1527 92.6567 38.3953 92.466L38.8503 93.623ZM40.1871 84.354H41.8121V94H40.1871V84.354ZM43.9449 87.058H45.5699V94H43.9449V87.058ZM44.7639 85.914C44.4692 85.914 44.2222 85.823 44.0229 85.641C43.8236 85.4503 43.7239 85.2163 43.7239 84.939C43.7239 84.6617 43.8236 84.432 44.0229 84.25C44.2222 84.0593 44.4692 83.964 44.7639 83.964C45.0586 83.964 45.3056 84.055 45.5049 84.237C45.7042 84.4103 45.8039 84.6313 45.8039 84.9C45.8039 85.186 45.7042 85.4287 45.5049 85.628C45.3142 85.8187 45.0672 85.914 44.7639 85.914ZM50.5237 85.576C49.8391 85.576 49.4967 85.9487 49.4967 86.694V87.11H51.4077V88.41H49.5487V94H47.9237V88.41H46.7797V87.11H47.9237V86.668C47.9237 85.9227 48.1404 85.3377 48.5737 84.913C49.0071 84.4797 49.6181 84.263 50.4067 84.263C51.0307 84.263 51.5204 84.3887 51.8757 84.64L51.4207 85.862C51.1434 85.6713 50.8444 85.576 50.5237 85.576ZM59.1285 87.058L55.8785 94.559C55.5752 95.313 55.2068 95.8417 54.7735 96.145C54.3402 96.457 53.8158 96.613 53.2005 96.613C52.8538 96.613 52.5115 96.5567 52.1735 96.444C51.8355 96.3313 51.5582 96.1753 51.3415 95.976L51.9915 94.78C52.1475 94.9273 52.3295 95.0443 52.5375 95.131C52.7542 95.2177 52.9708 95.261 53.1875 95.261C53.4735 95.261 53.7075 95.1873 53.8895 95.04C54.0802 94.8927 54.2535 94.6457 54.4095 94.299L54.5265 94.026L51.4975 87.058H53.1875L55.3715 92.193L57.5685 87.058H59.1285Z" fill="#4D9ABF"/>
<g clip-path="url(#clip0)">
<path d="M54.3551 26.0267L54.3275 26.015C54.3108 26.01 54.2953 26.0013 54.2824 25.9895C54.26 25.9654 54.2433 25.9364 54.2338 25.9049C54.2243 25.8733 54.2222 25.84 54.2276 25.8075L55.7414 16.5635L62.8397 23.656L55.4575 26.7934C55.4371 26.8016 55.4151 26.8056 55.3931 26.8051H55.3635C55.349 26.7957 55.3358 26.7845 55.3242 26.7717C55.0494 26.4662 54.721 26.2137 54.3551 26.0267ZM64.6512 25.4633L72.2408 33.0447C73.817 34.6212 74.6065 35.4075 74.8942 36.3193C74.9373 36.454 74.9725 36.5891 75 36.7279L56.8614 29.0545C56.8517 29.0505 56.8419 29.0466 56.8321 29.0428C56.7595 29.0135 56.6754 28.9801 56.6754 28.906C56.6754 28.8316 56.7615 28.7964 56.8339 28.7671L56.8573 28.7571L64.6512 25.4633ZM74.6906 39.1613C74.2989 39.8967 73.5352 40.6596 72.2429 41.9525L63.6855 50.4984L52.6181 48.1962L52.5595 48.1845C52.4613 48.1687 52.3576 48.1511 52.3576 48.0632C52.3155 47.607 52.1799 47.1644 51.9592 46.7629C51.7386 46.3615 51.4376 46.0098 51.075 45.7297C51.0299 45.6846 51.0419 45.6143 51.0554 45.5495C51.0554 45.5399 51.0554 45.5302 51.0595 45.5223L53.141 32.7573L53.1486 32.7143C53.1604 32.6164 53.1779 32.503 53.2661 32.503C53.7121 32.4477 54.1426 32.3042 54.5326 32.0809C54.9226 31.8576 55.2643 31.5589 55.5378 31.2023C55.5554 31.1826 55.5671 31.1612 55.5905 31.1495C55.6532 31.1202 55.7276 31.1495 55.7924 31.1768L74.6889 39.1613H74.6906ZM61.718 52.4642L47.6464 66.5202L50.0546 51.7326L50.0587 51.713C50.0605 51.6938 50.0645 51.6748 50.0704 51.6565C50.09 51.6096 50.1407 51.59 50.1899 51.5703L50.2134 51.5604C50.7407 51.3357 51.2071 50.9891 51.5745 50.5493C51.6214 50.4945 51.6782 50.4415 51.7506 50.4319C51.7693 50.4289 51.7887 50.4289 51.8074 50.4319L61.7156 52.4662L61.7177 52.4642H61.718ZM44.6678 69.4953L43.0816 71.0797L25.5463 45.7649C25.5399 45.7556 25.5334 45.7464 25.5267 45.7373C25.4994 45.7001 25.4698 45.6632 25.476 45.6201C25.4777 45.5888 25.4974 45.5615 25.519 45.5381L25.5384 45.5126C25.5911 45.4341 25.6365 45.3559 25.6854 45.2718L25.7244 45.2035L25.7303 45.1977C25.7578 45.1508 25.783 45.1057 25.8302 45.0802C25.8712 45.0606 25.9283 45.0685 25.9731 45.0781L45.4002 49.0801C45.4547 49.0889 45.5057 49.1109 45.549 49.1446C45.5745 49.1703 45.5804 49.1976 45.5862 49.2289C45.7219 49.7413 45.9742 50.2153 46.3234 50.614C46.6726 51.0127 47.1092 51.3252 47.5992 51.5273C47.654 51.5545 47.6306 51.6152 47.6051 51.6796C47.5924 51.708 47.5826 51.7375 47.5758 51.7678C47.3312 53.2543 45.232 66.043 44.6678 69.4953ZM41.3546 72.8029C40.1856 73.959 39.4963 74.571 38.717 74.8177C37.9486 75.0604 37.1241 75.0604 36.3557 74.8177C35.4431 74.5279 34.6538 73.7419 33.0773 72.1652L15.4676 54.5747L20.0672 47.4488C20.0867 47.4131 20.1134 47.3817 20.1457 47.3569C20.1946 47.3217 20.2652 47.3375 20.3238 47.3569C21.3796 47.675 22.513 47.6177 23.5312 47.1945C23.584 47.1752 23.637 47.1614 23.6783 47.1987C23.6988 47.2174 23.7173 47.2382 23.7331 47.2611L41.3546 72.805V72.8029ZM13.7698 52.8787L9.73008 48.8437L17.7076 45.4441C17.728 45.4351 17.7501 45.4305 17.7724 45.4303C17.8389 45.4303 17.8781 45.4968 17.9133 45.5574C17.9936 45.6805 18.0785 45.8006 18.1682 45.9175L18.1934 45.9486C18.2168 45.982 18.2013 46.0151 18.1778 46.0464L13.7716 52.8787H13.7698ZM7.94238 47.0577L2.83154 41.9525C1.96201 41.0841 1.33154 40.4542 0.892969 39.9125L16.4329 43.1322L16.4915 43.1419C16.5876 43.1574 16.6937 43.175 16.6937 43.265C16.6937 43.3628 16.5779 43.4079 16.4798 43.4448L16.435 43.4645L7.94238 47.0577ZM0 37.2872C0.0177772 36.9584 0.0770357 36.6332 0.176367 36.3193C0.466113 35.4075 1.25332 34.6212 2.83154 33.0447L9.37178 26.5115C12.3832 30.8772 15.4027 35.2373 18.4304 39.5917C18.4831 39.662 18.5417 39.7403 18.4813 39.7988C18.1954 40.1138 17.9095 40.458 17.7079 40.8319C17.6859 40.8796 17.6522 40.9215 17.6098 40.9529C17.5843 40.9687 17.557 40.9628 17.5277 40.957H17.5236L0 37.2855V37.2875V37.2872ZM11.1226 24.7628L19.9166 15.9784C20.7428 16.3403 23.7507 17.6097 26.441 18.7441C28.4777 19.6051 30.334 20.3876 30.9176 20.6416C30.9762 20.6651 31.0292 20.6885 31.0547 20.7471C31.0702 20.7822 31.0626 20.8274 31.0547 20.8646C30.9155 21.4988 30.9362 22.1576 31.115 22.7818C31.2938 23.406 31.6251 23.9759 32.0789 24.4403C32.1375 24.4988 32.0789 24.5829 32.0279 24.6553L32.0004 24.6963L23.0713 38.5118C23.0479 38.5511 23.0262 38.5842 22.9869 38.6097C22.94 38.639 22.8735 38.6252 22.8185 38.6117C22.4712 38.5209 22.1142 38.4723 21.7553 38.467C21.4342 38.467 21.0855 38.5256 20.7331 38.5901H20.7311C20.6921 38.5959 20.6566 38.6038 20.6256 38.5804C20.591 38.5522 20.5612 38.5186 20.5374 38.4808L11.1226 24.7628ZM21.6929 14.2042L33.0776 2.83205C34.6538 1.25734 35.4431 0.469257 36.3554 0.181562C37.1239 -0.0611716 37.9485 -0.0611716 38.717 0.181562C39.6296 0.469257 40.4186 1.25734 41.995 2.83205L44.4624 5.2968L36.3653 17.823C36.3453 17.8594 36.318 17.8913 36.2851 17.9167C36.2361 17.9501 36.1676 17.9363 36.1087 17.9167C35.4703 17.7232 34.7944 17.688 34.1394 17.8141C33.4844 17.9402 32.8699 18.2239 32.349 18.6406C32.2963 18.6954 32.2178 18.6641 32.1513 18.6348C31.0937 18.1751 22.8694 14.7031 21.6926 14.2045L21.6929 14.2042ZM46.1815 7.01418L53.6581 14.482L51.8563 25.6277V25.657C51.8548 25.6824 51.8496 25.7074 51.8408 25.7314C51.8212 25.7703 51.7819 25.7782 51.7427 25.79C51.3576 25.9065 50.9949 26.0871 50.6698 26.324C50.6558 26.3339 50.6427 26.345 50.6306 26.3571C50.6089 26.3806 50.5875 26.4023 50.5523 26.4061C50.5236 26.407 50.4949 26.4023 50.468 26.3923L39.0753 21.5571L39.0539 21.5472C38.9813 21.5179 38.8951 21.4827 38.8951 21.4083C38.8281 20.7741 38.6208 20.1627 38.2881 19.6186C38.2333 19.5286 38.1727 19.4349 38.2195 19.3429L46.1815 7.01418ZM38.482 23.8473L49.1619 28.3657C49.2205 28.393 49.2853 28.4185 49.3107 28.4791C49.3209 28.5155 49.3209 28.554 49.3107 28.5904C49.2794 28.7472 49.2521 28.925 49.2521 29.1052V29.4043C49.2521 29.4787 49.1757 29.5098 49.1051 29.5391L49.0837 29.547C47.3918 30.2689 25.331 39.6655 25.2976 39.6655C25.2645 39.6655 25.229 39.6655 25.1959 39.6324C25.1373 39.5738 25.1959 39.4918 25.2486 39.4171L25.2762 39.3781L34.0526 25.8034L34.0682 25.78C34.1191 25.6977 34.178 25.6057 34.2721 25.6057L34.36 25.6195C34.5598 25.6467 34.7361 25.6722 34.9143 25.6722C36.2458 25.6722 37.4795 25.0247 38.2236 23.9176C38.2412 23.8883 38.2638 23.8619 38.2901 23.8394C38.3429 23.8004 38.4214 23.82 38.482 23.8473ZM26.2512 41.8133L50.2978 31.5696C50.2978 31.5696 50.3329 31.5696 50.3663 31.603C50.4973 31.734 50.6089 31.8219 50.7167 31.9042L50.7694 31.9373C50.8187 31.9649 50.8676 31.9959 50.8714 32.0469C50.8714 32.0665 50.8714 32.0782 50.8676 32.0958L48.8074 44.7357L48.7995 44.7866C48.786 44.8842 48.7723 44.9958 48.6803 44.9958C48.1312 45.0327 47.5995 45.2029 47.131 45.4916C46.6626 45.7802 46.2715 46.1787 45.9917 46.6526L45.9817 46.6681C45.9545 46.7132 45.929 46.756 45.8839 46.7794C45.8429 46.7993 45.7901 46.7914 45.7468 46.7818L26.5705 42.8305C26.5509 42.8267 26.2729 41.8153 26.2512 41.8133Z" fill="url(#paint0_radial)"/>
</g>
<defs>
<radialGradient id="paint0_radial" cx="0" cy="0" r="1" gradientUnits="userSpaceOnUse" gradientTransform="translate(37.5 -37.5006) scale(75 75.0002)">
<stop stop-color="#20C6B7"/>
<stop offset="1" stop-color="#4D9ABF"/>
</radialGradient>
<clipPath id="clip0">
<rect width="75" height="75" fill="white"/>
</clipPath>
</defs>
</svg>
