<svg width="75" height="91" viewBox="0 0 75 91" fill="none" xmlns="http://www.w3.org/2000/svg">
<path d="M21.308 78.9V88H19.917L14.899 81.838V88H13.222V78.9H14.613L19.631 85.062V78.9H21.308ZM26.7104 88.091C26.0084 88.091 25.3757 87.9393 24.8124 87.636C24.2491 87.3327 23.8071 86.9123 23.4864 86.375C23.1744 85.829 23.0184 85.2137 23.0184 84.529C23.0184 83.8443 23.1744 83.2333 23.4864 82.696C23.8071 82.1587 24.2491 81.7383 24.8124 81.435C25.3757 81.1317 26.0084 80.98 26.7104 80.98C27.4211 80.98 28.0581 81.1317 28.6214 81.435C29.1847 81.7383 29.6224 82.1587 29.9344 82.696C30.2551 83.2333 30.4154 83.8443 30.4154 84.529C30.4154 85.2137 30.2551 85.829 29.9344 86.375C29.6224 86.9123 29.1847 87.3327 28.6214 87.636C28.0581 87.9393 27.4211 88.091 26.7104 88.091ZM26.7104 86.7C27.3084 86.7 27.8024 86.5007 28.1924 86.102C28.5824 85.7033 28.7774 85.179 28.7774 84.529C28.7774 83.879 28.5824 83.3547 28.1924 82.956C27.8024 82.5573 27.3084 82.358 26.7104 82.358C26.1124 82.358 25.6184 82.5573 25.2284 82.956C24.8471 83.3547 24.6564 83.879 24.6564 84.529C24.6564 85.179 24.8471 85.7033 25.2284 86.102C25.6184 86.5007 26.1124 86.7 26.7104 86.7ZM38.7683 78.354V88H37.2083V87.103C36.9397 87.4323 36.606 87.6793 36.2073 87.844C35.8173 88.0087 35.384 88.091 34.9073 88.091C34.24 88.091 33.6377 87.9437 33.1003 87.649C32.5717 87.3543 32.1557 86.9383 31.8523 86.401C31.549 85.855 31.3973 85.231 31.3973 84.529C31.3973 83.827 31.549 83.2073 31.8523 82.67C32.1557 82.1327 32.5717 81.7167 33.1003 81.422C33.6377 81.1273 34.24 80.98 34.9073 80.98C35.3667 80.98 35.787 81.058 36.1683 81.214C36.5497 81.37 36.8747 81.604 37.1433 81.916V78.354H38.7683ZM35.1023 86.7C35.4923 86.7 35.8433 86.6133 36.1553 86.44C36.4673 86.258 36.7143 86.0023 36.8963 85.673C37.0783 85.3437 37.1693 84.9623 37.1693 84.529C37.1693 84.0957 37.0783 83.7143 36.8963 83.385C36.7143 83.0557 36.4673 82.8043 36.1553 82.631C35.8433 82.449 35.4923 82.358 35.1023 82.358C34.7123 82.358 34.3613 82.449 34.0493 82.631C33.7373 82.8043 33.4903 83.0557 33.3083 83.385C33.1263 83.7143 33.0353 84.0957 33.0353 84.529C33.0353 84.9623 33.1263 85.3437 33.3083 85.673C33.4903 86.0023 33.7373 86.258 34.0493 86.44C34.3613 86.6133 34.7123 86.7 35.1023 86.7ZM47.4201 84.568C47.4201 84.6807 47.4115 84.841 47.3941 85.049H41.9471C42.0425 85.5603 42.2895 85.9677 42.6881 86.271C43.0955 86.5657 43.5981 86.713 44.1961 86.713C44.9588 86.713 45.5871 86.4617 46.0811 85.959L46.9521 86.96C46.6401 87.3327 46.2458 87.6143 45.7691 87.805C45.2925 87.9957 44.7551 88.091 44.1571 88.091C43.3945 88.091 42.7228 87.9393 42.1421 87.636C41.5615 87.3327 41.1108 86.9123 40.7901 86.375C40.4781 85.829 40.3221 85.2137 40.3221 84.529C40.3221 83.853 40.4738 83.2463 40.7771 82.709C41.0891 82.163 41.5181 81.7383 42.0641 81.435C42.6101 81.1317 43.2255 80.98 43.9101 80.98C44.5861 80.98 45.1885 81.1317 45.7171 81.435C46.2545 81.7297 46.6705 82.15 46.9651 82.696C47.2685 83.2333 47.4201 83.8573 47.4201 84.568ZM43.9101 82.28C43.3901 82.28 42.9481 82.436 42.5841 82.748C42.2288 83.0513 42.0121 83.4587 41.9341 83.97H45.8731C45.8038 83.4673 45.5915 83.06 45.2361 82.748C44.8808 82.436 44.4388 82.28 43.9101 82.28ZM50.554 88.13C49.9734 88.13 49.436 88.0173 48.942 87.792C48.4567 87.558 48.058 87.233 47.746 86.817L48.708 85.66C49.2107 86.3533 49.813 86.7 50.515 86.7C51.4597 86.7 51.932 86.141 51.932 85.023V80.317H48.695V78.9H53.622V84.932C53.622 85.998 53.362 86.7997 52.842 87.337C52.322 87.8657 51.5594 88.13 50.554 88.13ZM57.9815 88.091C57.4182 88.091 56.8678 88.0173 56.3305 87.87C55.7932 87.7227 55.3642 87.5363 55.0435 87.311L55.6675 86.076C55.9795 86.284 56.3522 86.453 56.7855 86.583C57.2275 86.7043 57.6608 86.765 58.0855 86.765C59.0562 86.765 59.5415 86.5093 59.5415 85.998C59.5415 85.7553 59.4158 85.5863 59.1645 85.491C58.9218 85.3957 58.5275 85.3047 57.9815 85.218C57.4095 85.1313 56.9415 85.0317 56.5775 84.919C56.2222 84.8063 55.9102 84.6113 55.6415 84.334C55.3815 84.048 55.2515 83.6537 55.2515 83.151C55.2515 82.4923 55.5245 81.968 56.0705 81.578C56.6252 81.1793 57.3705 80.98 58.3065 80.98C58.7832 80.98 59.2598 81.0363 59.7365 81.149C60.2132 81.253 60.6032 81.396 60.9065 81.578L60.2825 82.813C59.6932 82.4663 59.0302 82.293 58.2935 82.293C57.8168 82.293 57.4528 82.3667 57.2015 82.514C56.9588 82.6527 56.8375 82.839 56.8375 83.073C56.8375 83.333 56.9675 83.5193 57.2275 83.632C57.4962 83.736 57.9078 83.8357 58.4625 83.931C59.0172 84.0177 59.4722 84.1173 59.8275 84.23C60.1828 84.3427 60.4862 84.5333 60.7375 84.802C60.9975 85.0707 61.1275 85.452 61.1275 85.946C61.1275 86.596 60.8458 87.116 60.2825 87.506C59.7192 87.896 58.9522 88.091 57.9815 88.091Z" fill="#449D46"/>
<g clip-path="url(#clip0)">
<path d="M37.4937 74.9998C36.4905 74.9998 35.4905 74.7373 34.6124 74.228L25.4374 68.7998C24.0687 68.0342 24.7374 67.7623 25.1874 67.603C27.0155 66.9686 27.3843 66.8217 29.3374 65.7155C29.5405 65.5998 29.8093 65.6436 30.0187 65.7686L37.0687 69.953C37.1995 70.0225 37.3455 70.0588 37.4937 70.0588C37.6418 70.0588 37.7878 70.0225 37.9187 69.953L65.403 54.0905C65.5311 54.0132 65.6371 53.9041 65.7104 53.7738C65.7838 53.6434 65.8222 53.4963 65.8218 53.3467V21.628C65.8215 21.4757 65.782 21.3261 65.707 21.1936C65.632 21.0611 65.5241 20.9502 65.3937 20.8717L37.9218 5.02171C37.7923 4.94945 37.6466 4.91153 37.4983 4.91153C37.3501 4.91153 37.2043 4.94945 37.0749 5.02171L9.60928 20.8748C9.47835 20.9526 9.36963 21.0627 9.29355 21.1946C9.21748 21.3265 9.17662 21.4757 9.1749 21.628V53.3467C9.17551 53.4967 9.21607 53.6438 9.29242 53.7728C9.36877 53.9019 9.47814 54.0083 9.60928 54.0811L17.1374 58.4311C21.2218 60.4748 23.7249 58.0686 23.7249 55.6498V24.3342C23.7249 23.8905 24.0812 23.5436 24.5249 23.5436H28.0093C28.4437 23.5436 28.8062 23.8936 28.8062 24.3342V55.6498C28.8062 61.103 25.8374 64.228 20.6687 64.228C19.0812 64.228 17.828 64.228 14.3374 62.5061L7.1249 58.3592C6.24821 57.8487 5.52077 57.1171 5.01519 56.2376C4.50961 55.358 4.24358 54.3612 4.24365 53.3467V21.628C4.24365 19.5686 5.34678 17.6436 7.1249 16.6186L34.6093 0.73733C35.4946 0.252918 36.4876 -0.000976562 37.4968 -0.000976562C38.506 -0.000976563 39.4989 0.252918 40.3843 0.73733L67.8655 16.6186C69.6468 17.6467 70.753 19.5686 70.753 21.628V53.3467C70.7512 54.3616 70.4837 55.3583 69.9771 56.2377C69.4705 57.1171 68.7425 57.8485 67.8655 58.3592L40.3843 74.228C39.5093 74.7373 38.5124 74.9998 37.4937 74.9998ZM59.6843 43.728C59.6843 37.7905 55.6718 36.2092 47.2249 35.0936C38.6905 33.9655 37.8218 33.3811 37.8218 31.3842C37.8218 29.7342 38.5562 27.5311 44.878 27.5311C50.5249 27.5311 52.6062 28.7467 53.4624 32.553C53.5014 32.7288 53.5991 32.8862 53.7393 32.9992C53.8796 33.1122 54.0541 33.1741 54.2343 33.1748H57.7999C57.9088 33.1738 58.0164 33.1508 58.1162 33.1073C58.2161 33.0638 58.3062 33.0007 58.3811 32.9217C58.4566 32.8397 58.5142 32.7429 58.5503 32.6375C58.5863 32.532 58.6 32.4202 58.5905 32.3092C58.0374 25.753 53.6812 22.6967 44.878 22.6967C37.0405 22.6967 32.3655 26.003 32.3655 31.5498C32.3655 37.5655 37.0155 39.228 44.5374 39.9717C53.5374 40.853 54.2343 42.1686 54.2343 43.9373C54.2343 47.0092 51.7687 48.3186 45.978 48.3186C38.7062 48.3186 37.1062 46.4936 36.5687 42.8748C36.5388 42.6869 36.4427 42.5158 36.2977 42.3926C36.1527 42.2694 35.9683 42.2021 35.778 42.203H32.2249C32.1207 42.2021 32.0174 42.222 31.9209 42.2614C31.8244 42.3008 31.7367 42.359 31.6629 42.4325C31.5891 42.506 31.5306 42.5935 31.4908 42.6898C31.451 42.7861 31.4307 42.8894 31.4312 42.9936C31.4312 47.6248 33.9499 53.1436 45.978 53.1436C54.6905 53.1467 59.6843 49.7186 59.6843 43.728Z" fill="#449D46"/>
</g>
<defs>
<clipPath id="clip0">
<rect width="75" height="75" fill="white"/>
</clipPath>
</defs>
</svg>
