<svg width="75" height="91" viewBox="0 0 75 91" fill="none" xmlns="http://www.w3.org/2000/svg">
<path d="M4.966 78.9C5.75467 78.9 6.43933 79.03 7.02 79.29C7.60933 79.55 8.06 79.9227 8.372 80.408C8.684 80.8933 8.84 81.4697 8.84 82.137C8.84 82.7957 8.684 83.372 8.372 83.866C8.06 84.3513 7.60933 84.724 7.02 84.984C6.43933 85.244 5.75467 85.374 4.966 85.374H2.912V88H1.222V78.9H4.966ZM4.888 83.944C5.62467 83.944 6.18367 83.788 6.565 83.476C6.94633 83.164 7.137 82.7177 7.137 82.137C7.137 81.5563 6.94633 81.11 6.565 80.798C6.18367 80.486 5.62467 80.33 4.888 80.33H2.912V83.944H4.888ZM14.4376 80.98C15.313 80.98 16.015 81.2357 16.5436 81.747C17.0723 82.2583 17.3366 83.0167 17.3366 84.022V88H15.7116V84.23C15.7116 83.6233 15.5686 83.1683 15.2826 82.865C14.9966 82.553 14.5893 82.397 14.0606 82.397C13.4626 82.397 12.9903 82.579 12.6436 82.943C12.297 83.2983 12.1236 83.814 12.1236 84.49V88H10.4986V78.354H12.1236V81.864C12.3923 81.578 12.7216 81.3613 13.1116 81.214C13.5103 81.058 13.9523 80.98 14.4376 80.98ZM22.5815 88.091C21.8795 88.091 21.2468 87.9393 20.6835 87.636C20.1202 87.3327 19.6782 86.9123 19.3575 86.375C19.0455 85.829 18.8895 85.2137 18.8895 84.529C18.8895 83.8443 19.0455 83.2333 19.3575 82.696C19.6782 82.1587 20.1202 81.7383 20.6835 81.435C21.2468 81.1317 21.8795 80.98 22.5815 80.98C23.2922 80.98 23.9292 81.1317 24.4925 81.435C25.0558 81.7383 25.4935 82.1587 25.8055 82.696C26.1262 83.2333 26.2865 83.8443 26.2865 84.529C26.2865 85.2137 26.1262 85.829 25.8055 86.375C25.4935 86.9123 25.0558 87.3327 24.4925 87.636C23.9292 87.9393 23.2922 88.091 22.5815 88.091ZM22.5815 86.7C23.1795 86.7 23.6735 86.5007 24.0635 86.102C24.4535 85.7033 24.6485 85.179 24.6485 84.529C24.6485 83.879 24.4535 83.3547 24.0635 82.956C23.6735 82.5573 23.1795 82.358 22.5815 82.358C21.9835 82.358 21.4895 82.5573 21.0995 82.956C20.7182 83.3547 20.5275 83.879 20.5275 84.529C20.5275 85.179 20.7182 85.7033 21.0995 86.102C21.4895 86.5007 21.9835 86.7 22.5815 86.7ZM32.0134 87.623C31.8227 87.779 31.5887 87.896 31.3114 87.974C31.0427 88.052 30.7567 88.091 30.4534 88.091C29.6907 88.091 29.1014 87.8917 28.6854 87.493C28.2694 87.0943 28.0614 86.5137 28.0614 85.751V82.41H26.9174V81.11H28.0614V79.524H29.6864V81.11H31.5454V82.41H29.6864V85.712C29.6864 86.05 29.7687 86.31 29.9334 86.492C30.0981 86.6653 30.3364 86.752 30.6484 86.752C31.0124 86.752 31.3157 86.6567 31.5584 86.466L32.0134 87.623ZM36.2417 88.091C35.5397 88.091 34.907 87.9393 34.3437 87.636C33.7803 87.3327 33.3383 86.9123 33.0177 86.375C32.7057 85.829 32.5497 85.2137 32.5497 84.529C32.5497 83.8443 32.7057 83.2333 33.0177 82.696C33.3383 82.1587 33.7803 81.7383 34.3437 81.435C34.907 81.1317 35.5397 80.98 36.2417 80.98C36.9523 80.98 37.5893 81.1317 38.1527 81.435C38.716 81.7383 39.1537 82.1587 39.4657 82.696C39.7863 83.2333 39.9467 83.8443 39.9467 84.529C39.9467 85.2137 39.7863 85.829 39.4657 86.375C39.1537 86.9123 38.716 87.3327 38.1527 87.636C37.5893 87.9393 36.9523 88.091 36.2417 88.091ZM36.2417 86.7C36.8397 86.7 37.3337 86.5007 37.7237 86.102C38.1137 85.7033 38.3087 85.179 38.3087 84.529C38.3087 83.879 38.1137 83.3547 37.7237 82.956C37.3337 82.5573 36.8397 82.358 36.2417 82.358C35.6437 82.358 35.1497 82.5573 34.7597 82.956C34.3783 83.3547 34.1877 83.879 34.1877 84.529C34.1877 85.179 34.3783 85.7033 34.7597 86.102C35.1497 86.5007 35.6437 86.7 36.2417 86.7ZM44.4776 88.13C43.7756 88.13 43.0952 88.0303 42.4366 87.831C41.7866 87.6317 41.2709 87.3673 40.8896 87.038L41.4746 85.725C41.8472 86.0197 42.3022 86.2623 42.8396 86.453C43.3856 86.635 43.9316 86.726 44.4776 86.726C45.1536 86.726 45.6562 86.6177 45.9856 86.401C46.3236 86.1843 46.4926 85.8983 46.4926 85.543C46.4926 85.283 46.3972 85.0707 46.2066 84.906C46.0246 84.7327 45.7906 84.5983 45.5046 84.503C45.2186 84.4077 44.8286 84.2993 44.3346 84.178C43.6412 84.0133 43.0779 83.8487 42.6446 83.684C42.2199 83.5193 41.8516 83.2637 41.5396 82.917C41.2362 82.5617 41.0846 82.085 41.0846 81.487C41.0846 80.9843 41.2189 80.5293 41.4876 80.122C41.7649 79.706 42.1766 79.3767 42.7226 79.134C43.2772 78.8913 43.9532 78.77 44.7506 78.77C45.3052 78.77 45.8512 78.8393 46.3886 78.978C46.9259 79.1167 47.3896 79.316 47.7796 79.576L47.2466 80.889C46.8479 80.655 46.4319 80.4773 45.9986 80.356C45.5652 80.2347 45.1449 80.174 44.7376 80.174C44.0702 80.174 43.5719 80.2867 43.2426 80.512C42.9219 80.7373 42.7616 81.0363 42.7616 81.409C42.7616 81.669 42.8526 81.8813 43.0346 82.046C43.2252 82.2107 43.4636 82.3407 43.7496 82.436C44.0356 82.5313 44.4256 82.6397 44.9196 82.761C45.5956 82.917 46.1502 83.0817 46.5836 83.255C47.0169 83.4197 47.3852 83.6753 47.6886 84.022C48.0006 84.3687 48.1566 84.8367 48.1566 85.426C48.1566 85.9287 48.0179 86.3837 47.7406 86.791C47.4719 87.1983 47.0602 87.5233 46.5056 87.766C45.9509 88.0087 45.2749 88.13 44.4776 88.13ZM53.6154 80.98C54.4907 80.98 55.1927 81.2357 55.7214 81.747C56.25 82.2583 56.5144 83.0167 56.5144 84.022V88H54.8894V84.23C54.8894 83.6233 54.7464 83.1683 54.4604 82.865C54.1744 82.553 53.767 82.397 53.2384 82.397C52.6404 82.397 52.168 82.579 51.8214 82.943C51.4747 83.2983 51.3014 83.814 51.3014 84.49V88H49.6764V78.354H51.3014V81.864C51.57 81.578 51.8994 81.3613 52.2894 81.214C52.688 81.058 53.13 80.98 53.6154 80.98ZM61.7592 88.091C61.0572 88.091 60.4246 87.9393 59.8612 87.636C59.2979 87.3327 58.8559 86.9123 58.5352 86.375C58.2232 85.829 58.0672 85.2137 58.0672 84.529C58.0672 83.8443 58.2232 83.2333 58.5352 82.696C58.8559 82.1587 59.2979 81.7383 59.8612 81.435C60.4246 81.1317 61.0572 80.98 61.7592 80.98C62.4699 80.98 63.1069 81.1317 63.6702 81.435C64.2336 81.7383 64.6712 82.1587 64.9832 82.696C65.3039 83.2333 65.4642 83.8443 65.4642 84.529C65.4642 85.2137 65.3039 85.829 64.9832 86.375C64.6712 86.9123 64.2336 87.3327 63.6702 87.636C63.1069 87.9393 62.4699 88.091 61.7592 88.091ZM61.7592 86.7C62.3572 86.7 62.8512 86.5007 63.2412 86.102C63.6312 85.7033 63.8262 85.179 63.8262 84.529C63.8262 83.879 63.6312 83.3547 63.2412 82.956C62.8512 82.5573 62.3572 82.358 61.7592 82.358C61.1612 82.358 60.6672 82.5573 60.2772 82.956C59.8959 83.3547 59.7052 83.879 59.7052 84.529C59.7052 85.179 59.8959 85.7033 60.2772 86.102C60.6672 86.5007 61.1612 86.7 61.7592 86.7ZM70.8661 80.98C71.5421 80.98 72.1445 81.1273 72.6731 81.422C73.2105 81.7167 73.6308 82.1327 73.9341 82.67C74.2375 83.2073 74.3891 83.827 74.3891 84.529C74.3891 85.231 74.2375 85.855 73.9341 86.401C73.6308 86.9383 73.2105 87.3543 72.6731 87.649C72.1445 87.9437 71.5421 88.091 70.8661 88.091C69.9301 88.091 69.1891 87.779 68.6431 87.155V90.522H67.0181V81.058H68.5651V81.968C68.8338 81.6387 69.1631 81.3917 69.5531 81.227C69.9518 81.0623 70.3895 80.98 70.8661 80.98ZM70.6841 86.7C71.2821 86.7 71.7718 86.5007 72.1531 86.102C72.5431 85.7033 72.7381 85.179 72.7381 84.529C72.7381 83.879 72.5431 83.3547 72.1531 82.956C71.7718 82.5573 71.2821 82.358 70.6841 82.358C70.2941 82.358 69.9431 82.449 69.6311 82.631C69.3191 82.8043 69.0721 83.0557 68.8901 83.385C68.7081 83.7143 68.6171 84.0957 68.6171 84.529C68.6171 84.9623 68.7081 85.3437 68.8901 85.673C69.0721 86.0023 69.3191 86.258 69.6311 86.44C69.9431 86.6133 70.2941 86.7 70.6841 86.7Z" fill="#31C5F0"/>
<path d="M7.42236 8.24316H67.577V66.7572H7.42236V8.24316Z" fill="#0C0824"/>
<path d="M7.42266 8.24297H67.5773V66.757H7.42266V8.24297ZM4.6875 69.4922H70.3125V5.50781H4.6875V69.4922ZM48.9305 31.7578C46.7695 31.7578 46.0312 32.8523 46.0312 33.7547C46.0312 34.7391 46.5234 35.4234 49.4227 36.9258C53.7164 39.0047 55.0477 40.9992 55.0477 43.9266C55.0477 48.3023 51.7125 50.6531 47.2008 50.6531C45.2645 50.7249 43.34 50.3226 41.5945 49.4812C41.4023 49.3992 41.3766 49.2633 41.3766 49.043V45.0187C41.3766 44.7445 41.5125 44.6625 41.7047 44.8008C43.3439 45.8549 45.2519 46.4147 47.2008 46.4133C49.3617 46.4133 50.2641 45.5109 50.2641 44.2805C50.2641 43.2961 49.6359 42.4219 46.8727 40.9992C42.9891 39.1406 41.3766 37.2492 41.3766 34.1086C41.3766 30.5813 44.1375 27.6563 48.9234 27.6563C50.5894 27.5847 52.2529 27.8452 53.8172 28.4227C53.9073 28.4811 53.9802 28.5625 54.0284 28.6585C54.0765 28.7545 54.0983 28.8616 54.0914 28.9688V32.7188C54.0914 32.9367 53.9555 33.075 53.6812 32.993C52.2355 32.1607 50.5914 31.7355 48.9234 31.7625L48.9305 31.7578ZM25.4133 35.0109C26.0414 35.0648 26.5336 35.0648 27.6281 35.0648C30.8273 35.0648 33.8344 33.9445 33.8344 29.5969C33.8344 26.1234 31.6734 24.375 28.0383 24.375C26.9438 24.375 25.9055 24.4289 25.4133 24.457V35.0109ZM20.5453 20.4797C20.5453 20.2875 20.9273 20.1516 21.1477 20.1516C23.498 20.0555 25.8501 20.0102 28.2023 20.0156C35.7773 20.0156 38.7305 24.1711 38.7305 29.4773C38.7305 36.4219 33.6984 39.4031 27.5203 39.4031C26.482 39.4031 26.1258 39.3492 25.3875 39.3492V49.8492C25.3875 50.0672 25.3055 50.1773 25.0594 50.1773H20.8758C20.6578 50.1773 20.5477 50.0953 20.5477 49.8492V20.4914L20.5453 20.4797Z" fill="#31C5F0"/>
</svg>
