<svg width="75" height="91" viewBox="0 0 75 91" fill="none" xmlns="http://www.w3.org/2000/svg">
<path d="M37.1824 0.0214844C18.1887 0.0214844 19.3746 8.2906 19.3746 8.2906L19.3957 16.8577H37.5211V19.4297H12.1966C12.1966 19.4297 0.0424805 18.0459 0.0424805 37.2856C0.0424805 56.5259 10.6509 55.8435 10.6509 55.8435H16.9819V46.9153C16.9819 46.9153 16.6406 36.2653 27.421 36.2653H45.3981C45.3981 36.2653 55.4982 36.4291 55.4982 26.4656V9.99148C55.4982 9.99148 57.0322 0.0214844 37.1824 0.0214844ZM27.1881 5.78266C27.6164 5.78227 28.0406 5.86668 28.4364 6.03105C28.8322 6.19543 29.1918 6.43654 29.4946 6.74059C29.7975 7.04464 30.0377 7.40567 30.2014 7.80301C30.3651 8.20034 30.4492 8.62619 30.4488 9.05619C30.4492 9.48618 30.3651 9.91204 30.2014 10.3094C30.0377 10.7067 29.7975 11.0677 29.4946 11.3718C29.1918 11.6758 28.8322 11.917 28.4364 12.0813C28.0406 12.2457 27.6164 12.3301 27.1881 12.3297C26.7598 12.3301 26.3356 12.2457 25.9398 12.0813C25.544 11.917 25.1844 11.6758 24.8815 11.3718C24.5787 11.0677 24.3385 10.7067 24.1748 10.3094C24.011 9.91204 23.927 9.48618 23.9273 9.05619C23.927 8.62619 24.011 8.20034 24.1748 7.80301C24.3385 7.40567 24.5787 7.04464 24.8815 6.74059C25.1844 6.43654 25.544 6.19543 25.9398 6.03105C26.3356 5.86668 26.7598 5.78227 27.1881 5.78266Z" fill="url(#paint0_linear)"/>
<path d="M37.7215 74.743C56.7153 74.743 55.5293 66.4739 55.5293 66.4739L55.5082 57.9071H37.3826V55.3351H62.7071C62.7071 55.3351 74.8612 56.7189 74.8612 37.4786C74.8612 18.2386 64.2528 18.921 64.2528 18.921H57.9217V27.8489C57.9217 27.8489 58.263 38.4989 47.4827 38.4989H29.5055C29.5055 38.4989 19.4054 38.3351 19.4054 48.2989V64.7733C19.4054 64.7733 17.8717 74.743 37.7212 74.743H37.7215ZM47.7159 68.9824C47.2875 68.9828 46.8634 68.8984 46.4676 68.734C46.0718 68.5697 45.7122 68.3285 45.4093 68.0245C45.1064 67.7204 44.8663 67.3594 44.7025 66.9621C44.5388 66.5647 44.4547 66.1389 44.4551 65.7089C44.4547 65.2789 44.5387 64.853 44.7025 64.4556C44.8662 64.0583 45.1063 63.6972 45.4092 63.3931C45.7121 63.089 46.0717 62.8479 46.4675 62.6835C46.8633 62.5191 47.2875 62.4347 47.7159 62.4351C48.1442 62.4347 48.5684 62.5191 48.9641 62.6835C49.3599 62.8478 49.7195 63.089 50.0224 63.393C50.3253 63.6971 50.5654 64.0581 50.7292 64.4554C50.8929 64.8528 50.977 65.2786 50.9766 65.7086C50.977 66.1386 50.8929 66.5644 50.7292 66.9618C50.5654 67.3591 50.3253 67.7201 50.0224 68.0242C49.7195 68.3283 49.3599 68.5694 48.9641 68.7337C48.5684 68.8981 48.1442 68.9825 47.7159 68.9821V68.9824Z" fill="url(#paint1_linear)"/>
<path d="M17.966 78.9C18.7547 78.9 19.4393 79.03 20.02 79.29C20.6093 79.55 21.06 79.9227 21.372 80.408C21.684 80.8933 21.84 81.4697 21.84 82.137C21.84 82.7957 21.684 83.372 21.372 83.866C21.06 84.3513 20.6093 84.724 20.02 84.984C19.4393 85.244 18.7547 85.374 17.966 85.374H15.912V88H14.222V78.9H17.966ZM17.888 83.944C18.6247 83.944 19.1837 83.788 19.565 83.476C19.9463 83.164 20.137 82.7177 20.137 82.137C20.137 81.5563 19.9463 81.11 19.565 80.798C19.1837 80.486 18.6247 80.33 17.888 80.33H15.912V83.944H17.888ZM29.9351 81.058L26.6851 88.559C26.3818 89.313 26.0135 89.8417 25.5801 90.145C25.1468 90.457 24.6225 90.613 24.0071 90.613C23.6605 90.613 23.3181 90.5567 22.9801 90.444C22.6421 90.3313 22.3648 90.1753 22.1481 89.976L22.7981 88.78C22.9541 88.9273 23.1361 89.0443 23.3441 89.131C23.5608 89.2177 23.7775 89.261 23.9941 89.261C24.2801 89.261 24.5141 89.1873 24.6961 89.04C24.8868 88.8927 25.0601 88.6457 25.2161 88.299L25.3331 88.026L22.3041 81.058H23.9941L26.1781 86.193L28.3751 81.058H29.9351ZM35.3142 87.623C35.1235 87.779 34.8895 87.896 34.6122 87.974C34.3435 88.052 34.0575 88.091 33.7542 88.091C32.9915 88.091 32.4022 87.8917 31.9862 87.493C31.5702 87.0943 31.3622 86.5137 31.3622 85.751V82.41H30.2182V81.11H31.3622V79.524H32.9872V81.11H34.8462V82.41H32.9872V85.712C32.9872 86.05 33.0695 86.31 33.2342 86.492C33.3989 86.6653 33.6372 86.752 33.9492 86.752C34.3132 86.752 34.6165 86.6567 34.8592 86.466L35.3142 87.623ZM40.59 80.98C41.4653 80.98 42.1673 81.2357 42.696 81.747C43.2246 82.2583 43.489 83.0167 43.489 84.022V88H41.864V84.23C41.864 83.6233 41.721 83.1683 41.435 82.865C41.149 82.553 40.7416 82.397 40.213 82.397C39.615 82.397 39.1426 82.579 38.796 82.943C38.4493 83.2983 38.276 83.814 38.276 84.49V88H36.651V78.354H38.276V81.864C38.5446 81.578 38.874 81.3613 39.264 81.214C39.6626 81.058 40.1046 80.98 40.59 80.98ZM48.7339 88.091C48.0319 88.091 47.3992 87.9393 46.8359 87.636C46.2725 87.3327 45.8305 86.9123 45.5099 86.375C45.1979 85.829 45.0419 85.2137 45.0419 84.529C45.0419 83.8443 45.1979 83.2333 45.5099 82.696C45.8305 82.1587 46.2725 81.7383 46.8359 81.435C47.3992 81.1317 48.0319 80.98 48.7339 80.98C49.4445 80.98 50.0815 81.1317 50.6449 81.435C51.2082 81.7383 51.6459 82.1587 51.9579 82.696C52.2785 83.2333 52.4389 83.8443 52.4389 84.529C52.4389 85.2137 52.2785 85.829 51.9579 86.375C51.6459 86.9123 51.2082 87.3327 50.6449 87.636C50.0815 87.9393 49.4445 88.091 48.7339 88.091ZM48.7339 86.7C49.3319 86.7 49.8259 86.5007 50.2159 86.102C50.6059 85.7033 50.8009 85.179 50.8009 84.529C50.8009 83.879 50.6059 83.3547 50.2159 82.956C49.8259 82.5573 49.3319 82.358 48.7339 82.358C48.1359 82.358 47.6419 82.5573 47.2519 82.956C46.8705 83.3547 46.6799 83.879 46.6799 84.529C46.6799 85.179 46.8705 85.7033 47.2519 86.102C47.6419 86.5007 48.1359 86.7 48.7339 86.7ZM57.9318 80.98C58.8071 80.98 59.5091 81.2357 60.0378 81.747C60.5664 82.2583 60.8308 83.0167 60.8308 84.022V88H59.2058V84.23C59.2058 83.6233 59.0628 83.1683 58.7768 82.865C58.4908 82.553 58.0834 82.397 57.5548 82.397C56.9568 82.397 56.4844 82.579 56.1378 82.943C55.7911 83.2983 55.6178 83.814 55.6178 84.49V88H53.9928V81.058H55.5398V81.955C55.8084 81.6343 56.1464 81.3917 56.5538 81.227C56.9611 81.0623 57.4204 80.98 57.9318 80.98Z" fill="#3770A1"/>
<defs>
<linearGradient id="paint0_linear" x1="7.23256" y1="6.74226" x2="44.4542" y2="43.4486" gradientUnits="userSpaceOnUse">
<stop stop-color="#387EB8"/>
<stop offset="1" stop-color="#366994"/>
</linearGradient>
<linearGradient id="paint1_linear" x1="29.9908" y1="30.4062" x2="69.9553" y2="68.0384" gradientUnits="userSpaceOnUse">
<stop stop-color="#FFE052"/>
<stop offset="1" stop-color="#FFC331"/>
</linearGradient>
</defs>
</svg>
