<svg width="78" height="91" viewBox="0 0 78 91" fill="none" xmlns="http://www.w3.org/2000/svg">
<path d="M27.176 88L25.317 85.335C25.239 85.3437 25.122 85.348 24.966 85.348H22.912V88H21.222V78.9H24.966C25.7547 78.9 26.4393 79.03 27.02 79.29C27.6093 79.55 28.06 79.9227 28.372 80.408C28.684 80.8933 28.84 81.4697 28.84 82.137C28.84 82.8217 28.671 83.411 28.333 83.905C28.0037 84.399 27.527 84.7673 26.903 85.01L28.996 88H27.176ZM27.137 82.137C27.137 81.5563 26.9463 81.11 26.565 80.798C26.1837 80.486 25.6247 80.33 24.888 80.33H22.912V83.957H24.888C25.6247 83.957 26.1837 83.801 26.565 83.489C26.9463 83.1683 27.137 82.7177 27.137 82.137ZM37.1008 84.568C37.1008 84.6807 37.0921 84.841 37.0748 85.049H31.6278C31.7231 85.5603 31.9701 85.9677 32.3688 86.271C32.7761 86.5657 33.2788 86.713 33.8768 86.713C34.6395 86.713 35.2678 86.4617 35.7618 85.959L36.6328 86.96C36.3208 87.3327 35.9265 87.6143 35.4498 87.805C34.9731 87.9957 34.4358 88.091 33.8378 88.091C33.0751 88.091 32.4035 87.9393 31.8228 87.636C31.2421 87.3327 30.7915 86.9123 30.4708 86.375C30.1588 85.829 30.0028 85.2137 30.0028 84.529C30.0028 83.853 30.1545 83.2463 30.4578 82.709C30.7698 82.163 31.1988 81.7383 31.7448 81.435C32.2908 81.1317 32.9061 80.98 33.5908 80.98C34.2668 80.98 34.8691 81.1317 35.3978 81.435C35.9351 81.7297 36.3511 82.15 36.6458 82.696C36.9491 83.2333 37.1008 83.8573 37.1008 84.568ZM33.5908 82.28C33.0708 82.28 32.6288 82.436 32.2648 82.748C31.9095 83.0513 31.6928 83.4587 31.6148 83.97H35.5538C35.4845 83.4673 35.2721 83.06 34.9168 82.748C34.5615 82.436 34.1195 82.28 33.5908 82.28ZM41.1233 80.98C42.1459 80.98 42.9259 81.227 43.4633 81.721C44.0093 82.2063 44.2823 82.943 44.2823 83.931V88H42.7483V87.155C42.5489 87.4583 42.2629 87.6923 41.8903 87.857C41.5263 88.013 41.0843 88.091 40.5643 88.091C40.0443 88.091 39.5893 88.0043 39.1993 87.831C38.8093 87.649 38.5059 87.402 38.2893 87.09C38.0813 86.7693 37.9773 86.4097 37.9773 86.011C37.9773 85.387 38.2069 84.8887 38.6663 84.516C39.1343 84.1347 39.8666 83.944 40.8633 83.944H42.6573V83.84C42.6573 83.3547 42.5099 82.982 42.2153 82.722C41.9293 82.462 41.5003 82.332 40.9283 82.332C40.5383 82.332 40.1526 82.3927 39.7713 82.514C39.3986 82.6353 39.0823 82.8043 38.8223 83.021L38.1853 81.838C38.5493 81.5607 38.9869 81.3483 39.4983 81.201C40.0096 81.0537 40.5513 80.98 41.1233 80.98ZM40.9023 86.908C41.3096 86.908 41.6693 86.817 41.9813 86.635C42.3019 86.4443 42.5273 86.1757 42.6573 85.829V85.023H40.9803C40.0443 85.023 39.5763 85.3307 39.5763 85.946C39.5763 86.2407 39.6933 86.4747 39.9273 86.648C40.1613 86.8213 40.4863 86.908 40.9023 86.908ZM49.6162 88.091C48.8969 88.091 48.2512 87.9393 47.6792 87.636C47.1072 87.3327 46.6609 86.9123 46.3402 86.375C46.0196 85.829 45.8592 85.2137 45.8592 84.529C45.8592 83.8443 46.0196 83.2333 46.3402 82.696C46.6609 82.1587 47.1029 81.7383 47.6662 81.435C48.2382 81.1317 48.8882 80.98 49.6162 80.98C50.3009 80.98 50.8989 81.1187 51.4102 81.396C51.9302 81.6733 52.3202 82.072 52.5802 82.592L51.3322 83.32C51.1329 82.9993 50.8816 82.761 50.5782 82.605C50.2836 82.4403 49.9586 82.358 49.6032 82.358C48.9966 82.358 48.4939 82.5573 48.0952 82.956C47.6966 83.346 47.4972 83.8703 47.4972 84.529C47.4972 85.1877 47.6922 85.7163 48.0822 86.115C48.4809 86.505 48.9879 86.7 49.6032 86.7C49.9586 86.7 50.2836 86.622 50.5782 86.466C50.8816 86.3013 51.1329 86.0587 51.3322 85.738L52.5802 86.466C52.3116 86.986 51.9172 87.389 51.3972 87.675C50.8859 87.9523 50.2922 88.091 49.6162 88.091ZM58.2468 87.623C58.0561 87.779 57.8221 87.896 57.5448 87.974C57.2761 88.052 56.9901 88.091 56.6868 88.091C55.9241 88.091 55.3348 87.8917 54.9188 87.493C54.5028 87.0943 54.2948 86.5137 54.2948 85.751V82.41H53.1508V81.11H54.2948V79.524H55.9198V81.11H57.7788V82.41H55.9198V85.712C55.9198 86.05 56.0021 86.31 56.1668 86.492C56.3315 86.6653 56.5698 86.752 56.8818 86.752C57.2458 86.752 57.5491 86.6567 57.7918 86.466L58.2468 87.623Z" fill="#00D8FF"/>
<g clip-path="url(#clip0)">
<path d="M64.1315 22.6884C63.3014 22.4011 62.4643 22.135 61.6209 21.8903C61.7626 21.3063 61.893 20.7295 62.0088 20.1628C63.9094 10.8564 62.6669 3.35908 58.4229 0.890594C54.3538 -1.47586 47.6991 0.991706 40.9783 6.89156C40.316 7.47405 39.6683 8.07333 39.036 8.68883C38.6126 8.27955 38.1818 7.8782 37.7438 7.48501C30.7 1.17672 23.6398 -1.48201 19.4004 0.99355C15.3349 3.36738 14.1311 10.4154 15.8422 19.2352C16.0125 20.1087 16.2047 20.9777 16.4187 21.8414C15.4193 22.1278 14.455 22.4327 13.5321 22.7573C5.27384 25.6615 0 30.2128 0 34.9337C0 39.8096 5.6617 44.7001 14.263 47.6656C14.9604 47.905 15.6635 48.1269 16.3718 48.331C16.1417 49.2611 15.9375 50.1976 15.7594 51.1393C14.1281 59.8061 15.402 66.6876 19.4564 69.0463C23.6441 71.4823 30.6726 68.9787 37.5162 62.9443C38.0711 62.4537 38.6138 61.9492 39.1438 61.4313C39.8286 62.0977 40.5317 62.7448 41.2523 63.3718C47.8816 69.1256 54.4288 71.4491 58.4793 69.0838C62.6629 66.6409 64.0228 59.2483 62.2574 50.2542C62.1183 49.5496 61.9624 48.8485 61.7897 48.1515C62.2833 48.0039 62.7678 47.8521 63.24 47.6942C72.182 44.706 78 39.8747 78 34.9337C78 30.1956 72.5558 25.6136 64.1315 22.6884ZM62.1922 44.5041C61.7656 44.6464 61.3281 44.7837 60.882 44.9174C59.8949 41.7651 58.5628 38.4134 56.9324 34.95C58.4881 31.5694 59.769 28.2603 60.7285 25.1286C61.5265 25.3616 62.3007 25.6071 63.0472 25.8662C70.2652 28.3728 74.6679 32.0783 74.6679 34.9337C74.6679 37.9751 69.913 41.9234 62.1922 44.5041ZM58.9887 50.907C59.7693 54.8839 59.8805 58.4797 59.3635 61.2908C58.8991 63.8168 57.965 65.5007 56.8096 66.1753C54.3517 67.6105 49.0949 65.745 43.4256 60.824C42.7554 60.2411 42.1014 59.6395 41.4643 59.02C43.6623 56.5954 45.8588 53.7769 48.0026 50.6464C51.7734 50.3089 55.3358 49.757 58.5664 49.0037C58.7255 49.6513 58.8668 50.2862 58.9887 50.907ZM26.5919 65.9272C24.1904 66.7825 22.2775 66.8071 21.1212 66.1347C18.6609 64.7034 17.6381 59.1779 19.0332 51.7663C19.1991 50.8905 19.389 50.0195 19.6027 49.1543C22.7976 49.8673 26.3341 50.3799 30.1138 50.6891C32.2722 53.7523 34.5321 56.5677 36.8096 59.0332C36.3256 59.5056 35.8301 59.9659 35.3236 60.4137C32.2972 63.082 29.2646 64.9751 26.5919 65.9272ZM15.341 44.4853C11.5376 43.1739 8.39658 41.4698 6.24366 39.6101C4.30889 37.9391 3.33237 36.2799 3.33237 34.9337C3.33237 32.0688 7.56661 28.4146 14.629 25.9311C15.486 25.6299 16.383 25.3456 17.3139 25.0788C18.2901 28.2812 19.5704 31.6296 21.1155 35.0155C19.5503 38.4515 18.2517 41.8533 17.266 45.0935C16.6195 44.9067 15.9777 44.7039 15.341 44.4853ZM19.1124 18.5895C17.6466 11.0332 18.6201 5.33308 21.0701 3.90245C23.6794 2.37869 29.4496 4.55122 35.5314 9.99837C35.928 10.3544 36.3182 10.7176 36.7017 11.0879C34.4355 13.5425 32.1963 16.3371 30.0571 19.3821C26.3887 19.7251 22.8772 20.2759 19.6487 21.0138C19.4498 20.2105 19.271 19.4022 19.1124 18.5898V18.5895ZM52.7582 26.9699C51.9956 25.6412 51.2048 24.3293 50.3862 23.0351C52.8749 23.3526 55.2593 23.7739 57.4985 24.289C56.8264 26.4624 55.9885 28.7346 55.0022 31.0641C54.2813 29.6844 53.5331 28.3194 52.7582 26.9699ZM39.0375 13.49C40.5743 15.1695 42.1136 17.0446 43.6276 19.0791C40.5563 18.9328 37.48 18.9322 34.4087 19.0773C35.9242 17.0615 37.4766 15.1889 39.0375 13.49ZM25.2287 26.9929C24.4635 28.3316 23.7293 29.6881 23.0268 31.0614C22.0566 28.7401 21.2264 26.4575 20.5484 24.2533C22.7739 23.7512 25.1471 23.3406 27.6199 23.0289C26.7922 24.3311 25.9949 25.6527 25.2287 26.9926V26.9929ZM27.6909 47.0777C25.1361 46.79 22.7273 46.4006 20.5024 45.9119C21.191 43.6684 22.0396 41.3373 23.0307 38.9662C23.736 40.3405 24.4733 41.6979 25.2418 43.0372C26.0322 44.414 26.8506 45.7626 27.6909 47.0777ZM39.1295 56.6142C37.55 54.8956 35.9748 52.9941 34.4364 50.9491C35.93 51.0081 37.4525 51.0382 39 51.0382C40.5899 51.0382 42.1614 51.0023 43.7083 50.9328C42.1895 53.0147 40.656 54.9189 39.1295 56.6142ZM55.0336 38.8451C56.0762 41.2423 56.9549 43.5612 57.6527 45.7663C55.3913 46.2869 52.9495 46.7061 50.3767 47.0174C51.2011 45.6991 51.9995 44.3644 52.7713 43.0141C53.5559 41.6416 54.3102 40.2516 55.0336 38.8451ZM49.885 41.3349C48.7034 43.4052 47.4555 45.4362 46.1431 47.4246C43.7658 47.5945 41.3833 47.6788 39 47.6776C36.5726 47.6776 34.2115 47.6013 31.938 47.4526C30.5913 45.4687 29.3195 43.4342 28.1254 41.3533H28.1257C26.9372 39.2834 25.827 37.1688 24.7976 35.014C25.8244 32.8586 26.9312 30.743 28.1156 28.6715L28.1153 28.6719C29.2994 26.5999 30.561 24.574 31.8974 22.5987C34.217 22.4216 36.5957 22.3294 38.9997 22.3294H39C41.415 22.3294 43.7967 22.4226 46.1157 22.6008C47.4386 24.5732 48.6922 26.5921 49.874 28.6537C51.0624 30.7206 52.1838 32.8259 53.2365 34.9663C52.1946 37.1286 51.0768 39.2528 49.885 41.3349ZM56.7587 3.80226C59.3705 5.3217 60.3863 11.449 58.7453 19.4842C58.6405 19.9968 58.5229 20.519 58.3949 21.0485C55.1585 20.2949 51.6445 19.7346 47.9654 19.3864C45.8223 16.3079 43.6014 13.509 41.372 11.086C41.9563 10.5179 42.5545 9.96455 43.166 9.42643C48.9246 4.37174 54.3066 2.37593 56.7587 3.80226ZM39 27.9081C42.8467 27.9081 45.9652 31.0537 45.9652 34.9337C45.9652 38.8138 42.8467 41.9593 39 41.9593C35.1533 41.9593 32.0348 38.8138 32.0348 34.9337C32.0348 31.0537 35.1533 27.9081 39 27.9081Z" fill="#00D8FF"/>
</g>
<defs>
<clipPath id="clip0">
<rect width="78" height="70" fill="white"/>
</clipPath>
</defs>
</svg>
