<svg width="86" height="91" viewBox="0 0 86 91" fill="none" xmlns="http://www.w3.org/2000/svg">
<path d="M7.176 88L5.317 85.335C5.239 85.3437 5.122 85.348 4.966 85.348H2.912V88H1.222V78.9H4.966C5.75467 78.9 6.43933 79.03 7.02 79.29C7.60933 79.55 8.06 79.9227 8.372 80.408C8.684 80.8933 8.84 81.4697 8.84 82.137C8.84 82.8217 8.671 83.411 8.333 83.905C8.00367 84.399 7.527 84.7673 6.903 85.01L8.996 88H7.176ZM7.137 82.137C7.137 81.5563 6.94633 81.11 6.565 80.798C6.18367 80.486 5.62467 80.33 4.888 80.33H2.912V83.957H4.888C5.62467 83.957 6.18367 83.801 6.565 83.489C6.94633 83.1683 7.137 82.7177 7.137 82.137ZM17.1008 84.568C17.1008 84.6807 17.0921 84.841 17.0748 85.049H11.6278C11.7231 85.5603 11.9701 85.9677 12.3688 86.271C12.7761 86.5657 13.2788 86.713 13.8768 86.713C14.6395 86.713 15.2678 86.4617 15.7618 85.959L16.6328 86.96C16.3208 87.3327 15.9265 87.6143 15.4498 87.805C14.9731 87.9957 14.4358 88.091 13.8378 88.091C13.0751 88.091 12.4035 87.9393 11.8228 87.636C11.2421 87.3327 10.7915 86.9123 10.4708 86.375C10.1588 85.829 10.0028 85.2137 10.0028 84.529C10.0028 83.853 10.1545 83.2463 10.4578 82.709C10.7698 82.163 11.1988 81.7383 11.7448 81.435C12.2908 81.1317 12.9061 80.98 13.5908 80.98C14.2668 80.98 14.8691 81.1317 15.3978 81.435C15.9351 81.7297 16.3511 82.15 16.6458 82.696C16.9491 83.2333 17.1008 83.8573 17.1008 84.568ZM13.5908 82.28C13.0708 82.28 12.6288 82.436 12.2648 82.748C11.9095 83.0513 11.6928 83.4587 11.6148 83.97H15.5538C15.4845 83.4673 15.2721 83.06 14.9168 82.748C14.5615 82.436 14.1195 82.28 13.5908 82.28ZM21.1233 80.98C22.1459 80.98 22.9259 81.227 23.4633 81.721C24.0093 82.2063 24.2823 82.943 24.2823 83.931V88H22.7483V87.155C22.5489 87.4583 22.2629 87.6923 21.8903 87.857C21.5263 88.013 21.0843 88.091 20.5643 88.091C20.0443 88.091 19.5893 88.0043 19.1993 87.831C18.8093 87.649 18.5059 87.402 18.2893 87.09C18.0813 86.7693 17.9773 86.4097 17.9773 86.011C17.9773 85.387 18.2069 84.8887 18.6663 84.516C19.1343 84.1347 19.8666 83.944 20.8633 83.944H22.6573V83.84C22.6573 83.3547 22.5099 82.982 22.2153 82.722C21.9293 82.462 21.5003 82.332 20.9283 82.332C20.5383 82.332 20.1526 82.3927 19.7713 82.514C19.3986 82.6353 19.0823 82.8043 18.8223 83.021L18.1853 81.838C18.5493 81.5607 18.9869 81.3483 19.4983 81.201C20.0096 81.0537 20.5513 80.98 21.1233 80.98ZM20.9023 86.908C21.3096 86.908 21.6693 86.817 21.9813 86.635C22.3019 86.4443 22.5273 86.1757 22.6573 85.829V85.023H20.9803C20.0443 85.023 19.5763 85.3307 19.5763 85.946C19.5763 86.2407 19.6933 86.4747 19.9273 86.648C20.1613 86.8213 20.4863 86.908 20.9023 86.908ZM29.6162 88.091C28.8969 88.091 28.2512 87.9393 27.6792 87.636C27.1072 87.3327 26.6609 86.9123 26.3402 86.375C26.0196 85.829 25.8592 85.2137 25.8592 84.529C25.8592 83.8443 26.0196 83.2333 26.3402 82.696C26.6609 82.1587 27.1029 81.7383 27.6662 81.435C28.2382 81.1317 28.8882 80.98 29.6162 80.98C30.3009 80.98 30.8989 81.1187 31.4102 81.396C31.9302 81.6733 32.3202 82.072 32.5802 82.592L31.3322 83.32C31.1329 82.9993 30.8816 82.761 30.5782 82.605C30.2836 82.4403 29.9586 82.358 29.6032 82.358C28.9966 82.358 28.4939 82.5573 28.0952 82.956C27.6966 83.346 27.4972 83.8703 27.4972 84.529C27.4972 85.1877 27.6922 85.7163 28.0822 86.115C28.4809 86.505 28.9879 86.7 29.6032 86.7C29.9586 86.7 30.2836 86.622 30.5782 86.466C30.8816 86.3013 31.1329 86.0587 31.3322 85.738L32.5802 86.466C32.3116 86.986 31.9172 87.389 31.3972 87.675C30.8859 87.9523 30.2922 88.091 29.6162 88.091ZM38.2468 87.623C38.0561 87.779 37.8221 87.896 37.5448 87.974C37.2761 88.052 36.9901 88.091 36.6868 88.091C35.9241 88.091 35.3348 87.8917 34.9188 87.493C34.5028 87.0943 34.2948 86.5137 34.2948 85.751V82.41H33.1508V81.11H34.2948V79.524H35.9198V81.11H37.7788V82.41H35.9198V85.712C35.9198 86.05 36.0021 86.31 36.1668 86.492C36.3315 86.6653 36.5698 86.752 36.8818 86.752C37.2458 86.752 37.5491 86.6567 37.7918 86.466L38.2468 87.623ZM51.4184 78.9V88H50.0274L45.0094 81.838V88H43.3324V78.9H44.7234L49.7414 85.062V78.9H51.4184ZM56.3528 80.98C57.3754 80.98 58.1554 81.227 58.6928 81.721C59.2388 82.2063 59.5118 82.943 59.5118 83.931V88H57.9778V87.155C57.7784 87.4583 57.4924 87.6923 57.1198 87.857C56.7558 88.013 56.3138 88.091 55.7938 88.091C55.2738 88.091 54.8188 88.0043 54.4288 87.831C54.0388 87.649 53.7354 87.402 53.5188 87.09C53.3108 86.7693 53.2068 86.4097 53.2068 86.011C53.2068 85.387 53.4364 84.8887 53.8958 84.516C54.3638 84.1347 55.0961 83.944 56.0928 83.944H57.8868V83.84C57.8868 83.3547 57.7394 82.982 57.4448 82.722C57.1588 82.462 56.7298 82.332 56.1578 82.332C55.7678 82.332 55.3821 82.3927 55.0008 82.514C54.6281 82.6353 54.3118 82.8043 54.0518 83.021L53.4148 81.838C53.7788 81.5607 54.2164 81.3483 54.7278 81.201C55.2391 81.0537 55.7808 80.98 56.3528 80.98ZM56.1318 86.908C56.5391 86.908 56.8988 86.817 57.2108 86.635C57.5314 86.4443 57.7568 86.1757 57.8868 85.829V85.023H56.2098C55.2738 85.023 54.8058 85.3307 54.8058 85.946C54.8058 86.2407 54.9228 86.4747 55.1568 86.648C55.3908 86.8213 55.7158 86.908 56.1318 86.908ZM65.7703 87.623C65.5796 87.779 65.3456 87.896 65.0683 87.974C64.7996 88.052 64.5136 88.091 64.2103 88.091C63.4476 88.091 62.8583 87.8917 62.4422 87.493C62.0263 87.0943 61.8183 86.5137 61.8183 85.751V82.41H60.6743V81.11H61.8183V79.524H63.4433V81.11H65.3023V82.41H63.4433V85.712C63.4433 86.05 63.5256 86.31 63.6903 86.492C63.8549 86.6653 64.0933 86.752 64.4053 86.752C64.7693 86.752 65.0726 86.6567 65.3153 86.466L65.7703 87.623ZM67.107 81.058H68.732V88H67.107V81.058ZM67.926 79.914C67.6313 79.914 67.3843 79.823 67.185 79.641C66.9857 79.4503 66.886 79.2163 66.886 78.939C66.886 78.6617 66.9857 78.432 67.185 78.25C67.3843 78.0593 67.6313 77.964 67.926 77.964C68.2207 77.964 68.4677 78.055 68.667 78.237C68.8663 78.4103 68.966 78.6313 68.966 78.9C68.966 79.186 68.8663 79.4287 68.667 79.628C68.4763 79.8187 68.2293 79.914 67.926 79.914ZM77.3648 81.058L74.3878 88H72.7108L69.7338 81.058H71.4238L73.5818 86.206L75.8048 81.058H77.3648ZM84.716 84.568C84.716 84.6807 84.7074 84.841 84.69 85.049H79.243C79.3384 85.5603 79.5854 85.9677 79.984 86.271C80.3914 86.5657 80.894 86.713 81.492 86.713C82.2547 86.713 82.883 86.4617 83.377 85.959L84.248 86.96C83.936 87.3327 83.5417 87.6143 83.065 87.805C82.5884 87.9957 82.051 88.091 81.453 88.091C80.6904 88.091 80.0187 87.9393 79.438 87.636C78.8574 87.3327 78.4067 86.9123 78.086 86.375C77.774 85.829 77.618 85.2137 77.618 84.529C77.618 83.853 77.7697 83.2463 78.073 82.709C78.385 82.163 78.814 81.7383 79.36 81.435C79.906 81.1317 80.5214 80.98 81.206 80.98C81.882 80.98 82.4844 81.1317 83.013 81.435C83.5504 81.7297 83.9664 82.15 84.261 82.696C84.5644 83.2333 84.716 83.8573 84.716 84.568ZM81.206 82.28C80.686 82.28 80.244 82.436 79.88 82.748C79.5247 83.0513 79.308 83.4587 79.23 83.97H83.169C83.0997 83.4673 82.8874 83.06 82.532 82.748C82.1767 82.436 81.7347 82.28 81.206 82.28Z" fill="#00D8FF"/>
<g clip-path="url(#clip0)">
<path d="M68.1315 22.6884C67.3014 22.4011 66.4643 22.135 65.6209 21.8903C65.7626 21.3063 65.893 20.7295 66.0088 20.1628C67.9094 10.8564 66.6669 3.35908 62.4229 0.890594C58.3538 -1.47586 51.6991 0.991706 44.9783 6.89156C44.316 7.47405 43.6683 8.07333 43.036 8.68883C42.6126 8.27955 42.1818 7.8782 41.7438 7.48501C34.7 1.17672 27.6398 -1.48201 23.4004 0.99355C19.3349 3.36738 18.1311 10.4154 19.8422 19.2352C20.0125 20.1087 20.2047 20.9777 20.4187 21.8414C19.4193 22.1278 18.455 22.4327 17.5321 22.7573C9.27384 25.6615 4 30.2128 4 34.9337C4 39.8096 9.6617 44.7001 18.263 47.6656C18.9604 47.905 19.6635 48.1269 20.3718 48.331C20.1417 49.2611 19.9375 50.1976 19.7594 51.1393C18.1281 59.8061 19.402 66.6876 23.4564 69.0463C27.6441 71.4823 34.6726 68.9787 41.5162 62.9443C42.0711 62.4537 42.6138 61.9492 43.1438 61.4313C43.8286 62.0977 44.5317 62.7448 45.2523 63.3718C51.8816 69.1256 58.4288 71.4491 62.4793 69.0838C66.6629 66.6409 68.0228 59.2483 66.2574 50.2542C66.1183 49.5496 65.9624 48.8485 65.7897 48.1515C66.2833 48.0039 66.7678 47.8521 67.24 47.6942C76.182 44.706 82 39.8747 82 34.9337C82 30.1956 76.5558 25.6136 68.1315 22.6884ZM66.1922 44.5041C65.7656 44.6464 65.3281 44.7837 64.882 44.9174C63.8949 41.7651 62.5628 38.4134 60.9324 34.95C62.4881 31.5694 63.769 28.2603 64.7285 25.1286C65.5265 25.3616 66.3007 25.6071 67.0472 25.8662C74.2652 28.3728 78.6679 32.0783 78.6679 34.9337C78.6679 37.9751 73.913 41.9234 66.1922 44.5041ZM62.9887 50.907C63.7693 54.8839 63.8805 58.4797 63.3635 61.2908C62.8991 63.8168 61.965 65.5007 60.8096 66.1753C58.3517 67.6105 53.0949 65.745 47.4256 60.824C46.7554 60.2411 46.1014 59.6395 45.4643 59.02C47.6623 56.5954 49.8588 53.7769 52.0026 50.6464C55.7734 50.3089 59.3358 49.757 62.5664 49.0037C62.7255 49.6513 62.8668 50.2862 62.9887 50.907ZM30.5919 65.9272C28.1904 66.7825 26.2775 66.8071 25.1212 66.1347C22.6609 64.7034 21.6381 59.1779 23.0332 51.7663C23.1991 50.8905 23.389 50.0195 23.6027 49.1543C26.7976 49.8673 30.3341 50.3799 34.1138 50.6891C36.2722 53.7523 38.5321 56.5677 40.8096 59.0332C40.3256 59.5056 39.8301 59.9659 39.3236 60.4137C36.2972 63.082 33.2646 64.9751 30.5919 65.9272ZM19.341 44.4853C15.5376 43.1739 12.3966 41.4698 10.2437 39.6101C8.30889 37.9391 7.33237 36.2799 7.33237 34.9337C7.33237 32.0688 11.5666 28.4146 18.629 25.9311C19.486 25.6299 20.383 25.3456 21.3139 25.0788C22.2901 28.2812 23.5704 31.6296 25.1155 35.0155C23.5503 38.4515 22.2517 41.8533 21.266 45.0935C20.6195 44.9067 19.9777 44.7039 19.341 44.4853ZM23.1124 18.5895C21.6466 11.0332 22.6201 5.33308 25.0701 3.90245C27.6794 2.37869 33.4496 4.55122 39.5314 9.99837C39.928 10.3544 40.3182 10.7176 40.7017 11.0879C38.4355 13.5425 36.1963 16.3371 34.0571 19.3821C30.3887 19.7251 26.8772 20.2759 23.6487 21.0138C23.4498 20.2105 23.271 19.4022 23.1124 18.5898V18.5895ZM56.7582 26.9699C55.9956 25.6412 55.2048 24.3293 54.3862 23.0351C56.8749 23.3526 59.2593 23.7739 61.4985 24.289C60.8264 26.4624 59.9885 28.7346 59.0022 31.0641C58.2813 29.6844 57.5331 28.3194 56.7582 26.9699ZM43.0375 13.49C44.5743 15.1695 46.1136 17.0446 47.6276 19.0791C44.5563 18.9328 41.48 18.9322 38.4087 19.0773C39.9242 17.0615 41.4766 15.1889 43.0375 13.49ZM29.2287 26.9929C28.4635 28.3316 27.7293 29.6881 27.0268 31.0614C26.0566 28.7401 25.2264 26.4575 24.5484 24.2533C26.7739 23.7512 29.1471 23.3406 31.6199 23.0289C30.7922 24.3311 29.9949 25.6527 29.2287 26.9926V26.9929ZM31.6909 47.0777C29.1361 46.79 26.7273 46.4006 24.5024 45.9119C25.191 43.6684 26.0396 41.3373 27.0307 38.9662C27.736 40.3405 28.4733 41.6979 29.2418 43.0372C30.0322 44.414 30.8506 45.7626 31.6909 47.0777ZM43.1295 56.6142C41.55 54.8956 39.9748 52.9941 38.4364 50.9491C39.93 51.0081 41.4525 51.0382 43 51.0382C44.5899 51.0382 46.1614 51.0023 47.7083 50.9328C46.1895 53.0147 44.656 54.9189 43.1295 56.6142ZM59.0336 38.8451C60.0762 41.2423 60.9549 43.5612 61.6527 45.7663C59.3913 46.2869 56.9495 46.7061 54.3767 47.0174C55.2011 45.6991 55.9995 44.3644 56.7713 43.0141C57.5559 41.6416 58.3102 40.2516 59.0336 38.8451ZM53.885 41.3349C52.7034 43.4052 51.4555 45.4362 50.1431 47.4246C47.7658 47.5945 45.3833 47.6788 43 47.6776C40.5726 47.6776 38.2115 47.6013 35.938 47.4526C34.5913 45.4687 33.3195 43.4342 32.1254 41.3533H32.1257C30.9372 39.2834 29.827 37.1688 28.7976 35.014C29.8244 32.8586 30.9312 30.743 32.1156 28.6715L32.1153 28.6719C33.2994 26.5999 34.561 24.574 35.8974 22.5987C38.217 22.4216 40.5957 22.3294 42.9997 22.3294H43C45.415 22.3294 47.7967 22.4226 50.1157 22.6008C51.4386 24.5732 52.6922 26.5921 53.874 28.6537C55.0624 30.7206 56.1838 32.8259 57.2365 34.9663C56.1946 37.1286 55.0768 39.2528 53.885 41.3349ZM60.7587 3.80226C63.3705 5.3217 64.3863 11.449 62.7453 19.4842C62.6405 19.9968 62.5229 20.519 62.3949 21.0485C59.1585 20.2949 55.6445 19.7346 51.9654 19.3864C49.8223 16.3079 47.6014 13.509 45.372 11.086C45.9563 10.5179 46.5545 9.96455 47.166 9.42643C52.9246 4.37174 58.3066 2.37593 60.7587 3.80226ZM43 27.9081C46.8467 27.9081 49.9652 31.0537 49.9652 34.9337C49.9652 38.8138 46.8467 41.9593 43 41.9593C39.1533 41.9593 36.0348 38.8138 36.0348 34.9337C36.0348 31.0537 39.1533 27.9081 43 27.9081Z" fill="#00D8FF"/>
</g>
<defs>
<clipPath id="clip0">
<rect width="78" height="70" fill="white" transform="translate(4)"/>
</clipPath>
</defs>
</svg>
