<svg width="75" height="94" viewBox="0 0 75 94" fill="none" xmlns="http://www.w3.org/2000/svg">
<path d="M23.176 91L21.317 88.335C21.239 88.3437 21.122 88.348 20.966 88.348H18.912V91H17.222V81.9H20.966C21.7547 81.9 22.4393 82.03 23.02 82.29C23.6093 82.55 24.06 82.9227 24.372 83.408C24.684 83.8933 24.84 84.4697 24.84 85.137C24.84 85.8217 24.671 86.411 24.333 86.905C24.0037 87.399 23.527 87.7673 22.903 88.01L24.996 91H23.176ZM23.137 85.137C23.137 84.5563 22.9463 84.11 22.565 83.798C22.1837 83.486 21.6247 83.33 20.888 83.33H18.912V86.957H20.888C21.6247 86.957 22.1837 86.801 22.565 86.489C22.9463 86.1683 23.137 85.7177 23.137 85.137ZM33.1008 87.568C33.1008 87.6807 33.0921 87.841 33.0748 88.049H27.6278C27.7231 88.5603 27.9701 88.9677 28.3688 89.271C28.7761 89.5657 29.2788 89.713 29.8768 89.713C30.6395 89.713 31.2678 89.4617 31.7618 88.959L32.6328 89.96C32.3208 90.3327 31.9265 90.6143 31.4498 90.805C30.9731 90.9957 30.4358 91.091 29.8378 91.091C29.0751 91.091 28.4035 90.9393 27.8228 90.636C27.2421 90.3327 26.7915 89.9123 26.4708 89.375C26.1588 88.829 26.0028 88.2137 26.0028 87.529C26.0028 86.853 26.1545 86.2463 26.4578 85.709C26.7698 85.163 27.1988 84.7383 27.7448 84.435C28.2908 84.1317 28.9061 83.98 29.5908 83.98C30.2668 83.98 30.8691 84.1317 31.3978 84.435C31.9351 84.7297 32.3511 85.15 32.6458 85.696C32.9491 86.2333 33.1008 86.8573 33.1008 87.568ZM29.5908 85.28C29.0708 85.28 28.6288 85.436 28.2648 85.748C27.9095 86.0513 27.6928 86.4587 27.6148 86.97H31.5538C31.4845 86.4673 31.2721 86.06 30.9168 85.748C30.5615 85.436 30.1195 85.28 29.5908 85.28ZM41.4607 81.354V91H39.9007V90.103C39.632 90.4323 39.2984 90.6793 38.8997 90.844C38.5097 91.0087 38.0764 91.091 37.5997 91.091C36.9324 91.091 36.33 90.9437 35.7927 90.649C35.264 90.3543 34.848 89.9383 34.5447 89.401C34.2414 88.855 34.0897 88.231 34.0897 87.529C34.0897 86.827 34.2414 86.2073 34.5447 85.67C34.848 85.1327 35.264 84.7167 35.7927 84.422C36.33 84.1273 36.9324 83.98 37.5997 83.98C38.059 83.98 38.4794 84.058 38.8607 84.214C39.242 84.37 39.567 84.604 39.8357 84.916V81.354H41.4607ZM37.7947 89.7C38.1847 89.7 38.5357 89.6133 38.8477 89.44C39.1597 89.258 39.4067 89.0023 39.5887 88.673C39.7707 88.3437 39.8617 87.9623 39.8617 87.529C39.8617 87.0957 39.7707 86.7143 39.5887 86.385C39.4067 86.0557 39.1597 85.8043 38.8477 85.631C38.5357 85.449 38.1847 85.358 37.7947 85.358C37.4047 85.358 37.0537 85.449 36.7417 85.631C36.4297 85.8043 36.1827 86.0557 36.0007 86.385C35.8187 86.7143 35.7277 87.0957 35.7277 87.529C35.7277 87.9623 35.8187 88.3437 36.0007 88.673C36.1827 89.0023 36.4297 89.258 36.7417 89.44C37.0537 89.6133 37.4047 89.7 37.7947 89.7ZM50.3075 84.058V91H48.7605V90.116C48.5005 90.428 48.1755 90.6707 47.7855 90.844C47.3955 91.0087 46.9752 91.091 46.5245 91.091C45.5972 91.091 44.8648 90.8353 44.3275 90.324C43.7988 89.804 43.5345 89.037 43.5345 88.023V84.058H45.1595V87.802C45.1595 88.426 45.2982 88.894 45.5755 89.206C45.8615 89.5093 46.2645 89.661 46.7845 89.661C47.3652 89.661 47.8245 89.4833 48.1625 89.128C48.5092 88.764 48.6825 88.244 48.6825 87.568V84.058H50.3075ZM56.8551 91L55.0741 88.595L53.2801 91H51.4861L54.1901 87.477L51.6031 84.058H53.4101L55.1131 86.333L56.8161 84.058H58.5711L55.9711 87.451L58.6881 91H56.8551Z" fill="#764ABC"/>
<g clip-path="url(#clip0)">
<path d="M51.9671 52.172C54.7348 51.8714 56.8345 49.3681 56.739 46.3638C56.6437 43.3598 54.2575 40.9565 51.3943 40.9565H51.2036C48.2446 41.0567 45.9542 43.6601 46.0497 46.7643C46.1452 48.2665 46.7177 49.5682 47.5767 50.4695C44.3317 57.1789 39.3688 62.0855 31.9245 66.1912C26.8661 68.9951 21.617 69.9965 16.3679 69.2957C12.0729 68.6948 8.73252 66.6922 6.63252 63.3873C3.57861 58.4806 3.29238 53.1732 5.86933 47.866C7.68281 44.0607 10.5457 41.2568 12.3592 39.8548C11.9774 38.5531 11.4047 36.3501 11.1185 34.7481C-2.72051 45.2625 -1.28877 59.4821 2.91064 66.1912C6.06006 71.1984 12.4547 74.3026 19.5173 74.3026C21.426 74.3026 23.3347 74.1021 25.2436 73.6017C37.4602 71.0982 46.718 63.4875 51.9671 52.172ZM68.7647 39.7549C61.5111 30.8425 50.8219 25.9359 38.6054 25.9359H37.0784C36.2194 24.1334 34.406 22.9316 32.4018 22.9316H32.2107C29.2523 23.0318 26.9619 25.6352 27.0571 28.7398C27.1526 31.7437 29.5386 34.1471 32.4018 34.1471H32.5925C34.6922 34.0469 36.5057 32.645 37.2691 30.7423H38.9871C46.2407 30.7423 53.1123 32.9453 59.3162 37.2513C64.0881 40.5559 67.524 44.862 69.4327 50.069C71.0552 54.2748 70.9597 58.3804 69.2417 61.8854C66.5695 67.1926 62.0839 70.0967 56.1665 70.0967C52.3488 70.0967 48.7222 68.8949 46.8132 67.9936C45.7635 68.9951 43.8545 70.5971 42.5183 71.5989C46.6225 73.6014 50.8219 74.7031 54.8303 74.7031C63.9926 74.7031 70.7689 69.3956 73.3459 64.0884C76.1136 58.2802 75.9226 48.2665 68.7647 39.7549ZM20.2808 53.874C20.3763 56.8783 22.7622 59.2813 25.6254 59.2813H25.8164C28.7751 59.1815 31.0655 56.5777 30.97 53.4735C30.8748 50.4692 28.4886 48.0661 25.6254 48.0661H25.4347C25.2436 48.0661 24.9571 48.0661 24.7667 48.166C20.8535 41.3567 19.2311 33.9467 19.8038 25.9356C20.1852 19.9273 22.0942 14.72 25.4347 10.4139C28.2023 6.70881 33.547 4.90635 37.1739 4.80645C47.2904 4.60604 51.5851 17.8242 51.8716 23.1317C53.1123 23.432 55.212 24.1331 56.6437 24.6338C55.4982 8.41168 45.9542 0 36.7922 0C28.2023 0 20.2808 6.50902 17.1311 16.1222C12.7409 28.9399 15.6041 41.2568 20.9487 50.9702C20.4718 51.671 20.1852 52.7726 20.2808 53.8743V53.874Z" fill="#764ABC"/>
</g>
<defs>
<clipPath id="clip0">
<rect width="75" height="75" fill="white"/>
</clipPath>
</defs>
</svg>
