<svg width="134" height="100" viewBox="0 0 134 100" fill="none" xmlns="http://www.w3.org/2000/svg">
<path d="M84.5583 28.6665L84.2458 30.2957C83.7625 33.3832 83.9375 34.2665 85.2625 35.4123L86.5417 36.4707L85.2167 42.379C84.425 45.904 83.4542 48.8582 82.8375 49.829C82.3083 50.6665 81.6917 51.8998 81.5583 52.5623C81.3375 53.354 80.5875 54.1498 79.4417 54.854C78.4292 55.429 76.4417 56.9707 75.0333 58.2082C73.9083 59.2207 73.1333 59.8415 72.7125 60.1082L71.3375 61.1957C70.9839 61.72 70.7179 62.2984 70.55 62.9082C70.4542 63.354 70.5083 63.6498 70.65 63.8665C70.7875 64.0748 71.025 64.2207 71.35 64.3123C71.7347 64.4025 72.1307 64.4348 72.525 64.4082C73.4169 64.3472 74.2998 64.1908 75.1583 63.9415C75.45 63.8623 75.6792 63.7873 75.8792 63.7207C76.1875 63.3415 76.9 62.6248 78.1625 61.379C81.5125 58.0748 82.7917 56.2665 81.4708 56.754C80.9833 56.929 81.2042 56.4873 82.0417 55.604C83.8083 53.8832 84.8208 51.2832 86.9375 43.129C88.6125 36.6915 88.6125 36.5998 89.8458 36.5998C90.425 36.5998 92.0625 36.6998 92.0625 36.6998V28.6665H88.3042H84.5583ZM100.554 41.854C100.287 41.854 99.8458 42.254 99.5833 42.6957C99.1 43.4873 99.6708 43.9707 106.946 48.5123C111.267 51.2498 114.75 53.5832 114.662 53.7623C114.575 53.8915 111.046 56.1873 106.817 58.8332C99.1417 63.5915 99.1 63.6373 99.8042 64.6082C100.687 65.754 99.8042 66.1498 109.767 59.9332L117 55.304V51.8207L108.929 46.8373C104.567 44.104 100.775 41.8998 100.554 41.854ZM33.5333 42.3415C33.3125 42.3415 29.5208 44.5915 25.1583 47.279L17 52.2623V55.7457L25.1125 60.8165C29.6125 63.5915 33.4042 65.8873 33.5792 65.8873C33.7542 65.8873 34.1083 65.4873 34.4625 65.004C34.9917 64.1665 34.5458 63.8123 27.0958 59.0957C20 54.6415 19.25 54.0248 19.9583 53.5415C20.4 53.2332 23.75 51.1582 27.3667 48.9123C35.6125 43.8415 35.1708 44.1915 34.5083 43.1332C34.2458 42.6957 33.8 42.2998 33.5375 42.3415H33.5333ZM69.7167 42.4373C68.5 42.429 65.8833 44.2832 58.05 50.679C57.7125 51.4832 57.6833 52.0373 57.8375 52.3957C57.9375 52.6415 58.1208 52.8123 58.375 52.9373C58.625 53.0623 58.95 53.1373 59.3083 53.1665C60.0208 53.229 60.8625 53.1165 61.5417 52.9832L62 52.879C62.1569 52.6686 62.3629 52.4998 62.6 52.3873C63.0833 52.1207 65.1125 50.2707 67.1417 48.2873C70.7125 44.6707 71.55 43.0373 70.0958 42.5082C69.9765 42.4607 69.8492 42.4367 69.7208 42.4373H69.7167ZM78.8667 44.9498C77.7958 44.979 75.8667 46.2207 72.5625 48.8582C70.9042 50.204 69.8542 50.929 69.2917 51.079L67.1083 52.804C66.2875 54.304 66.1667 55.2332 66.3833 55.7457C66.4376 55.8721 66.5163 55.9865 66.615 56.0824C66.7137 56.1782 66.8304 56.2535 66.9583 56.304C67.2767 56.4297 67.6161 56.4934 67.9583 56.4915C68.7762 56.4828 69.5891 56.3637 70.375 56.1373C70.7846 56.0274 71.1892 55.8995 71.5875 55.754L71.7083 55.704L71.9292 55.5873C72.3458 55.0498 73.3042 54.0373 74.5042 52.8707C78.2958 49.2123 80.2333 46.6123 79.8375 45.6415C79.6583 45.1707 79.35 44.9332 78.8667 44.9498ZM68.7667 49.4498C68.4583 49.4832 67.7667 50.0165 66.5208 51.1082C64.7208 52.6998 62.7583 53.6165 62.0792 53.2082C61.9213 53.2438 61.763 53.2772 61.6042 53.3082C60.9125 53.4457 60.05 53.5582 59.2792 53.4957C58.916 53.4737 58.56 53.3847 58.2292 53.2332C57.9171 53.0905 57.6681 52.8385 57.5292 52.5248C57.375 52.1498 57.375 51.6832 57.55 51.0873L54.8417 53.3123L48.7125 58.3832V66.604L68.7958 50.7832C68.7919 50.6099 68.8144 50.4371 68.8625 50.2707C69.0167 49.7123 69.0083 49.429 68.7667 49.454V49.4498ZM77.4083 52.1123C77.1042 52.1123 76.5958 52.5415 75.7833 53.404C74.6792 54.5832 72.9417 55.7248 72.0208 55.9582L71.8792 56.0332C71.728 56.0956 71.5751 56.154 71.4208 56.2082C71.1708 56.2915 70.8458 56.3915 70.4708 56.4915C69.7208 56.6957 68.7875 56.8832 67.9542 56.8623C67.5613 56.8618 67.1722 56.7854 66.8083 56.6373C66.4654 56.496 66.1905 56.2271 66.0417 55.8873C65.8 55.3082 65.8958 54.4957 66.425 53.3415L48.7083 67.2957V72.3165H56.4917L73 59.3498C73.4292 58.8748 74.075 58.2248 74.9458 57.4123C77.2792 55.2498 77.8083 54.504 77.8083 53.3998C77.8083 52.5415 77.7125 52.1082 77.4083 52.1082V52.1123ZM81.3375 60.2373L79.925 61.6457C79.1333 62.3957 77.7208 63.3207 76.7542 63.7165L76.5625 63.7998L76.55 63.8207L76.5083 63.8623C76.4708 63.8915 76.4542 63.8957 76.425 63.9082C76.0391 64.0542 75.6471 64.1835 75.25 64.2957C74.3672 64.5527 73.4591 64.7133 72.5417 64.7748C72.1079 64.8027 71.6724 64.7647 71.25 64.6623C70.8834 64.5816 70.5598 64.3679 70.3417 64.0623C70.1417 63.754 70.0833 63.3415 70.1958 62.8332C70.2853 62.4713 70.4182 62.1215 70.5917 61.7915L57.2708 72.3165H74.9875L77.1042 69.8915C80.0125 66.4998 81.3375 64.0748 81.3375 61.9998V60.2373Z" fill="black"/>
<path d="M4.043 88.13C3.341 88.13 2.66067 88.0303 2.002 87.831C1.352 87.6317 0.836333 87.3673 0.455 87.038L1.04 85.725C1.41267 86.0197 1.86767 86.2623 2.405 86.453C2.951 86.635 3.497 86.726 4.043 86.726C4.719 86.726 5.22167 86.6177 5.551 86.401C5.889 86.1843 6.058 85.8983 6.058 85.543C6.058 85.283 5.96267 85.0707 5.772 84.906C5.59 84.7327 5.356 84.5983 5.07 84.503C4.784 84.4077 4.394 84.2993 3.9 84.178C3.20667 84.0133 2.64333 83.8487 2.21 83.684C1.78533 83.5193 1.417 83.2637 1.105 82.917C0.801667 82.5617 0.65 82.085 0.65 81.487C0.65 80.9843 0.784333 80.5293 1.053 80.122C1.33033 79.706 1.742 79.3767 2.288 79.134C2.84267 78.8913 3.51867 78.77 4.316 78.77C4.87067 78.77 5.41667 78.8393 5.954 78.978C6.49133 79.1167 6.955 79.316 7.345 79.576L6.812 80.889C6.41333 80.655 5.99733 80.4773 5.564 80.356C5.13067 80.2347 4.71033 80.174 4.303 80.174C3.63567 80.174 3.13733 80.2867 2.808 80.512C2.48733 80.7373 2.327 81.0363 2.327 81.409C2.327 81.669 2.418 81.8813 2.6 82.046C2.79067 82.2107 3.029 82.3407 3.315 82.436C3.601 82.5313 3.991 82.6397 4.485 82.761C5.161 82.917 5.71567 83.0817 6.149 83.255C6.58233 83.4197 6.95067 83.6753 7.254 84.022C7.566 84.3687 7.722 84.8367 7.722 85.426C7.722 85.9287 7.58333 86.3837 7.306 86.791C7.03733 87.1983 6.62567 87.5233 6.071 87.766C5.51633 88.0087 4.84033 88.13 4.043 88.13ZM13.4148 87.623C13.2241 87.779 12.9901 87.896 12.7128 87.974C12.4441 88.052 12.1581 88.091 11.8548 88.091C11.0921 88.091 10.5028 87.8917 10.0868 87.493C9.67078 87.0943 9.46278 86.5137 9.46278 85.751V82.41H8.31878V81.11H9.46278V79.524H11.0878V81.11H12.9468V82.41H11.0878V85.712C11.0878 86.05 11.1701 86.31 11.3348 86.492C11.4994 86.6653 11.7378 86.752 12.0498 86.752C12.4138 86.752 12.7171 86.6567 12.9598 86.466L13.4148 87.623ZM21.1246 81.058L17.8746 88.559C17.5713 89.313 17.2029 89.8417 16.7696 90.145C16.3363 90.457 15.8119 90.613 15.1966 90.613C14.8499 90.613 14.5076 90.5567 14.1696 90.444C13.8316 90.3313 13.5543 90.1753 13.3376 89.976L13.9876 88.78C14.1436 88.9273 14.3256 89.0443 14.5336 89.131C14.7503 89.2177 14.9669 89.261 15.1836 89.261C15.4696 89.261 15.7036 89.1873 15.8856 89.04C16.0763 88.8927 16.2496 88.6457 16.4056 88.299L16.5226 88.026L13.4936 81.058H15.1836L17.3676 86.193L19.5646 81.058H21.1246ZM22.1402 78.354H23.7652V88H22.1402V78.354ZM32.424 84.568C32.424 84.6807 32.4154 84.841 32.398 85.049H26.951C27.0464 85.5603 27.2934 85.9677 27.692 86.271C28.0994 86.5657 28.602 86.713 29.2 86.713C29.9627 86.713 30.591 86.4617 31.085 85.959L31.956 86.96C31.644 87.3327 31.2497 87.6143 30.773 87.805C30.2964 87.9957 29.759 88.091 29.161 88.091C28.3984 88.091 27.7267 87.9393 27.146 87.636C26.5654 87.3327 26.1147 86.9123 25.794 86.375C25.482 85.829 25.326 85.2137 25.326 84.529C25.326 83.853 25.4777 83.2463 25.781 82.709C26.093 82.163 26.522 81.7383 27.068 81.435C27.614 81.1317 28.2294 80.98 28.914 80.98C29.59 80.98 30.1924 81.1317 30.721 81.435C31.2584 81.7297 31.6744 82.15 31.969 82.696C32.2724 83.2333 32.424 83.8573 32.424 84.568ZM28.914 82.28C28.394 82.28 27.952 82.436 27.588 82.748C27.2327 83.0513 27.016 83.4587 26.938 83.97H30.877C30.8077 83.4673 30.5954 83.06 30.24 82.748C29.8847 82.436 29.4427 82.28 28.914 82.28ZM40.7839 78.354V88H39.2239V87.103C38.9553 87.4323 38.6216 87.6793 38.2229 87.844C37.8329 88.0087 37.3996 88.091 36.9229 88.091C36.2556 88.091 35.6533 87.9437 35.1159 87.649C34.5873 87.3543 34.1713 86.9383 33.8679 86.401C33.5646 85.855 33.4129 85.231 33.4129 84.529C33.4129 83.827 33.5646 83.2073 33.8679 82.67C34.1713 82.1327 34.5873 81.7167 35.1159 81.422C35.6533 81.1273 36.2556 80.98 36.9229 80.98C37.3823 80.98 37.8026 81.058 38.1839 81.214C38.5653 81.37 38.8903 81.604 39.1589 81.916V78.354H40.7839ZM37.1179 86.7C37.5079 86.7 37.8589 86.6133 38.1709 86.44C38.4829 86.258 38.7299 86.0023 38.9119 85.673C39.0939 85.3437 39.1849 84.9623 39.1849 84.529C39.1849 84.0957 39.0939 83.7143 38.9119 83.385C38.7299 83.0557 38.4829 82.8043 38.1709 82.631C37.8589 82.449 37.5079 82.358 37.1179 82.358C36.7279 82.358 36.3769 82.449 36.0649 82.631C35.7529 82.8043 35.5059 83.0557 35.3239 83.385C35.1419 83.7143 35.0509 84.0957 35.0509 84.529C35.0509 84.9623 35.1419 85.3437 35.3239 85.673C35.5059 86.0023 35.7529 86.258 36.0649 86.44C36.3769 86.6133 36.7279 86.7 37.1179 86.7ZM42.5588 83.71H46.1338V85.062H42.5588V83.71ZM52.3432 88.13C51.4245 88.13 50.5925 87.9307 49.8472 87.532C49.1105 87.1247 48.5298 86.5657 48.1052 85.855C47.6892 85.1443 47.4812 84.3427 47.4812 83.45C47.4812 82.5573 47.6935 81.7557 48.1182 81.045C48.5428 80.3343 49.1235 79.7797 49.8602 79.381C50.6055 78.9737 51.4375 78.77 52.3562 78.77C53.1015 78.77 53.7818 78.9 54.3972 79.16C55.0125 79.42 55.5325 79.797 55.9572 80.291L54.8652 81.318C54.2065 80.6073 53.3962 80.252 52.4342 80.252C51.8102 80.252 51.2512 80.3907 50.7572 80.668C50.2632 80.9367 49.8775 81.3137 49.6002 81.799C49.3228 82.2843 49.1842 82.8347 49.1842 83.45C49.1842 84.0653 49.3228 84.6157 49.6002 85.101C49.8775 85.5863 50.2632 85.9677 50.7572 86.245C51.2512 86.5137 51.8102 86.648 52.4342 86.648C53.3962 86.648 54.2065 86.2883 54.8652 85.569L55.9572 86.609C55.5325 87.103 55.0082 87.48 54.3842 87.74C53.7688 88 53.0885 88.13 52.3432 88.13ZM60.2866 88.091C59.5846 88.091 58.9519 87.9393 58.3886 87.636C57.8253 87.3327 57.3833 86.9123 57.0626 86.375C56.7506 85.829 56.5946 85.2137 56.5946 84.529C56.5946 83.8443 56.7506 83.2333 57.0626 82.696C57.3833 82.1587 57.8253 81.7383 58.3886 81.435C58.9519 81.1317 59.5846 80.98 60.2866 80.98C60.9973 80.98 61.6343 81.1317 62.1976 81.435C62.7609 81.7383 63.1986 82.1587 63.5106 82.696C63.8313 83.2333 63.9916 83.8443 63.9916 84.529C63.9916 85.2137 63.8313 85.829 63.5106 86.375C63.1986 86.9123 62.7609 87.3327 62.1976 87.636C61.6343 87.9393 60.9973 88.091 60.2866 88.091ZM60.2866 86.7C60.8846 86.7 61.3786 86.5007 61.7686 86.102C62.1586 85.7033 62.3536 85.179 62.3536 84.529C62.3536 83.879 62.1586 83.3547 61.7686 82.956C61.3786 82.5573 60.8846 82.358 60.2866 82.358C59.6886 82.358 59.1946 82.5573 58.8046 82.956C58.4233 83.3547 58.2326 83.879 58.2326 84.529C58.2326 85.179 58.4233 85.7033 58.8046 86.102C59.1946 86.5007 59.6886 86.7 60.2866 86.7ZM74.3075 80.98C75.1828 80.98 75.8762 81.2357 76.3875 81.747C76.8988 82.2497 77.1545 83.008 77.1545 84.022V88H75.5295V84.23C75.5295 83.6233 75.3952 83.1683 75.1265 82.865C74.8578 82.553 74.4722 82.397 73.9695 82.397C73.4235 82.397 72.9858 82.579 72.6565 82.943C72.3272 83.2983 72.1625 83.8097 72.1625 84.477V88H70.5375V84.23C70.5375 83.6233 70.4032 83.1683 70.1345 82.865C69.8658 82.553 69.4802 82.397 68.9775 82.397C68.4228 82.397 67.9808 82.5747 67.6515 82.93C67.3308 83.2853 67.1705 83.801 67.1705 84.477V88H65.5455V81.058H67.0925V81.942C67.3525 81.63 67.6775 81.3917 68.0675 81.227C68.4575 81.0623 68.8908 80.98 69.3675 80.98C69.8875 80.98 70.3468 81.0797 70.7455 81.279C71.1528 81.4697 71.4735 81.7557 71.7075 82.137C71.9935 81.773 72.3618 81.4913 72.8125 81.292C73.2632 81.084 73.7615 80.98 74.3075 80.98ZM83.079 80.98C83.755 80.98 84.3574 81.1273 84.886 81.422C85.4234 81.7167 85.8437 82.1327 86.147 82.67C86.4504 83.2073 86.602 83.827 86.602 84.529C86.602 85.231 86.4504 85.855 86.147 86.401C85.8437 86.9383 85.4234 87.3543 84.886 87.649C84.3574 87.9437 83.755 88.091 83.079 88.091C82.143 88.091 81.402 87.779 80.856 87.155V90.522H79.231V81.058H80.778V81.968C81.0467 81.6387 81.376 81.3917 81.766 81.227C82.1647 81.0623 82.6024 80.98 83.079 80.98ZM82.897 86.7C83.495 86.7 83.9847 86.5007 84.366 86.102C84.756 85.7033 84.951 85.179 84.951 84.529C84.951 83.879 84.756 83.3547 84.366 82.956C83.9847 82.5573 83.495 82.358 82.897 82.358C82.507 82.358 82.156 82.449 81.844 82.631C81.532 82.8043 81.285 83.0557 81.103 83.385C80.921 83.7143 80.83 84.0957 80.83 84.529C80.83 84.9623 80.921 85.3437 81.103 85.673C81.285 86.0023 81.532 86.258 81.844 86.44C82.156 86.6133 82.507 86.7 82.897 86.7ZM91.2631 88.091C90.5611 88.091 89.9285 87.9393 89.3651 87.636C88.8018 87.3327 88.3598 86.9123 88.0391 86.375C87.7271 85.829 87.5711 85.2137 87.5711 84.529C87.5711 83.8443 87.7271 83.2333 88.0391 82.696C88.3598 82.1587 88.8018 81.7383 89.3651 81.435C89.9285 81.1317 90.5611 80.98 91.2631 80.98C91.9738 80.98 92.6108 81.1317 93.1741 81.435C93.7375 81.7383 94.1751 82.1587 94.4871 82.696C94.8078 83.2333 94.9681 83.8443 94.9681 84.529C94.9681 85.2137 94.8078 85.829 94.4871 86.375C94.1751 86.9123 93.7375 87.3327 93.1741 87.636C92.6108 87.9393 91.9738 88.091 91.2631 88.091ZM91.2631 86.7C91.8611 86.7 92.3551 86.5007 92.7451 86.102C93.1351 85.7033 93.3301 85.179 93.3301 84.529C93.3301 83.879 93.1351 83.3547 92.7451 82.956C92.3551 82.5573 91.8611 82.358 91.2631 82.358C90.6651 82.358 90.1711 82.5573 89.7811 82.956C89.3998 83.3547 89.2091 83.879 89.2091 84.529C89.2091 85.179 89.3998 85.7033 89.7811 86.102C90.1711 86.5007 90.6651 86.7 91.2631 86.7ZM100.461 80.98C101.336 80.98 102.038 81.2357 102.567 81.747C103.096 82.2583 103.36 83.0167 103.36 84.022V88H101.735V84.23C101.735 83.6233 101.592 83.1683 101.306 82.865C101.02 82.553 100.613 82.397 100.084 82.397C99.4861 82.397 99.0137 82.579 98.6671 82.943C98.3204 83.2983 98.1471 83.814 98.1471 84.49V88H96.5221V81.058H98.0691V81.955C98.3377 81.6343 98.6757 81.3917 99.0831 81.227C99.4904 81.0623 99.9497 80.98 100.461 80.98ZM112.011 84.568C112.011 84.6807 112.002 84.841 111.985 85.049H106.538C106.633 85.5603 106.88 85.9677 107.279 86.271C107.686 86.5657 108.189 86.713 108.787 86.713C109.55 86.713 110.178 86.4617 110.672 85.959L111.543 86.96C111.231 87.3327 110.837 87.6143 110.36 87.805C109.883 87.9957 109.346 88.091 108.748 88.091C107.985 88.091 107.314 87.9393 106.733 87.636C106.152 87.3327 105.702 86.9123 105.381 86.375C105.069 85.829 104.913 85.2137 104.913 84.529C104.913 83.853 105.065 83.2463 105.368 82.709C105.68 82.163 106.109 81.7383 106.655 81.435C107.201 81.1317 107.816 80.98 108.501 80.98C109.177 80.98 109.779 81.1317 110.308 81.435C110.845 81.7297 111.261 82.15 111.556 82.696C111.859 83.2333 112.011 83.8573 112.011 84.568ZM108.501 82.28C107.981 82.28 107.539 82.436 107.175 82.748C106.82 83.0513 106.603 83.4587 106.525 83.97H110.464C110.395 83.4673 110.182 83.06 109.827 82.748C109.472 82.436 109.03 82.28 108.501 82.28ZM117.511 80.98C118.386 80.98 119.088 81.2357 119.617 81.747C120.146 82.2583 120.41 83.0167 120.41 84.022V88H118.785V84.23C118.785 83.6233 118.642 83.1683 118.356 82.865C118.07 82.553 117.663 82.397 117.134 82.397C116.536 82.397 116.064 82.579 115.717 82.943C115.37 83.2983 115.197 83.814 115.197 84.49V88H113.572V81.058H115.119V81.955C115.388 81.6343 115.726 81.3917 116.133 81.227C116.54 81.0623 117 80.98 117.511 80.98ZM126.644 87.623C126.454 87.779 126.22 87.896 125.942 87.974C125.674 88.052 125.388 88.091 125.084 88.091C124.322 88.091 123.732 87.8917 123.316 87.493C122.9 87.0943 122.692 86.5137 122.692 85.751V82.41H121.548V81.11H122.692V79.524H124.317V81.11H126.176V82.41H124.317V85.712C124.317 86.05 124.4 86.31 124.564 86.492C124.729 86.6653 124.967 86.752 125.279 86.752C125.643 86.752 125.947 86.6567 126.189 86.466L126.644 87.623ZM130.126 88.091C129.563 88.091 129.012 88.0173 128.475 87.87C127.938 87.7227 127.509 87.5363 127.188 87.311L127.812 86.076C128.124 86.284 128.497 86.453 128.93 86.583C129.372 86.7043 129.805 86.765 130.23 86.765C131.201 86.765 131.686 86.5093 131.686 85.998C131.686 85.7553 131.56 85.5863 131.309 85.491C131.066 85.3957 130.672 85.3047 130.126 85.218C129.554 85.1313 129.086 85.0317 128.722 84.919C128.367 84.8063 128.055 84.6113 127.786 84.334C127.526 84.048 127.396 83.6537 127.396 83.151C127.396 82.4923 127.669 81.968 128.215 81.578C128.77 81.1793 129.515 80.98 130.451 80.98C130.928 80.98 131.404 81.0363 131.881 81.149C132.358 81.253 132.748 81.396 133.051 81.578L132.427 82.813C131.838 82.4663 131.175 82.293 130.438 82.293C129.961 82.293 129.597 82.3667 129.346 82.514C129.103 82.6527 128.982 82.839 128.982 83.073C128.982 83.333 129.112 83.5193 129.372 83.632C129.641 83.736 130.052 83.8357 130.607 83.931C131.162 84.0177 131.617 84.1173 131.972 84.23C132.327 84.3427 132.631 84.5333 132.882 84.802C133.142 85.0707 133.272 85.452 133.272 85.946C133.272 86.596 132.99 87.116 132.427 87.506C131.864 87.896 131.097 88.091 130.126 88.091Z" fill="black"/>
</svg>
