<svg width="75" height="91" viewBox="0 0 75 91" fill="none" xmlns="http://www.w3.org/2000/svg">
<path d="M0 37.5V75H75V0H0V37.5Z" fill="#007ACC"/>
<path d="M16.5853 37.749L16.5615 40.8202H26.3232V68.5584H33.2285V40.8202H42.9902V37.8084C42.9902 36.1414 42.9545 34.7487 42.907 34.7129C42.8713 34.6655 36.9308 34.6414 29.7284 34.6535L16.6213 34.6892L16.5855 37.7487L16.5853 37.749Z" fill="white"/>
<path d="M60.5178 34.6021C62.4224 35.0785 63.8749 35.9234 65.2082 37.3045C65.8987 38.0427 66.9224 39.388 67.0059 39.7094C67.0293 39.8046 63.7677 41.9952 61.7916 43.2212C61.7201 43.269 61.4342 42.9593 61.1128 42.483C60.1486 41.0785 59.1367 40.4711 57.589 40.3642C55.3155 40.2092 53.851 41.3999 53.863 43.3877C53.863 43.9712 53.9462 44.3164 54.1844 44.7927C54.6845 45.8284 55.6129 46.4474 58.5297 47.7092C63.8986 50.019 66.1961 51.5427 67.6249 53.7092C69.2201 56.1262 69.5773 59.9832 68.4939 62.8522C67.3035 65.9711 64.3513 68.0905 60.1961 68.7927C58.9106 69.0189 55.8631 68.9832 54.482 68.7333C51.4703 68.1974 48.613 66.7094 46.8511 64.7571C46.1605 63.9951 44.8152 62.007 44.8987 61.864C44.9345 61.8166 45.2439 61.6261 45.589 61.4237C45.9224 61.2333 47.1845 60.5067 48.3748 59.8165L50.5296 58.5664L50.9819 59.2332C51.613 60.1973 52.9938 61.5189 53.8273 61.9592C56.2199 63.2213 59.5059 63.0426 61.1248 61.5901C61.8153 60.9593 62.101 60.3045 62.101 59.3401C62.101 58.4711 61.9938 58.0903 61.5414 57.4358C60.9584 56.6023 59.7678 55.8998 56.3866 54.4358C52.5177 52.7688 50.851 51.7332 49.3272 50.0902C48.4463 49.138 47.6128 47.614 47.2677 46.3402C46.982 45.2808 46.9103 42.6259 47.1367 41.5545C47.9345 37.8163 50.7558 35.2094 54.8272 34.4354C56.1484 34.1855 59.2199 34.2807 60.5178 34.6024V34.6021Z" fill="white"/>
<path d="M5.068 80.33H2.052V78.9H9.774V80.33H6.758V88H5.068V80.33ZM16.9547 81.058L13.7047 88.559C13.4013 89.313 13.033 89.8417 12.5997 90.145C12.1663 90.457 11.642 90.613 11.0267 90.613C10.68 90.613 10.3377 90.5567 9.99967 90.444C9.66167 90.3313 9.38434 90.1753 9.16767 89.976L9.81767 88.78C9.97367 88.9273 10.1557 89.0443 10.3637 89.131C10.5803 89.2177 10.797 89.261 11.0137 89.261C11.2997 89.261 11.5337 89.1873 11.7157 89.04C11.9063 88.8927 12.0797 88.6457 12.2357 88.299L12.3527 88.026L9.32367 81.058H11.0137L13.1977 86.193L15.3947 81.058H16.9547ZM21.8183 80.98C22.4943 80.98 23.0966 81.1273 23.6253 81.422C24.1626 81.7167 24.583 82.1327 24.8863 82.67C25.1896 83.2073 25.3413 83.827 25.3413 84.529C25.3413 85.231 25.1896 85.855 24.8863 86.401C24.583 86.9383 24.1626 87.3543 23.6253 87.649C23.0966 87.9437 22.4943 88.091 21.8183 88.091C20.8823 88.091 20.1413 87.779 19.5953 87.155V90.522H17.9703V81.058H19.5173V81.968C19.786 81.6387 20.1153 81.3917 20.5053 81.227C20.904 81.0623 21.3416 80.98 21.8183 80.98ZM21.6363 86.7C22.2343 86.7 22.724 86.5007 23.1053 86.102C23.4953 85.7033 23.6903 85.179 23.6903 84.529C23.6903 83.879 23.4953 83.3547 23.1053 82.956C22.724 82.5573 22.2343 82.358 21.6363 82.358C21.2463 82.358 20.8953 82.449 20.5833 82.631C20.2713 82.8043 20.0243 83.0557 19.8423 83.385C19.6603 83.7143 19.5693 84.0957 19.5693 84.529C19.5693 84.9623 19.6603 85.3437 19.8423 85.673C20.0243 86.0023 20.2713 86.258 20.5833 86.44C20.8953 86.6133 21.2463 86.7 21.6363 86.7ZM33.4084 84.568C33.4084 84.6807 33.3997 84.841 33.3824 85.049H27.9354C28.0307 85.5603 28.2777 85.9677 28.6764 86.271C29.0837 86.5657 29.5864 86.713 30.1844 86.713C30.9471 86.713 31.5754 86.4617 32.0694 85.959L32.9404 86.96C32.6284 87.3327 32.2341 87.6143 31.7574 87.805C31.2807 87.9957 30.7434 88.091 30.1454 88.091C29.3827 88.091 28.7111 87.9393 28.1304 87.636C27.5497 87.3327 27.0991 86.9123 26.7784 86.375C26.4664 85.829 26.3104 85.2137 26.3104 84.529C26.3104 83.853 26.4621 83.2463 26.7654 82.709C27.0774 82.163 27.5064 81.7383 28.0524 81.435C28.5984 81.1317 29.2137 80.98 29.8984 80.98C30.5744 80.98 31.1767 81.1317 31.7054 81.435C32.2427 81.7297 32.6587 82.15 32.9534 82.696C33.2567 83.2333 33.4084 83.8573 33.4084 84.568ZM29.8984 82.28C29.3784 82.28 28.9364 82.436 28.5724 82.748C28.2171 83.0513 28.0004 83.4587 27.9224 83.97H31.8614C31.7921 83.4673 31.5797 83.06 31.2244 82.748C30.8691 82.436 30.4271 82.28 29.8984 82.28ZM37.9463 88.13C37.2443 88.13 36.564 88.0303 35.9053 87.831C35.2553 87.6317 34.7397 87.3673 34.3583 87.038L34.9433 85.725C35.316 86.0197 35.771 86.2623 36.3083 86.453C36.8543 86.635 37.4003 86.726 37.9463 86.726C38.6223 86.726 39.125 86.6177 39.4543 86.401C39.7923 86.1843 39.9613 85.8983 39.9613 85.543C39.9613 85.283 39.866 85.0707 39.6753 84.906C39.4933 84.7327 39.2593 84.5983 38.9733 84.503C38.6873 84.4077 38.2973 84.2993 37.8033 84.178C37.11 84.0133 36.5467 83.8487 36.1133 83.684C35.6887 83.5193 35.3203 83.2637 35.0083 82.917C34.705 82.5617 34.5533 82.085 34.5533 81.487C34.5533 80.9843 34.6877 80.5293 34.9563 80.122C35.2337 79.706 35.6453 79.3767 36.1913 79.134C36.746 78.8913 37.422 78.77 38.2193 78.77C38.774 78.77 39.32 78.8393 39.8573 78.978C40.3947 79.1167 40.8583 79.316 41.2483 79.576L40.7153 80.889C40.3167 80.655 39.9007 80.4773 39.4673 80.356C39.034 80.2347 38.6137 80.174 38.2063 80.174C37.539 80.174 37.0407 80.2867 36.7113 80.512C36.3907 80.7373 36.2303 81.0363 36.2303 81.409C36.2303 81.669 36.3213 81.8813 36.5033 82.046C36.694 82.2107 36.9323 82.3407 37.2183 82.436C37.5043 82.5313 37.8943 82.6397 38.3883 82.761C39.0643 82.917 39.619 83.0817 40.0523 83.255C40.4857 83.4197 40.854 83.6753 41.1573 84.022C41.4693 84.3687 41.6253 84.8367 41.6253 85.426C41.6253 85.9287 41.4867 86.3837 41.2093 86.791C40.9407 87.1983 40.529 87.5233 39.9743 87.766C39.4197 88.0087 38.7437 88.13 37.9463 88.13ZM46.3301 88.091C45.6108 88.091 44.9651 87.9393 44.3931 87.636C43.8211 87.3327 43.3748 86.9123 43.0541 86.375C42.7334 85.829 42.5731 85.2137 42.5731 84.529C42.5731 83.8443 42.7334 83.2333 43.0541 82.696C43.3748 82.1587 43.8168 81.7383 44.3801 81.435C44.9521 81.1317 45.6021 80.98 46.3301 80.98C47.0148 80.98 47.6128 81.1187 48.1241 81.396C48.6441 81.6733 49.0341 82.072 49.2941 82.592L48.0461 83.32C47.8468 82.9993 47.5954 82.761 47.2921 82.605C46.9974 82.4403 46.6724 82.358 46.3171 82.358C45.7104 82.358 45.2078 82.5573 44.8091 82.956C44.4104 83.346 44.2111 83.8703 44.2111 84.529C44.2111 85.1877 44.4061 85.7163 44.7961 86.115C45.1948 86.505 45.7018 86.7 46.3171 86.7C46.6724 86.7 46.9974 86.622 47.2921 86.466C47.5954 86.3013 47.8468 86.0587 48.0461 85.738L49.2941 86.466C49.0254 86.986 48.6311 87.389 48.1111 87.675C47.5998 87.9523 47.0061 88.091 46.3301 88.091ZM52.2458 82.072C52.7138 81.344 53.5371 80.98 54.7158 80.98V82.527C54.5771 82.501 54.4515 82.488 54.3388 82.488C53.7061 82.488 53.2121 82.6743 52.8568 83.047C52.5015 83.411 52.3238 83.9397 52.3238 84.633V88H50.6988V81.058H52.2458V82.072ZM56.0943 81.058H57.7193V88H56.0943V81.058ZM56.9133 79.914C56.6187 79.914 56.3717 79.823 56.1723 79.641C55.973 79.4503 55.8733 79.2163 55.8733 78.939C55.8733 78.6617 55.973 78.432 56.1723 78.25C56.3717 78.0593 56.6187 77.964 56.9133 77.964C57.208 77.964 57.455 78.055 57.6543 78.237C57.8537 78.4103 57.9533 78.6313 57.9533 78.9C57.9533 79.186 57.8537 79.4287 57.6543 79.628C57.4637 79.8187 57.2167 79.914 56.9133 79.914ZM63.7001 80.98C64.3761 80.98 64.9785 81.1273 65.5071 81.422C66.0445 81.7167 66.4648 82.1327 66.7681 82.67C67.0715 83.2073 67.2231 83.827 67.2231 84.529C67.2231 85.231 67.0715 85.855 66.7681 86.401C66.4648 86.9383 66.0445 87.3543 65.5071 87.649C64.9785 87.9437 64.3761 88.091 63.7001 88.091C62.7641 88.091 62.0231 87.779 61.4771 87.155V90.522H59.8521V81.058H61.3991V81.968C61.6678 81.6387 61.9971 81.3917 62.3871 81.227C62.7858 81.0623 63.2235 80.98 63.7001 80.98ZM63.5181 86.7C64.1161 86.7 64.6058 86.5007 64.9871 86.102C65.3771 85.7033 65.5721 85.179 65.5721 84.529C65.5721 83.879 65.3771 83.3547 64.9871 82.956C64.6058 82.5573 64.1161 82.358 63.5181 82.358C63.1281 82.358 62.7771 82.449 62.4651 82.631C62.1531 82.8043 61.9061 83.0557 61.7241 83.385C61.5421 83.7143 61.4511 84.0957 61.4511 84.529C61.4511 84.9623 61.5421 85.3437 61.7241 85.673C61.9061 86.0023 62.1531 86.258 62.4651 86.44C62.7771 86.6133 63.1281 86.7 63.5181 86.7ZM72.9372 87.623C72.7466 87.779 72.5126 87.896 72.2352 87.974C71.9666 88.052 71.6806 88.091 71.3772 88.091C70.6146 88.091 70.0252 87.8917 69.6092 87.493C69.1932 87.0943 68.9852 86.5137 68.9852 85.751V82.41H67.8412V81.11H68.9852V79.524H70.6102V81.11H72.4692V82.41H70.6102V85.712C70.6102 86.05 70.6926 86.31 70.8572 86.492C71.0219 86.6653 71.2602 86.752 71.5722 86.752C71.9362 86.752 72.2396 86.6567 72.4822 86.466L72.9372 87.623Z" fill="#007ACC"/>
</svg>
