<svg width="75" height="86" viewBox="0 0 75 86" fill="none" xmlns="http://www.w3.org/2000/svg">
<path d="M20.542 73.9L16.577 83H14.913L10.935 73.9H12.768L15.797 80.92L18.852 73.9H20.542ZM24.3233 83.13C23.6213 83.13 22.9409 83.0303 22.2823 82.831C21.6323 82.6317 21.1166 82.3673 20.7353 82.038L21.3203 80.725C21.6929 81.0197 22.1479 81.2623 22.6853 81.453C23.2313 81.635 23.7773 81.726 24.3233 81.726C24.9993 81.726 25.5019 81.6177 25.8313 81.401C26.1693 81.1843 26.3383 80.8983 26.3383 80.543C26.3383 80.283 26.2429 80.0707 26.0523 79.906C25.8703 79.7327 25.6363 79.5983 25.3503 79.503C25.0643 79.4077 24.6743 79.2993 24.1803 79.178C23.4869 79.0133 22.9236 78.8487 22.4903 78.684C22.0656 78.5193 21.6973 78.2637 21.3853 77.917C21.0819 77.5617 20.9303 77.085 20.9303 76.487C20.9303 75.9843 21.0646 75.5293 21.3333 75.122C21.6106 74.706 22.0223 74.3767 22.5683 74.134C23.1229 73.8913 23.7989 73.77 24.5963 73.77C25.1509 73.77 25.6969 73.8393 26.2343 73.978C26.7716 74.1167 27.2353 74.316 27.6253 74.576L27.0923 75.889C26.6936 75.655 26.2776 75.4773 25.8443 75.356C25.4109 75.2347 24.9906 75.174 24.5833 75.174C23.9159 75.174 23.4176 75.2867 23.0883 75.512C22.7676 75.7373 22.6073 76.0363 22.6073 76.409C22.6073 76.669 22.6983 76.8813 22.8803 77.046C23.0709 77.2107 23.3093 77.3407 23.5953 77.436C23.8813 77.5313 24.2713 77.6397 24.7653 77.761C25.4413 77.917 25.9959 78.0817 26.4293 78.255C26.8626 78.4197 27.2309 78.6753 27.5343 79.022C27.8463 79.3687 28.0023 79.8367 28.0023 80.426C28.0023 80.9287 27.8636 81.3837 27.5863 81.791C27.3176 82.1983 26.9059 82.5233 26.3513 82.766C25.7966 83.0087 25.1206 83.13 24.3233 83.13ZM33.8901 83.13C32.9714 83.13 32.1394 82.9307 31.3941 82.532C30.6574 82.1247 30.0767 81.5657 29.6521 80.855C29.2361 80.1443 29.0281 79.3427 29.0281 78.45C29.0281 77.5573 29.2404 76.7557 29.6651 76.045C30.0897 75.3343 30.6704 74.7797 31.4071 74.381C32.1524 73.9737 32.9844 73.77 33.9031 73.77C34.6484 73.77 35.3287 73.9 35.9441 74.16C36.5594 74.42 37.0794 74.797 37.5041 75.291L36.4121 76.318C35.7534 75.6073 34.9431 75.252 33.9811 75.252C33.3571 75.252 32.7981 75.3907 32.3041 75.668C31.8101 75.9367 31.4244 76.3137 31.1471 76.799C30.8697 77.2843 30.7311 77.8347 30.7311 78.45C30.7311 79.0653 30.8697 79.6157 31.1471 80.101C31.4244 80.5863 31.8101 80.9677 32.3041 81.245C32.7981 81.5137 33.3571 81.648 33.9811 81.648C34.9431 81.648 35.7534 81.2883 36.4121 80.569L37.5041 81.609C37.0794 82.103 36.5551 82.48 35.9311 82.74C35.3157 83 34.6354 83.13 33.8901 83.13ZM41.8335 83.091C41.1315 83.091 40.4988 82.9393 39.9355 82.636C39.3721 82.3327 38.9301 81.9123 38.6095 81.375C38.2975 80.829 38.1415 80.2137 38.1415 79.529C38.1415 78.8443 38.2975 78.2333 38.6095 77.696C38.9301 77.1587 39.3721 76.7383 39.9355 76.435C40.4988 76.1317 41.1315 75.98 41.8335 75.98C42.5441 75.98 43.1811 76.1317 43.7445 76.435C44.3078 76.7383 44.7455 77.1587 45.0575 77.696C45.3781 78.2333 45.5385 78.8443 45.5385 79.529C45.5385 80.2137 45.3781 80.829 45.0575 81.375C44.7455 81.9123 44.3078 82.3327 43.7445 82.636C43.1811 82.9393 42.5441 83.091 41.8335 83.091ZM41.8335 81.7C42.4315 81.7 42.9255 81.5007 43.3155 81.102C43.7055 80.7033 43.9005 80.179 43.9005 79.529C43.9005 78.879 43.7055 78.3547 43.3155 77.956C42.9255 77.5573 42.4315 77.358 41.8335 77.358C41.2355 77.358 40.7415 77.5573 40.3515 77.956C39.9701 78.3547 39.7795 78.879 39.7795 79.529C39.7795 80.179 39.9701 80.7033 40.3515 81.102C40.7415 81.5007 41.2355 81.7 41.8335 81.7ZM53.8914 73.354V83H52.3314V82.103C52.0627 82.4323 51.729 82.6793 51.3304 82.844C50.9404 83.0087 50.507 83.091 50.0304 83.091C49.363 83.091 48.7607 82.9437 48.2234 82.649C47.6947 82.3543 47.2787 81.9383 46.9754 81.401C46.672 80.855 46.5204 80.231 46.5204 79.529C46.5204 78.827 46.672 78.2073 46.9754 77.67C47.2787 77.1327 47.6947 76.7167 48.2234 76.422C48.7607 76.1273 49.363 75.98 50.0304 75.98C50.4897 75.98 50.91 76.058 51.2914 76.214C51.6727 76.37 51.9977 76.604 52.2664 76.916V73.354H53.8914ZM50.2254 81.7C50.6154 81.7 50.9664 81.6133 51.2784 81.44C51.5904 81.258 51.8374 81.0023 52.0194 80.673C52.2014 80.3437 52.2924 79.9623 52.2924 79.529C52.2924 79.0957 52.2014 78.7143 52.0194 78.385C51.8374 78.0557 51.5904 77.8043 51.2784 77.631C50.9664 77.449 50.6154 77.358 50.2254 77.358C49.8354 77.358 49.4844 77.449 49.1724 77.631C48.8604 77.8043 48.6134 78.0557 48.4314 78.385C48.2494 78.7143 48.1584 79.0957 48.1584 79.529C48.1584 79.9623 48.2494 80.3437 48.4314 80.673C48.6134 81.0023 48.8604 81.258 49.1724 81.44C49.4844 81.6133 49.8354 81.7 50.2254 81.7ZM62.5432 79.568C62.5432 79.6807 62.5345 79.841 62.5172 80.049H57.0702C57.1655 80.5603 57.4125 80.9677 57.8112 81.271C58.2185 81.5657 58.7212 81.713 59.3192 81.713C60.0818 81.713 60.7102 81.4617 61.2042 80.959L62.0752 81.96C61.7632 82.3327 61.3688 82.6143 60.8922 82.805C60.4155 82.9957 59.8782 83.091 59.2802 83.091C58.5175 83.091 57.8458 82.9393 57.2652 82.636C56.6845 82.3327 56.2338 81.9123 55.9132 81.375C55.6012 80.829 55.4452 80.2137 55.4452 79.529C55.4452 78.853 55.5968 78.2463 55.9002 77.709C56.2122 77.163 56.6412 76.7383 57.1872 76.435C57.7332 76.1317 58.3485 75.98 59.0332 75.98C59.7092 75.98 60.3115 76.1317 60.8402 76.435C61.3775 76.7297 61.7935 77.15 62.0882 77.696C62.3915 78.2333 62.5432 78.8573 62.5432 79.568ZM59.0332 77.28C58.5132 77.28 58.0712 77.436 57.7072 77.748C57.3518 78.0513 57.1352 78.4587 57.0572 78.97H60.9962C60.9268 78.4673 60.7145 78.06 60.3592 77.748C60.0038 77.436 59.5618 77.28 59.0332 77.28Z" fill="#0065A9"/>
<path d="M67.9921 11.7893L54.4781 5.2831C53.7149 4.91513 52.8561 4.79369 52.0208 4.93564C51.1856 5.07758 50.4151 5.47587 49.8163 6.07529L5.57806 46.4065C5.04132 46.8936 4.72002 47.5739 4.68486 48.2978C4.6497 49.0217 4.90354 49.7299 5.39056 50.2667C5.44915 50.33 5.50774 50.3909 5.57102 50.4472L9.18274 53.7284C9.65469 54.1579 10.2622 54.4086 10.8997 54.4369C11.5372 54.4651 12.1645 54.2692 12.6726 53.8831L65.9577 13.4768C66.3602 13.1714 66.84 12.9844 67.343 12.9369C67.8459 12.8893 68.3522 12.9831 68.8048 13.2077C69.2574 13.4323 69.6383 13.7788 69.9046 14.2081C70.171 14.6374 70.3122 15.1326 70.3124 15.6378V15.4808C70.3124 14.7094 70.0946 13.9538 69.6841 13.3007C69.2736 12.6477 68.6872 12.1238 67.9921 11.7893V11.7893Z" fill="#0065A9"/>
<path d="M67.9921 63.2107L54.4781 69.7193C53.7146 70.0863 52.8561 70.2071 52.0211 70.0652C51.1861 69.9233 50.4157 69.5257 49.8163 68.9271L5.57806 28.5935C5.04132 28.1065 4.72002 27.4262 4.68486 26.7023C4.6497 25.9784 4.90354 25.2701 5.39056 24.7334C5.44915 24.6701 5.50774 24.6092 5.57102 24.5529L9.18274 21.2717C9.65517 20.8403 10.264 20.5886 10.9031 20.5603C11.5422 20.532 12.171 20.729 12.6796 21.117L65.9577 61.5232C66.3602 61.8286 66.84 62.0156 67.343 62.0632C67.8459 62.1107 68.3522 62.0169 68.8048 61.7924C69.2574 61.5678 69.6383 61.2213 69.9046 60.792C70.171 60.3627 70.3122 59.8675 70.3124 59.3623V59.531C70.3099 60.3003 70.091 61.0534 69.6806 61.7041C69.2703 62.3548 68.6852 62.8769 67.9921 63.2107V63.2107Z" fill="#007ACC"/>
<path d="M54.4782 69.7194C53.7148 70.0864 52.8563 70.2072 52.0213 70.0653C51.1862 69.9234 50.4158 69.5258 49.8165 68.9273C50.1531 69.2594 50.5802 69.4849 51.0444 69.5754C51.5085 69.6659 51.9891 69.6174 52.4258 69.4359C52.8625 69.2545 53.2359 68.9482 53.4993 68.5554C53.7627 68.1627 53.9043 67.7009 53.9063 67.228V7.77179C53.9067 7.29668 53.7661 6.83215 53.5023 6.43704C53.2384 6.04192 52.8633 5.734 52.4243 5.55229C51.9853 5.37057 51.5023 5.32323 51.0364 5.41627C50.5705 5.50931 50.1427 5.73854 49.8071 6.07491C50.406 5.47571 51.1763 5.0774 52.0114 4.93506C52.8466 4.79272 53.7053 4.91339 54.4688 5.28038L67.9806 11.7773C68.6778 12.1101 69.2667 12.6332 69.6793 13.2864C70.092 13.9396 70.3115 14.6961 70.3126 15.4687V59.5312C70.3128 60.3031 70.0949 61.0595 69.6839 61.713C69.273 62.3665 68.6858 62.8906 67.9899 63.2249L54.4782 69.7194Z" fill="#1F9CF0"/>
</svg>
